<?xml version="1.0" standalone="no"?>
<!DOCTYPE svg PUBLIC "-//W3C//DTD SVG 1.1//EN" "http://www.w3.org/Graphics/SVG/1.1/DTD/svg11.dtd" >
<svg xmlns="http://www.w3.org/2000/svg" xmlns:xlink="http://www.w3.org/1999/xlink" version="1.1">
<metadata></metadata>
<defs>
<font id="acme_gothic_widelight" horiz-adv-x="1464" >
<font-face units-per-em="2048" ascent="1659" descent="-389" />
<missing-glyph horiz-adv-x="634" />
<glyph horiz-adv-x="0" />
<glyph horiz-adv-x="682" />
<glyph unicode=" "  horiz-adv-x="634" />
<glyph unicode="&#x09;" horiz-adv-x="634" />
<glyph unicode="&#xa0;" horiz-adv-x="634" />
<glyph unicode="!" horiz-adv-x="614" d="M170 115q0 59 39.5 99t97.5 40t97.5 -40t39.5 -99q0 -57 -39.5 -97.5t-97.5 -40.5t-97.5 40.5t-39.5 97.5zM172 1434h272l-90 -1012h-94z" />
<glyph unicode="&#x22;" horiz-adv-x="933" d="M102 743l283 691h115l-283 -691h-115zM434 743l283 691h114l-282 -691h-115z" />
<glyph unicode="#" horiz-adv-x="1527" d="M113 471l37 84h280l139 326h-280l37 82h278l203 471h92l-203 -471h346l203 471h92l-202 -471h280l-37 -82h-278l-142 -326h281l-37 -84h-280l-203 -471h-90l202 471h-348l-202 -471h-91l203 471h-280zM520 555h348l140 326h-346z" />
<glyph unicode="$" horiz-adv-x="1071" d="M84 322l43 79h23q157 -133 372 -133q118 0 182 45.5t64 124.5q0 48 -27.5 85t-72.5 59t-102.5 43t-117 37.5t-117 43t-102.5 58t-72.5 84.5t-27.5 121q0 119 97.5 195t258.5 87v183h103v-183q176 -11 311 -106l-37 -78h-22q-53 46 -131.5 73t-169.5 27 q-111 0 -173.5 -38.5t-62.5 -102.5q0 -49 36.5 -85t95.5 -59t130 -44.5t142 -47.5t130 -60.5t95.5 -92t36.5 -133.5q0 -97 -52.5 -168.5t-136.5 -108.5t-192 -45v-182h-103v180q-235 12 -401 142z" />
<glyph unicode="%" horiz-adv-x="2275" d="M66 1004q0 208 126.5 326t321.5 118q192 0 319.5 -118t127.5 -326q0 -138 -60.5 -240t-161 -153.5t-225.5 -51.5q-194 0 -321 119.5t-127 325.5zM270 877q0 -244 244 -244q242 0 242 246v247q0 248 -242 248q-244 0 -244 -248v-249zM535 0l1091 1434h115l-1090 -1434 h-116zM1315 430q0 208 126.5 326t321.5 118q192 0 319.5 -118t127.5 -326q0 -137 -60.5 -239.5t-161 -153.5t-225.5 -51q-194 0 -321 119t-127 325zM1520 303q0 -244 243 -244q242 0 242 246v248q0 248 -242 248q-243 0 -243 -248v-250z" />
<glyph unicode="&#x26;" horiz-adv-x="1460" d="M113 375q0 159 101.5 263t317.5 204q-45 73 -68 148t-23.5 143.5t24 128.5t70 103.5t118.5 69t166 25.5q131 0 217 -66t86 -190q0 -98 -77 -177t-257 -167l287 -409l193 278h116l-249 -362l258 -367h-271l-127 180q-182 -205 -426 -205q-205 0 -330.5 109t-125.5 291z M328.5 403q14.5 -61 58.5 -124l19 -29q85 -121 251 -121q160 0 281 133l-354 502q-109 -52 -172.5 -113t-80.5 -124t-2.5 -124zM625 1200q0 -58 23 -115.5t85 -146.5q164 80 224.5 137t60.5 133q0 77 -50 120.5t-147 43.5q-93 0 -144.5 -50t-51.5 -122z" />
<glyph unicode="'" horiz-adv-x="602" d="M102 743l283 691h115l-283 -691h-115z" />
<glyph unicode="(" horiz-adv-x="739" d="M113 543q0 271 124.5 511.5t368.5 432.5l41 -47q-172 -174 -263 -409.5t-91 -487.5t91 -487.5t263 -409.5l-41 -47q-244 192 -368.5 432.5t-124.5 511.5z" />
<glyph unicode=")" horiz-adv-x="739" d="M92 -354q174 174 265.5 409t91.5 488t-91.5 488t-265.5 409l41 47q244 -192 369 -432.5t125 -511.5t-125 -511.5t-369 -432.5z" />
<glyph unicode="*" horiz-adv-x="770" d="M102 1026l207 111l-207 108l48 80l198 -125l-8 234h92l-8 -232l197 123l47 -80l-207 -108l207 -111l-47 -80l-197 123l8 -233h-92l8 235l-198 -125z" />
<glyph unicode="+" horiz-adv-x="1228" d="M102 471v84h471v469h84v-469h469v-84h-469v-471h-84v471h-471z" />
<glyph unicode="," horiz-adv-x="614" d="M117 -287q77 47 129 117.5t67 146.5q-64 -3 -103.5 40t-39.5 98q0 61 39.5 100t97.5 39t97.5 -46t39.5 -126q0 -113 -83 -236.5t-216 -179.5z" />
<glyph unicode="-" horiz-adv-x="833" d="M102 438v150h629v-150h-629z" />
<glyph unicode="." horiz-adv-x="614" d="M170 115q0 59 39.5 99t97.5 40t97.5 -40t39.5 -99q0 -57 -39.5 -97.5t-97.5 -40.5t-97.5 40.5t-39.5 97.5z" />
<glyph unicode="/" horiz-adv-x="815" d="M10 -102l705 1638h92l-707 -1638h-90z" />
<glyph unicode="0" horiz-adv-x="1562" d="M113 717q0 174 53.5 316t145 234t212 141.5t256.5 49.5q137 0 257.5 -49.5t213 -141.5t146 -234t53.5 -316q0 -139 -35 -258.5t-97 -207.5t-146 -150.5t-183.5 -94t-208.5 -31.5q-136 0 -256.5 50t-212 142.5t-145 234.5t-53.5 315zM367 549q0 -257 106.5 -368 t308.5 -111q201 0 307.5 111.5t106.5 369.5v326q0 259 -107.5 374t-306.5 115q-201 0 -308 -115t-107 -374v-328z" />
<glyph unicode="1" horiz-adv-x="907" d="M55 1227l559 217h68v-1444h-217v1284l-375 -143z" />
<glyph unicode="2" horiz-adv-x="1150" d="M119 0v63l559 697q190 236 190 377q0 105 -83 167t-240 62q-204 0 -344 -137h-27l-55 82q80 71 191.5 109t240.5 38q228 0 365 -107t137 -274q0 -102 -46.5 -204.5t-148.5 -231.5l-438 -547h670l-37 -94h-934z" />
<glyph unicode="3" horiz-adv-x="1296" d="M59 193l50 59h26q79 -92 182 -137t252 -45q172 0 266.5 81.5t94.5 223.5v100q0 150 -69 227.5t-193 77.5q-132 0 -232 -65l-49 51l475 575h-753l36 93h985v-62l-417 -506q117 -4 208.5 -38.5t148 -92.5t85.5 -132t29 -159q0 -221 -162.5 -345t-443.5 -124 q-335 0 -519 218z" />
<glyph unicode="4" horiz-adv-x="1277" d="M59 326v61l881 1057h68v-1026h213v-92h-213v-326h-217v326h-732zM211 418h580v700z" />
<glyph unicode="5" horiz-adv-x="1296" d="M59 193l50 59h26q79 -92 182 -137t252 -45q172 0 266.5 81.5t94.5 223.5v123q0 323 -344 323q-116 0 -211.5 -29t-194.5 -87l-67 49l163 680h771l34 -93h-620l-113 -464q137 36 262 36q265 0 419.5 -123.5t154.5 -345.5q0 -221 -162.5 -345t-443.5 -124q-335 0 -519 218z " />
<glyph unicode="6" horiz-adv-x="1478" d="M109 600q0 218 112.5 398.5t331 302.5t516.5 159l14 -76q-698 -129 -718 -614q191 107 460 107q111 0 210 -28t175.5 -80.5t121 -135.5t44.5 -187q0 -218 -167 -344.5t-468 -126.5q-183 0 -326.5 77t-224.5 219.5t-81 328.5zM365 432q0 -186 100 -275t276 -89 q177 0 279 76t102 237v113q0 290 -358 290q-112 0 -219.5 -34t-179.5 -82v-236z" />
<glyph unicode="7" horiz-adv-x="1153" d="M47 1341l37 93h1022v-62l-598 -1372h-242l586 1341h-805z" />
<glyph unicode="8" horiz-adv-x="1495" d="M113 408q0 309 403 387q-162 35 -237.5 115t-75.5 192q0 158 145 257t397 99t399.5 -99t147.5 -257q0 -112 -75.5 -192t-235.5 -117q401 -78 401 -385q0 -104 -50.5 -187.5t-138.5 -136.5t-202.5 -81t-245.5 -28t-245 28t-200.5 81t-136.5 136.5t-50 187.5zM367 358 q0 -141 98.5 -214.5t279.5 -73.5q183 0 283 73.5t100 214.5v99q0 143 -99.5 217t-283.5 74q-181 0 -279.5 -74t-98.5 -217v-99zM457 1057q0 -103 76 -160t212 -57q140 0 217.5 57t77.5 160v90q0 103 -78 161t-217 58q-136 0 -212 -58t-76 -161v-90z" />
<glyph unicode="9" horiz-adv-x="1478" d="M102 989q0 218 167 343.5t468 125.5q279 0 456 -172t177 -452q0 -163 -65.5 -307.5t-186.5 -258t-302.5 -190.5t-405.5 -105l-15 76q698 130 719 615q-188 -105 -461 -105q-112 0 -210 27.5t-175 79.5t-121.5 135.5t-44.5 187.5zM356 942q0 -291 359 -291q113 0 220.5 34 t178.5 83v236q0 186 -100.5 275t-276.5 89q-177 0 -279 -76.5t-102 -236.5v-113z" />
<glyph unicode=":" horiz-adv-x="614" d="M170 115q0 59 39.5 99t97.5 40t97.5 -40t39.5 -99q0 -57 -39.5 -97.5t-97.5 -40.5t-97.5 40.5t-39.5 97.5zM170 911q0 59 39.5 98.5t97.5 39.5t97.5 -39.5t39.5 -98.5t-39 -98t-98 -39t-98 39t-39 98z" />
<glyph unicode=";" horiz-adv-x="614" d="M117 -287q77 47 129 117.5t67 146.5q-64 -3 -103.5 40t-39.5 98q0 61 39.5 100t97.5 39t97.5 -46t39.5 -126q0 -113 -83 -236.5t-216 -179.5zM170 911q0 59 39.5 98.5t97.5 39.5t97.5 -39.5t39.5 -98.5t-39 -98t-98 -39t-98 39t-39 98z" />
<glyph unicode="&#x3c;" horiz-adv-x="1228" d="M102 459v108l1024 482v-91l-948 -444l948 -446v-93z" />
<glyph unicode="=" horiz-adv-x="1228" d="M102 246v84h1024v-84h-1024zM102 696v84h1024v-84h-1024z" />
<glyph unicode="&#x3e;" horiz-adv-x="1228" d="M102 -25v93l949 446l-949 444v91l1024 -482v-108z" />
<glyph unicode="?" horiz-adv-x="870" d="M25 1350q159 108 364 108q178 0 277.5 -68.5t99.5 -185.5q0 -57 -25 -107.5t-65 -89t-88.5 -75t-97.5 -73t-89 -74.5t-65 -87t-25 -104q0 -83 51 -160l-69 -24q-48 43 -77.5 107t-29.5 134q0 59 20.5 113t53 95.5t71.5 80t78.5 73t72 67.5t53 71t20.5 76q0 66 -49 101.5 t-139 35.5q-168 0 -283 -94h-21zM180 115q0 59 39.5 99t97.5 40t98 -40t40 -99q0 -57 -40 -97.5t-98 -40.5t-97.5 40.5t-39.5 97.5z" />
<glyph unicode="@" horiz-adv-x="2043" d="M102 508q0 202 70.5 378.5t192.5 302t293.5 197.5t367.5 72q194 0 364 -69.5t291 -190.5t191 -292t70 -367q0 -265 -103.5 -414.5t-261.5 -149.5q-208 0 -277 164q-57 -85 -150.5 -124.5t-195.5 -39.5q-196 0 -327 144.5t-131 392.5t131 392.5t327 144.5q107 0 200 -38 t155 -110l125 135h51v-825q0 -154 127 -154q105 0 175.5 137t70.5 345q0 238 -107.5 430.5t-298 301.5t-426.5 109q-178 0 -334.5 -66t-267 -181t-174.5 -277.5t-64 -347.5q0 -247 108.5 -446.5t301 -313t430.5 -113.5q297 0 539 183l43 -62q-122 -95 -271 -146.5 t-311 -51.5q-196 0 -367.5 72t-293.5 197.5t-192.5 302t-70.5 378.5zM713 397q0 -95 22.5 -163t62 -103.5t84 -51.5t97.5 -16q93 0 170.5 42.5t128.5 121.5v570q-51 79 -128.5 121.5t-170.5 42.5q-53 0 -97.5 -15.5t-84 -51.5t-62 -105t-22.5 -166v-226z" />
<glyph unicode="A" d="M53 0l617 1434h123l618 -1434h-231l-140 322h-741l-137 -322h-109zM340 414h661l-331 770z" />
<glyph unicode="B" horiz-adv-x="1511" d="M225 0v1434h598q242 0 364 -84.5t122 -276.5q0 -136 -62 -211t-180 -104q311 -67 311 -375q0 -383 -495 -383h-658zM438 94h445q252 0 252 234v129q0 123 -66.5 185.5t-185.5 62.5h-445v-611zM438 797h385q246 0 246 211v122q0 211 -246 211h-385v-544z" />
<glyph unicode="C" horiz-adv-x="1345" d="M113 719q0 174 53.5 315t147.5 233t220.5 141.5t274.5 49.5q151 0 277.5 -57t203.5 -158l-55 -78h-27q-149 201 -399 201q-442 0 -442 -489v-326q0 -481 442 -481q247 0 405 184h27l49 -61q-77 -103 -203.5 -160.5t-277.5 -57.5q-148 0 -275 50.5t-220.5 143.5t-147 235 t-53.5 315z" />
<glyph unicode="D" horiz-adv-x="1531" d="M225 0v1434h549q303 0 474 -193.5t171 -523.5t-171 -523.5t-474 -193.5h-549zM438 94h338q197 0 298.5 103t101.5 327v379q0 236 -100.5 337t-299.5 101h-338v-1247z" />
<glyph unicode="E" horiz-adv-x="1382" d="M225 0v1434h957l37 -93h-777v-544h588v-92h-588v-611h828l-37 -94h-1008z" />
<glyph unicode="F" horiz-adv-x="1284" d="M225 0v1434h967l37 -93h-787v-544h598v-95h-598v-702h-217z" />
<glyph unicode="G" horiz-adv-x="1585" d="M113 719q0 174 53.5 315t147.5 233t220.5 141.5t274.5 49.5q151 0 277.5 -57t203.5 -158l-55 -78h-27q-149 201 -399 201q-442 0 -442 -489v-326q0 -481 442 -481q201 0 340 118v449h-342l35 94h518v-743h-43l-123 108q-158 -121 -385 -121q-148 0 -275 50.5 t-220.5 143.5t-147 235t-53.5 315z" />
<glyph unicode="H" horiz-adv-x="1562" d="M225 0v1434h217v-637h678v637h217v-1434h-217v702h-678v-702h-217z" />
<glyph unicode="I" horiz-adv-x="663" d="M225 0v1434h213v-1434h-213z" />
<glyph unicode="J" horiz-adv-x="970" d="M53 51l33 90h27q69 -73 213 -73q98 0 153.5 58.5t55.5 180.5v1127h210v-1078q0 -185 -110.5 -283t-294.5 -98q-168 0 -287 76z" />
<glyph unicode="K" horiz-adv-x="1486" d="M225 0v1434h213v-818l783 818h133l-512 -535l614 -899h-268l-494 745l-256 -268v-477h-213z" />
<glyph unicode="L" horiz-adv-x="1263" d="M225 0v1434h213v-1340h770l-37 -94h-946z" />
<glyph unicode="M" horiz-adv-x="1980" d="M225 0v1434h238l534 -1133l533 1133h225v-1434h-211v1219l-575 -1219h-68l-573 1214v-1214h-103z" />
<glyph unicode="N" horiz-adv-x="1540" d="M225 0v1434h262l725 -1055v1055h103v-1434h-103l-884 1284v-1284h-103z" />
<glyph unicode="O" horiz-adv-x="1562" d="M113 717q0 174 53.5 316t145.5 234t212.5 141.5t257.5 49.5q136 0 256.5 -49.5t212.5 -141.5t145.5 -234t53.5 -316q0 -139 -35 -258.5t-96.5 -207.5t-145.5 -150.5t-183.5 -94t-207.5 -31.5q-136 0 -257 50t-213 142.5t-145.5 234.5t-53.5 315zM367 551 q0 -132 28.5 -226.5t84 -149.5t129.5 -80t173 -25q201 0 307.5 111.5t106.5 369.5v332q0 132 -28.5 226.5t-84.5 150t-129.5 81t-171.5 25.5q-202 0 -308.5 -112.5t-106.5 -370.5v-332z" />
<glyph unicode="P" horiz-adv-x="1490" d="M225 0v1434h658q495 0 495 -387q0 -206 -130 -308t-365 -102h-445v-637h-213zM438 731h445q252 0 252 266v86q0 138 -65 198t-187 60h-445v-610z" />
<glyph unicode="Q" horiz-adv-x="1562" d="M113 717q0 174 53.5 316t145.5 234t212.5 141.5t257.5 49.5q136 0 256.5 -49.5t212.5 -141.5t145.5 -234t53.5 -316q0 -210 -76 -368.5t-209 -254.5l176 -276h-208l-119 196q-115 -39 -232 -39q-136 0 -257 50t-213 142.5t-145.5 234.5t-53.5 315zM367 551 q0 -132 28.5 -226.5t84 -149.5t129.5 -80t173 -25q107 0 181 28l-154 254h192l101 -157q94 121 94 356v332q0 132 -28.5 226.5t-84.5 150t-129.5 81t-171.5 25.5q-202 0 -308.5 -112.5t-106.5 -370.5v-332z" />
<glyph unicode="R" horiz-adv-x="1556" d="M225 0v1434h658q495 0 495 -387q0 -167 -86.5 -265.5t-247.5 -130.5l402 -651h-248l-362 637h-398v-637h-213zM438 731h445q252 0 252 266v86q0 138 -65 198t-187 60h-445v-610z" />
<glyph unicode="S" horiz-adv-x="1349" d="M74 170l57 84h27q80 -81 208.5 -133.5t278.5 -52.5q187 0 288 66.5t101 193.5q0 66 -30.5 118t-82 87.5t-118.5 65t-141 54t-147.5 50.5t-140.5 60t-118.5 76t-82 105t-30.5 141q0 162 148.5 267.5t400.5 105.5q301 0 475 -143l-55 -86h-27q-137 137 -393 137 q-348 0 -348 -217q0 -56 30.5 -101.5t82 -77.5t118.5 -60t141 -53.5t148.5 -53.5t141.5 -65.5t118.5 -83.5t82 -112.5t30.5 -148.5q0 -195 -164 -307.5t-428 -112.5q-335 0 -571 197z" />
<glyph unicode="T" horiz-adv-x="1333" d="M53 1341l35 93h1157l35 -93h-508v-1341h-211v1341h-508z" />
<glyph unicode="U" horiz-adv-x="1525" d="M225 440v994h213v-994q0 -368 393 -368q81 0 145.5 19t117 60t80.5 114.5t28 174.5v994h98v-994q0 -465 -501 -465q-145 0 -256.5 36.5t-180 100.5t-103 147t-34.5 181z" />
<glyph unicode="V" horiz-adv-x="1462" d="M53 1434h232l508 -1182l507 1182h111l-616 -1434h-123z" />
<glyph unicode="W" horiz-adv-x="2004" d="M53 1434h228l374 -1092l379 1092h62l377 -1092l374 1092h107l-494 -1434h-94l-360 1042l-363 -1042h-96z" />
<glyph unicode="X" d="M53 0l574 711l-531 723h264l416 -568l467 568h127l-530 -652l573 -782h-264l-459 623l-510 -623h-127z" />
<glyph unicode="Y" d="M53 1434h262l488 -662l485 662h123l-573 -783v-651h-211v651z" />
<glyph unicode="Z" horiz-adv-x="1366" d="M113 0v51l819 1290h-782l34 93h1035v-41l-824 -1299h858l-34 -94h-1106z" />
<glyph unicode="[" horiz-adv-x="739" d="M225 -432v1950h402l32 -84h-264v-1782h264l-32 -84h-402z" />
<glyph unicode="\" horiz-adv-x="802" d="M4 1536h90l707 -1638h-92z" />
<glyph unicode="]" horiz-adv-x="739" d="M80 -348h264v1782h-264l33 84h401v-1950h-401z" />
<glyph unicode="^" horiz-adv-x="1228" d="M78 410l483 1024h109l481 -1024h-90l-445 948l-446 -948h-92z" />
<glyph unicode="_" horiz-adv-x="1294" d="M0 -133h1294v-84h-1294v84z" />
<glyph unicode="`" horiz-adv-x="542" d="M82 1434v20h190l189 -328h-84z" />
<glyph unicode="a" horiz-adv-x="1251" d="M102 334q0 170 117 264t309 94q206 0 320 -94v145q0 117 -61 168.5t-177 51.5q-94 0 -192.5 -35.5t-169.5 -91.5h-17l-36 82q209 131 460 131q189 0 295.5 -85t106.5 -270v-694h-209v121q-132 -146 -340 -146q-186 0 -296 96t-110 263zM313 309q0 -115 62.5 -180.5 t163.5 -65.5q95 0 179.5 45t129.5 115v285q-45 43 -119 71.5t-156 28.5q-122 0 -191 -61t-69 -187v-51z" />
<glyph unicode="b" horiz-adv-x="1286" d="M195 -12v1446h208v-519q56 65 141 99.5t181 34.5q196 0 327.5 -144.5t131.5 -392.5q0 -125 -36 -227.5t-98.5 -169.5t-145.5 -103.5t-179 -36.5q-106 0 -198.5 37.5t-155.5 110.5l-123 -135h-53zM403 227q51 -79 128 -121.5t169 -42.5q53 0 98 15.5t85 51.5t63 105.5 t23 167.5v224q0 95 -23 164t-63 104.5t-85 51.5t-98 16q-92 0 -169 -43t-128 -123v-570z" />
<glyph unicode="c" horiz-adv-x="1089" d="M102 512q0 254 145.5 395.5t391.5 141.5q232 0 389 -154l-51 -82h-23q-55 70 -140 110t-175 40q-152 0 -236 -90t-84 -257v-206q0 -167 84 -257t236 -90q93 0 181.5 36t144.5 98h22l41 -66q-156 -156 -389 -156q-245 0 -391 142t-146 395z" />
<glyph unicode="d" horiz-adv-x="1286" d="M102 512q0 248 131.5 392.5t327.5 144.5q97 0 182.5 -34.5t141.5 -99.5v519h207v-1434h-207v111q-56 -66 -141.5 -101t-182.5 -35q-196 0 -327.5 144.5t-131.5 392.5zM319 397q0 -95 22.5 -163.5t62.5 -104t84.5 -51t97.5 -15.5q93 0 170.5 42.5t128.5 121.5v570 q-51 80 -129 123t-170 43q-53 0 -97.5 -16t-84.5 -52t-62.5 -105.5t-22.5 -166.5v-226z" />
<glyph unicode="e" horiz-adv-x="1253" d="M102 512q0 168 69.5 291t188 184.5t271.5 61.5q232 0 376 -140.5t144 -386.5v-24h-832v-95q0 -168 90.5 -254t268.5 -86q104 0 204.5 40t161.5 108h23l49 -64q-184 -172 -448 -172q-262 0 -414 141.5t-152 395.5zM319 586h621v24q0 176 -83.5 264.5t-223.5 88.5 q-142 0 -228 -88.5t-86 -264.5v-24z" />
<glyph unicode="f" horiz-adv-x="827" d="M51 938v86h178v145q0 139 82 214t246 75q132 0 246 -57l-27 -80h-18q-69 51 -160 51q-89 0 -125.5 -34t-36.5 -130v-184h340v-86h-340v-938h-207v938h-178z" />
<glyph unicode="g" horiz-adv-x="1245" d="M102 -111q0 92 76 172q-55 49 -55 140q0 118 145 225q-139 89 -139 272q0 172 119 261.5t313 89.5q186 0 301 -84l314 84h16v-158h-258q53 -82 53 -193q0 -170 -117.5 -258t-308.5 -88q-132 0 -223 39q-31 -20 -49.5 -49t-18.5 -57q0 -49 34 -77t120 -28h463 q133 0 219 -58.5t86 -172.5q0 -112 -73.5 -185.5t-197 -105t-296.5 -31.5q-274 0 -398.5 65.5t-124.5 196.5zM205 -96q0 -93 100 -142t322 -49q401 0 401 172q0 55 -47.5 80t-159.5 25h-393q-111 0 -184 28q-39 -48 -39 -114zM336 645q0 -102 52.5 -153.5t172.5 -51.5 q117 0 168 51.5t51 153.5v105q0 102 -51.5 157.5t-167.5 55.5q-225 0 -225 -213v-105z" />
<glyph unicode="h" horiz-adv-x="1314" d="M195 0v1434h208v-568q80 75 186.5 129t225.5 54q150 0 227.5 -73.5t77.5 -215.5v-760h-209v760q0 180 -157 180q-80 0 -178 -48t-173 -120v-772h-208z" />
<glyph unicode="i" horiz-adv-x="598" d="M176 1296q0 54 35 89.5t88 35.5q54 0 89.5 -35.5t35.5 -89.5q0 -52 -35.5 -86t-89.5 -34q-53 0 -88 34t-35 86zM195 0v1024h208v-1024h-208z" />
<glyph unicode="j" horiz-adv-x="598" d="M10 -369l10 86q25 -4 52 -4q67 0 95 31.5t28 126.5v1153h208v-1108q0 -144 -83 -216.5t-242 -72.5q-28 0 -68 4zM176 1296q0 54 35 89.5t88 35.5q54 0 89.5 -35.5t35.5 -89.5q0 -52 -35.5 -86t-89.5 -34q-53 0 -88 34t-35 86z" />
<glyph unicode="k" horiz-adv-x="1273" d="M195 0v1434h208v-1014l601 604h133l-371 -365l465 -659h-260l-350 516l-218 -217v-299h-208z" />
<glyph unicode="l" horiz-adv-x="598" d="M195 0v1434h208v-1434h-208z" />
<glyph unicode="m" horiz-adv-x="1990" d="M195 0v1024h208v-156q195 181 400 181q231 0 284 -183q79 73 188 128t224 55q144 0 220.5 -76t76.5 -219v-754h-209v760q0 180 -151 180q-74 0 -168.5 -47t-167.5 -117v-16v-760h-209v760q0 180 -152 180q-76 0 -169.5 -47.5t-166.5 -118.5v-774h-208z" />
<glyph unicode="n" horiz-adv-x="1314" d="M195 0v1024h208v-158q80 75 186.5 129t225.5 54q150 0 227.5 -73.5t77.5 -215.5v-760h-209v760q0 180 -157 180q-80 0 -178 -48t-173 -120v-772h-208z" />
<glyph unicode="o" horiz-adv-x="1259" d="M102 512q0 252 147 394.5t382 142.5t380.5 -142.5t145.5 -394.5t-145.5 -394.5t-380.5 -142.5t-382 142.5t-147 394.5zM319 403q0 -173 84.5 -256.5t227.5 -83.5t227 84.5t84 258.5v215q0 175 -84 258.5t-227 83.5t-227.5 -83.5t-84.5 -258.5v-218z" />
<glyph unicode="p" horiz-adv-x="1286" d="M195 -348v1372h208v-109q56 65 141 99.5t181 34.5q196 0 327.5 -144.5t131.5 -392.5q0 -125 -36 -227.5t-98.5 -169.5t-145.5 -103.5t-179 -36.5t-181 35t-141 101v-459h-208zM403 227q51 -79 128 -121.5t169 -42.5q269 0 269 340v224q0 95 -23 164t-63 104.5t-85 51.5 t-98 16q-92 0 -169 -43t-128 -123v-570z" />
<glyph unicode="q" horiz-adv-x="1286" d="M102 512q0 248 131.5 392.5t327.5 144.5q106 0 199 -38t155 -110l125 135h52v-1384h-207v459q-56 -66 -141.5 -101t-182.5 -35q-196 0 -327.5 144.5t-131.5 392.5zM319 397q0 -95 22.5 -163.5t62.5 -104t84.5 -51t97.5 -15.5q93 0 170.5 42.5t128.5 121.5v570 q-51 80 -129 123t-170 43q-53 0 -97.5 -16t-84.5 -52t-62.5 -105.5t-22.5 -166.5v-226z" />
<glyph unicode="r" horiz-adv-x="903" d="M195 0v1024h208v-188q58 85 159 149t220 64q42 0 72 -9v-149l-18 -6q-51 28 -134 28q-88 0 -172 -51.5t-127 -130.5v-731h-208z" />
<glyph unicode="s" horiz-adv-x="1071" d="M84 117l43 80h23q159 -134 372 -134q118 0 182 45.5t64 124.5q0 48 -27.5 85t-72.5 59t-102.5 43t-117 37.5t-117 43t-102.5 58t-72.5 84.5t-27.5 121q0 128 114 206.5t296 78.5q209 0 360 -109l-37 -78h-22q-53 46 -131.5 73.5t-169.5 27.5q-111 0 -173.5 -39 t-62.5 -103q0 -49 36.5 -85t95.5 -59t130 -44.5t142 -47.5t130 -60.5t95.5 -92t36.5 -133.5q0 -106 -62.5 -181t-160.5 -109t-220 -34q-259 0 -442 142z" />
<glyph unicode="t" horiz-adv-x="827" d="M51 938v49q115 50 196 128.5t136 195.5h53v-287h340v-86h-340v-715q0 -93 37 -126.5t125 -33.5q91 0 160 48h18l27 -78q-116 -58 -246 -58q-164 0 -246 75t-82 216v672h-178z" />
<glyph unicode="u" horiz-adv-x="1314" d="M195 266v758h208v-760q0 -178 158 -178q80 0 177 48t173 120v770h209v-1024h-209v158q-81 -75 -186.5 -129t-224.5 -54q-149 0 -227 74.5t-78 216.5z" />
<glyph unicode="v" horiz-adv-x="1058" d="M25 1024h225l342 -770l342 770h100l-450 -1024h-105z" />
<glyph unicode="w" horiz-adv-x="1562" d="M25 1024h221l270 -745l275 745h100l270 -743l273 743h104l-375 -1024h-119l-264 715l-264 -715h-117z" />
<glyph unicode="x" horiz-adv-x="1062" d="M25 0l411 489l-397 535h237l295 -397l336 397h117l-397 -471l411 -553h-237l-309 416l-351 -416h-116z" />
<glyph unicode="y" horiz-adv-x="1058" d="M25 1024h225l344 -774l340 774h100l-483 -1098q-66 -151 -147 -225t-218 -74l-32 86l14 15q112 0 181.5 57.5t123.5 187.5l10 25z" />
<glyph unicode="z" horiz-adv-x="978" d="M51 0v57l565 881h-565l35 86h791v-57l-564 -879h617l-33 -88h-846z" />
<glyph unicode="{" horiz-adv-x="739" d="M113 504v80q126 0 174.5 39.5t48.5 119.5q0 53 -22 124.5t-48.5 131.5t-48.5 136t-22 137q0 109 91.5 177.5t264.5 68.5h78l30 -84h-106q-79 0 -125.5 -36.5t-46.5 -115.5q0 -99 37 -260t37 -264q0 -82 -42 -139.5t-122 -75.5q80 -18 122 -75.5t42 -139.5 q0 -103 -37 -264.5t-37 -260.5q0 -151 172 -151h106l-30 -84h-78q-173 0 -264.5 68.5t-91.5 177.5q0 61 22 137.5t48.5 137t48.5 131.5t22 122q0 80 -48.5 121t-174.5 41z" />
<glyph unicode="|" horiz-adv-x="534" d="M225 -102v1638h84v-1638h-84z" />
<glyph unicode="}" horiz-adv-x="739" d="M80 -348h108q172 0 172 151q0 99 -37.5 260.5t-37.5 264.5q0 81 43 139t121 76q-78 18 -121 76t-43 139q0 103 37.5 264t37.5 260q0 79 -46.5 115.5t-125.5 36.5h-108l33 84h77q173 0 264 -68.5t91 -177.5q0 -61 -22 -137t-49 -136t-49 -131.5t-22 -124.5 q0 -79 49.5 -119t174.5 -40v-80q-125 0 -174.5 -41t-49.5 -121q0 -51 22 -122t49 -131.5t49 -137t22 -137.5q0 -109 -91 -177.5t-264 -68.5h-77z" />
<glyph unicode="~" horiz-adv-x="1228" d="M102 381q0 120 82 201.5t201 81.5q60 0 113.5 -22.5t92.5 -55t76 -65t81 -55t92 -22.5q86 0 143 57t57 142h86q0 -120 -81.5 -201.5t-200.5 -81.5q-60 0 -113.5 23t-92.5 55.5t-76 65t-81 55.5t-92 23q-85 0 -142 -57.5t-57 -143.5h-88z" />
<glyph unicode="&#xa1;" horiz-adv-x="614" d="M170 971q0 59 39.5 98t99.5 39q58 0 96.5 -39t38.5 -98t-38.5 -98t-96.5 -39q-60 0 -99.5 39t-39.5 98zM172 -348l88 1012h94l90 -1012h-272z" />
<glyph unicode="&#xa2;" horiz-adv-x="1099" d="M113 717q0 235 125.5 374t341.5 158v185h102v-181q209 -9 356 -153l-51 -82h-22q-55 70 -140.5 109.5t-175.5 39.5q-152 0 -235.5 -89.5t-83.5 -256.5v-207q0 -167 83.5 -256.5t235.5 -89.5q94 0 182 35.5t144 97.5h22l41 -65q-147 -147 -356 -156v-180h-102v184 q-216 19 -341.5 159t-125.5 374z" />
<glyph unicode="&#xa3;" horiz-adv-x="1245" d="M98 133q0 62 54 110t145 48q63 0 158 -31v25q0 81 -35 207h-311v92h284q-2 8 -16.5 53t-18 57t-15.5 52.5t-16 58.5l-12 54t-11 59.5t-6 54.5t-3 59q0 202 125 314t344 112q115 0 203.5 -24.5t173.5 -85.5l-56 -84h-22q-123 106 -279 106q-231 0 -231 -250v-536h541v-92 h-541v-207q0 -38 -2 -56q165 -53 309 -53q166 0 242 55l20 -10q-12 -105 -75.5 -175.5t-186.5 -70.5q-36 0 -72.5 7.5t-59.5 14t-60 26.5t-48.5 26.5t-53 34.5t-46.5 31q-33 -69 -91.5 -104.5t-131.5 -35.5q-96 0 -147.5 47t-51.5 111zM201 133q0 -63 96 -63q101 0 139 96 q-79 33 -139 33q-47 0 -71.5 -17.5t-24.5 -48.5z" />
<glyph unicode="&#xa4;" horiz-adv-x="1230" d="M166 328l149 149q-86 107 -86 244q0 133 86 240l-149 149l59 57l148 -147q108 84 243 84q139 0 242 -86l148 149l59 -57l-150 -149q86 -107 86 -240q0 -136 -86 -246l150 -147l-57 -60l-150 150q-108 -84 -242 -84q-138 0 -241 86l-152 -152zM309 721q0 -129 89.5 -218 t219.5 -89q126 0 215 89t89 218q0 126 -89 214.5t-215 88.5q-130 0 -219.5 -88.5t-89.5 -214.5z" />
<glyph unicode="&#xa5;" d="M53 1434h262l488 -662l485 662h123l-537 -732h416v-81h-452v-152h452v-84h-452v-385h-211v385h-453v84h453v152h-453v81h416z" />
<glyph unicode="&#xa6;" horiz-adv-x="534" d="M225 -102v716h84v-716h-84zM225 819v717h84v-717h-84z" />
<glyph unicode="&#xa7;" horiz-adv-x="1132" d="M117 643q0 99 65 171.5t180 103.5q-87 41 -135.5 101.5t-48.5 154.5q0 128 112.5 206t287.5 78q192 0 329 -108l-37 -78h-22q-46 48 -117.5 76t-152.5 28q-106 0 -166 -39t-60 -106q0 -49 36.5 -85t95.5 -59t130 -44.5t142 -47.5t130 -60.5t95.5 -92t36.5 -133.5 q0 -111 -65 -184t-177 -109q180 -90 180 -256q0 -81 -34 -144.5t-92.5 -102t-133.5 -58t-161 -19.5q-228 0 -392 141l43 80h23q139 -139 321 -139q108 0 167 47t59 129q0 50 -27.5 88t-72.5 60.5t-102.5 44.5t-117 38.5t-117 44t-102.5 60.5t-72.5 87.5t-27.5 125.5z M291 700q0 -22 5.5 -41t18.5 -35.5t26 -29.5t37 -26t41.5 -22t49.5 -20.5t51.5 -18t56.5 -18.5t56 -18q90 13 137 57.5t47 114.5q0 36 -15.5 65.5t-39 49.5t-61.5 37.5t-74 30t-84 27.5q-11 3 -17 5q-109 -1 -172 -46.5t-63 -111.5z" />
<glyph unicode="&#xa8;" horiz-adv-x="790" d="M82 1296q0 54 35 89.5t88 35.5q54 0 89.5 -35.5t35.5 -89.5q0 -52 -35.5 -86t-89.5 -34q-53 0 -88 34t-35 86zM461 1296q0 54 35 89.5t88 35.5q54 0 89.5 -35.5t35.5 -89.5q0 -52 -35.5 -86t-89.5 -34q-53 0 -88 34t-35 86z" />
<glyph unicode="&#xa9;" horiz-adv-x="1708" d="M113 717q0 151 58.5 288.5t157.5 236.5t236.5 157.5t288.5 58.5t288.5 -58.5t236.5 -157.5t157.5 -236.5t58.5 -288.5q0 -202 -99 -372.5t-269.5 -270t-372.5 -99.5t-372.5 99.5t-269.5 270t-99 372.5zM190 717q0 -181 89 -333.5t241.5 -241.5t333.5 -89t333.5 89 t241.5 241.5t89 333.5q0 180 -89 333t-241.5 241.5t-333.5 88.5t-333.5 -88.5t-241.5 -241.5t-89 -333zM367 715q0 136 67 252t182.5 184t251.5 68q99 0 191.5 -38t163.5 -110l-56 -55q-60 62 -137.5 93.5t-159.5 31.5q-175 0 -300.5 -124.5t-125.5 -297.5q0 -115 57 -213 t155 -155.5t212 -57.5q177 0 299 125l56 -56q-70 -72 -162.5 -109.5t-190.5 -37.5q-135 0 -251 67t-184 182.5t-68 250.5z" />
<glyph unicode="&#xaa;" horiz-adv-x="765" d="M53 1022q0 99 71.5 155t184.5 56q119 0 191 -53v82q0 118 -133 118q-56 0 -115.5 -20t-101.5 -53h-13l-26 63q123 78 286 78q134 0 200.5 -53t66.5 -166v-410h-164v66q-77 -80 -201 -80q-111 0 -178.5 57.5t-67.5 159.5zM88 635v84h576v-84h-576zM217 1006 q0 -62 33.5 -97t87.5 -35q48 0 91.5 23t70.5 59v162q-60 49 -144 49q-64 0 -101.5 -33t-37.5 -98v-30z" />
<glyph unicode="&#xab;" horiz-adv-x="1249" d="M205 512l315 393h135l-315 -393l315 -393h-135zM594 512l315 393h135l-315 -393l315 -393h-135z" />
<glyph unicode="&#xac;" horiz-adv-x="1228" d="M102 696v84h973v-534h-82v450h-891z" />
<glyph unicode="&#xad;" horiz-adv-x="833" d="M102 438v150h629v-150h-629z" />
<glyph unicode="&#xae;" horiz-adv-x="966" d="M113 1087q0 154 108 262.5t262 108.5t262.5 -108.5t108.5 -262.5t-108.5 -262t-262.5 -108t-262 108t-108 262zM170 1087q0 -129 92 -221t221 -92q130 0 223 92t93 221q0 131 -92.5 223.5t-223.5 92.5q-129 0 -221 -93t-92 -223zM350 879v415h142q139 0 139 -123 q0 -97 -78 -120l90 -172h-61l-84 163h-6h-89v-163h-53zM403 1090h89q40 0 60.5 16t20.5 55v17q0 39 -20.5 54t-60.5 15h-89v-157z" />
<glyph unicode="&#xaf;" horiz-adv-x="778" d="M82 1235v125h614v-125h-614z" />
<glyph unicode="&#xb0;" horiz-adv-x="868" d="M113 1139q0 132 94 225.5t229 93.5q132 0 226 -93.5t94 -225.5q0 -133 -94 -227.5t-226 -94.5q-135 0 -229 94t-94 228zM207 1141q0 -98 66 -165t163 -67q94 0 160 67t66 165q0 94 -66 159.5t-160 65.5q-96 0 -162.5 -65.5t-66.5 -159.5z" />
<glyph unicode="&#xb1;" horiz-adv-x="1228" d="M102 0v84h1024v-84h-1024zM102 594v84h471v346h84v-346h469v-84h-469v-348h-84v348h-471z" />
<glyph unicode="&#xb2;" horiz-adv-x="765" d="M66 872v50l364 424q57 66 84 113t27 87q0 59 -49.5 94t-141.5 35q-137 0 -227 -84h-19l-38 66q115 90 292 90q157 0 250.5 -68.5t93.5 -177.5q0 -117 -118 -252l-265 -303h414l-31 -74h-636z" />
<glyph unicode="&#xb3;" horiz-adv-x="856" d="M33 987l43 49h18q101 -104 275 -104q105 0 161 44.5t56 123.5v71q0 80 -41.5 122t-114.5 42q-81 0 -145 -39l-45 43l286 320h-458l30 74h656v-50l-256 -284q142 -7 217.5 -76t75.5 -172q0 -137 -109.5 -215t-296.5 -78q-229 0 -352 129z" />
<glyph unicode="&#xb4;" horiz-adv-x="542" d="M82 1126l190 328h189v-20l-295 -308h-84z" />
<glyph unicode="&#xb5;" horiz-adv-x="1372" d="M195 -348v1372h208v-760q0 -178 158 -178q80 0 177 48t173 120v12v758h209v-801q0 -96 36.5 -131t123.5 -35q26 0 41 6v-71q-34 -17 -86 -17q-261 0 -311 195q-205 -195 -424 -195q-44 0 -97 11v-334h-208z" />
<glyph unicode="&#xb6;" horiz-adv-x="1697" d="M113 1047q0 387 495 387h865v-1782h-97v1689h-225v-1689h-98v985h-445q-235 0 -365 102t-130 308zM356 997q0 -266 252 -266h445v610h-445q-122 0 -187 -60t-65 -198v-86z" />
<glyph unicode="&#xb7;" horiz-adv-x="614" d="M170 512q0 59 39.5 99t97.5 40t97.5 -40t39.5 -99q0 -57 -39.5 -97t-97.5 -40t-97.5 40t-39.5 97z" />
<glyph unicode="&#xb8;" horiz-adv-x="698" d="M82 -332l24 76q119 -41 205 -41q78 0 113 16t35 54q0 29 -21 44t-53 15q-50 0 -84 -37l-59 29l55 176h109l-37 -111q38 15 90 15q65 0 111 -30t46 -91q0 -43 -25 -74.5t-68.5 -48.5t-95.5 -25t-114 -8q-122 0 -231 41z" />
<glyph unicode="&#xb9;" horiz-adv-x="614" d="M33 1599l385 140h63v-867h-182v746l-238 -86z" />
<glyph unicode="&#xba;" horiz-adv-x="772" d="M53 1126q0 151 91.5 236.5t242.5 85.5q149 0 240.5 -85.5t91.5 -236.5t-91.5 -236t-240.5 -85q-150 0 -242 85.5t-92 235.5zM98 635v84h576v-84h-576zM223 1049q0 -90 44 -134.5t120 -44.5q74 0 118 45t44 134v157q0 89 -44 132.5t-118 43.5q-75 0 -119.5 -43t-44.5 -133 v-157z" />
<glyph unicode="&#xbb;" horiz-adv-x="1249" d="M205 119l315 393l-315 393h135l315 -393l-315 -393h-135zM594 119l315 393l-315 393h135l315 -393l-315 -393h-135z" />
<glyph unicode="&#xbc;" horiz-adv-x="1644" d="M33 1300l385 140h63v-867h-182v746l-238 -86zM246 0l1091 1434h115l-1090 -1434h-116zM840 186v56l569 624h74v-606h129v-74h-129v-186h-183v186h-460zM965 260h335v373z" />
<glyph unicode="&#xbd;" horiz-adv-x="1828" d="M33 1300l385 140h63v-867h-182v746l-238 -86zM246 0l1091 1434h115l-1090 -1434h-116zM1128 0v49l365 424q111 129 111 201q0 59 -49.5 94t-141.5 35q-137 0 -227 -84h-19l-39 65q115 90 293 90q158 0 251 -68t93 -177q0 -118 -118 -252l-265 -303h414l-31 -74h-637z" />
<glyph unicode="&#xbe;" horiz-adv-x="1824" d="M33 688l43 49h18q101 -104 275 -104q105 0 161 44.5t56 123.5v71q0 80 -41.5 122t-114.5 42q-81 0 -145 -39l-45 43l286 320h-458l30 74h656v-50l-256 -284q142 -7 217.5 -76t75.5 -172q0 -137 -109.5 -215t-296.5 -78q-229 0 -352 129zM426 0l1092 1434h114l-1089 -1434 h-117zM1020 186v56l569 624h74v-606h129v-74h-129v-186h-182v186h-461zM1145 260h336v373z" />
<glyph unicode="&#xbf;" horiz-adv-x="870" d="M104 -119q0 57 25 108t65 90t88.5 76t97.5 73.5t89 74.5t65 87t25 104q0 83 -51 157l70 25q48 -43 77 -106.5t29 -133.5q0 -59 -20.5 -113.5t-53 -96t-71.5 -80t-78.5 -73t-72 -67.5t-53 -71t-20.5 -76q0 -66 49.5 -102t139.5 -36q165 0 282 95h21l39 -80 q-160 -109 -365 -109q-178 0 -277.5 68.5t-99.5 185.5zM416 971q0 59 39 98t98 39t98 -39t39 -98t-39 -98t-98 -39t-98 39t-39 98z" />
<glyph unicode="&#xc0;" d="M53 0l617 1434h123l618 -1434h-231l-140 322h-741l-137 -322h-109zM340 414h661l-331 770zM395 1843v21h191l188 -328h-84z" />
<glyph unicode="&#xc1;" d="M53 0l617 1434h123l618 -1434h-231l-140 322h-741l-137 -322h-109zM340 414h661l-331 770zM692 1536l191 328h188v-21l-295 -307h-84z" />
<glyph unicode="&#xc2;" d="M53 0l617 1434h123l618 -1434h-231l-140 322h-741l-137 -322h-109zM340 414h661l-331 770zM426 1536l190 328h236l188 -328h-84l-223 250l-223 -250h-84z" />
<glyph unicode="&#xc3;" d="M53 0l617 1434h123l618 -1434h-231l-140 322h-741l-137 -322h-109zM340 414h661l-331 770zM422 1536q0 147 49.5 242.5t140.5 95.5q40 0 75 -22.5t60.5 -55t48.5 -64.5t47.5 -54.5t47.5 -22.5q82 0 82 209h71q0 -149 -48.5 -243.5t-139.5 -94.5q-40 0 -75.5 21.5t-61 53 t-48.5 62.5t-47.5 52.5t-48.5 21.5q-81 0 -81 -201h-72z" />
<glyph unicode="&#xc4;" d="M53 0l617 1434h123l618 -1434h-231l-140 322h-741l-137 -322h-109zM340 414h661l-331 770zM420 1706q0 54 35 89.5t88 35.5q54 0 89.5 -35.5t35.5 -89.5q0 -52 -35.5 -86.5t-89.5 -34.5q-53 0 -88 34.5t-35 86.5zM799 1706q0 54 35 89.5t88 35.5q54 0 89.5 -35.5 t35.5 -89.5q0 -52 -35.5 -86.5t-89.5 -34.5q-53 0 -88 34.5t-35 86.5z" />
<glyph unicode="&#xc5;" d="M53 0l617 1434h123l618 -1434h-231l-140 322h-741l-137 -322h-109zM340 414h661l-331 770zM567 1710q0 68 49.5 117t116.5 49t115.5 -49t48.5 -117t-48.5 -116t-115.5 -48q-68 0 -117 48.5t-49 115.5zM631 1710q0 -43 29.5 -72.5t72.5 -29.5t73 29.5t30 72.5t-30 72.5 t-73 29.5t-72.5 -29.5t-29.5 -72.5z" />
<glyph unicode="&#xc6;" horiz-adv-x="2297" d="M-10 0l1239 1434h870l35 -93h-774v-544h588v-92h-588v-611h825l-35 -94h-1007v322h-742l-276 -322h-135zM481 414h662v768z" />
<glyph unicode="&#xc7;" horiz-adv-x="1345" d="M113 719q0 174 53.5 315t147.5 233t220.5 141.5t274.5 49.5q151 0 277.5 -57t203.5 -158l-55 -78h-27q-149 201 -399 201q-442 0 -442 -489v-326q0 -481 442 -481q247 0 405 184h27l49 -61q-72 -97 -190.5 -154.5t-257.5 -63.5l-29 -86q38 15 90 15q65 0 111.5 -30 t46.5 -91q0 -43 -25 -74.5t-68.5 -48.5t-95.5 -25t-114 -8q-123 0 -232 41l25 76q119 -41 205 -41q78 0 112.5 16t34.5 54q0 29 -21 44t-53 15q-50 0 -84 -37l-59 29l49 156q-134 12 -247.5 67t-197 147.5t-130.5 227.5t-47 297z" />
<glyph unicode="&#xc8;" horiz-adv-x="1382" d="M225 0v1434h957l37 -93h-777v-544h588v-92h-588v-611h828l-37 -94h-1008zM385 1843v21h190l189 -328h-84z" />
<glyph unicode="&#xc9;" horiz-adv-x="1382" d="M225 0v1434h957l37 -93h-777v-544h588v-92h-588v-611h828l-37 -94h-1008zM682 1536l190 328h189v-21l-295 -307h-84z" />
<glyph unicode="&#xca;" horiz-adv-x="1382" d="M225 0v1434h957l37 -93h-777v-544h588v-92h-588v-611h828l-37 -94h-1008zM416 1536l190 328h236l188 -328h-84l-223 250l-223 -250h-84z" />
<glyph unicode="&#xcb;" horiz-adv-x="1382" d="M225 0v1434h957l37 -93h-777v-544h588v-92h-588v-611h828l-37 -94h-1008zM410 1706q0 54 34.5 89.5t87.5 35.5q54 0 89.5 -35.5t35.5 -89.5q0 -52 -35.5 -86.5t-89.5 -34.5q-53 0 -87.5 34.5t-34.5 86.5zM788 1706q0 54 35 89.5t88 35.5q54 0 89.5 -35.5t35.5 -89.5 q0 -52 -35.5 -86.5t-89.5 -34.5q-53 0 -88 34.5t-35 86.5z" />
<glyph unicode="&#xcc;" horiz-adv-x="663" d="M-6 1843v21h190l189 -328h-84zM225 0v1434h213v-1434h-213z" />
<glyph unicode="&#xcd;" horiz-adv-x="663" d="M225 0v1434h213v-1434h-213zM291 1536l190 328h189v-21l-295 -307h-84z" />
<glyph unicode="&#xce;" horiz-adv-x="663" d="M25 1536l190 328h236l188 -328h-84l-223 250l-223 -250h-84zM225 0v1434h213v-1434h-213z" />
<glyph unicode="&#xcf;" horiz-adv-x="663" d="M18 1706q0 54 35 89.5t88 35.5q54 0 89.5 -35.5t35.5 -89.5q0 -52 -35.5 -86.5t-89.5 -34.5q-53 0 -88 34.5t-35 86.5zM225 0v1434h213v-1434h-213zM397 1706q0 54 35 89.5t88 35.5q54 0 89.5 -35.5t35.5 -89.5q0 -52 -35.5 -86.5t-89.5 -34.5q-53 0 -88 34.5t-35 86.5z " />
<glyph unicode="&#xd0;" horiz-adv-x="1531" d="M55 698v93h170v643h549q303 0 474 -193.5t171 -523.5t-171 -523.5t-474 -193.5h-549v698h-170zM438 94h338q197 0 298.5 103t101.5 327v379q0 236 -100.5 337t-299.5 101h-338v-550h273v-93h-273v-604z" />
<glyph unicode="&#xd1;" horiz-adv-x="1540" d="M225 0v1434h262l725 -1055v1055h103v-1434h-103l-884 1284v-1284h-103zM461 1536q0 147 49.5 242.5t140.5 95.5q40 0 75 -22.5t60.5 -55t48.5 -64.5t47.5 -54.5t47.5 -22.5q82 0 82 209h71q0 -149 -48.5 -243.5t-139.5 -94.5q-40 0 -75.5 21.5t-61 53t-48.5 62.5 t-47.5 52.5t-48.5 21.5q-82 0 -82 -201h-71z" />
<glyph unicode="&#xd2;" horiz-adv-x="1562" d="M113 717q0 174 53.5 316t145.5 234t212.5 141.5t257.5 49.5q136 0 256.5 -49.5t212.5 -141.5t145.5 -234t53.5 -316q0 -139 -35 -258.5t-96.5 -207.5t-145.5 -150.5t-183.5 -94t-207.5 -31.5q-136 0 -257 50t-213 142.5t-145.5 234.5t-53.5 315zM367 551 q0 -132 28.5 -226.5t84 -149.5t129.5 -80t173 -25q201 0 307.5 111.5t106.5 369.5v332q0 132 -28.5 226.5t-84.5 150t-129.5 81t-171.5 25.5q-202 0 -308.5 -112.5t-106.5 -370.5v-332zM444 1843v21h191l188 -328h-84z" />
<glyph unicode="&#xd3;" horiz-adv-x="1562" d="M113 717q0 174 53.5 316t145.5 234t212.5 141.5t257.5 49.5q136 0 256.5 -49.5t212.5 -141.5t145.5 -234t53.5 -316q0 -139 -35 -258.5t-96.5 -207.5t-145.5 -150.5t-183.5 -94t-207.5 -31.5q-136 0 -257 50t-213 142.5t-145.5 234.5t-53.5 315zM367 551 q0 -132 28.5 -226.5t84 -149.5t129.5 -80t173 -25q201 0 307.5 111.5t106.5 369.5v332q0 132 -28.5 226.5t-84.5 150t-129.5 81t-171.5 25.5q-202 0 -308.5 -112.5t-106.5 -370.5v-332zM741 1536l191 328h188v-21l-295 -307h-84z" />
<glyph unicode="&#xd4;" horiz-adv-x="1562" d="M113 717q0 174 53.5 316t145.5 234t212.5 141.5t257.5 49.5q136 0 256.5 -49.5t212.5 -141.5t145.5 -234t53.5 -316q0 -139 -35 -258.5t-96.5 -207.5t-145.5 -150.5t-183.5 -94t-207.5 -31.5q-136 0 -257 50t-213 142.5t-145.5 234.5t-53.5 315zM367 551 q0 -132 28.5 -226.5t84 -149.5t129.5 -80t173 -25q201 0 307.5 111.5t106.5 369.5v332q0 132 -28.5 226.5t-84.5 150t-129.5 81t-171.5 25.5q-202 0 -308.5 -112.5t-106.5 -370.5v-332zM475 1536l191 328h235l189 -328h-84l-224 250l-223 -250h-84z" />
<glyph unicode="&#xd5;" horiz-adv-x="1562" d="M113 717q0 174 53.5 316t145.5 234t212.5 141.5t257.5 49.5q136 0 256.5 -49.5t212.5 -141.5t145.5 -234t53.5 -316q0 -139 -35 -258.5t-96.5 -207.5t-145.5 -150.5t-183.5 -94t-207.5 -31.5q-136 0 -257 50t-213 142.5t-145.5 234.5t-53.5 315zM367 551 q0 -132 28.5 -226.5t84 -149.5t129.5 -80t173 -25q201 0 307.5 111.5t106.5 369.5v332q0 132 -28.5 226.5t-84.5 150t-129.5 81t-171.5 25.5q-202 0 -308.5 -112.5t-106.5 -370.5v-332zM471 1536q0 147 50 242.5t141 95.5q40 0 75 -22.5t60.5 -55t48 -64.5t47 -54.5 t47.5 -22.5q82 0 82 209h72q0 -148 -49 -243t-140 -95q-40 0 -75.5 21.5t-61 53t-48 62.5t-47 52.5t-48.5 21.5q-82 0 -82 -201h-72z" />
<glyph unicode="&#xd6;" horiz-adv-x="1562" d="M113 717q0 174 53.5 316t145.5 234t212.5 141.5t257.5 49.5q136 0 256.5 -49.5t212.5 -141.5t145.5 -234t53.5 -316q0 -139 -35 -258.5t-96.5 -207.5t-145.5 -150.5t-183.5 -94t-207.5 -31.5q-136 0 -257 50t-213 142.5t-145.5 234.5t-53.5 315zM367 551 q0 -132 28.5 -226.5t84 -149.5t129.5 -80t173 -25q201 0 307.5 111.5t106.5 369.5v332q0 132 -28.5 226.5t-84.5 150t-129.5 81t-171.5 25.5q-202 0 -308.5 -112.5t-106.5 -370.5v-332zM469 1706q0 54 35 89.5t88 35.5q54 0 89.5 -35.5t35.5 -89.5q0 -52 -35.5 -86.5 t-89.5 -34.5q-53 0 -88 34.5t-35 86.5zM848 1706q0 54 35 89.5t88 35.5q54 0 89.5 -35.5t35.5 -89.5q0 -52 -35.5 -86.5t-89.5 -34.5q-53 0 -88 34.5t-35 86.5z" />
<glyph unicode="&#xd7;" horiz-adv-x="1228" d="M166 123l391 391l-391 391l57 58l391 -392l392 392l59 -58l-391 -391l389 -391l-57 -60l-392 392l-391 -392z" />
<glyph unicode="&#xd8;" horiz-adv-x="1562" d="M113 717q0 174 53.5 316t145.5 234t212.5 141.5t257.5 49.5q233 0 404 -133l82 107h118l-129 -170q193 -206 193 -545q0 -139 -35 -258.5t-96.5 -207.5t-145.5 -150.5t-183.5 -94t-207.5 -31.5q-231 0 -403 134l-84 -111h-117l131 172q-196 206 -196 547zM367 551 q0 -151 39 -254l706 930q-100 139 -330 139q-202 0 -308.5 -112.5t-106.5 -370.5v-332zM453 207q103 -137 329 -137q201 0 307.5 111.5t106.5 369.5v332q0 152 -37 250z" />
<glyph unicode="&#xd9;" horiz-adv-x="1525" d="M225 440v994h213v-994q0 -368 393 -368q81 0 145.5 19t117 60t80.5 114.5t28 174.5v994h98v-994q0 -465 -501 -465q-145 0 -256.5 36.5t-180 100.5t-103 147t-34.5 181zM457 1843v21h190l189 -328h-84z" />
<glyph unicode="&#xda;" horiz-adv-x="1525" d="M225 440v994h213v-994q0 -368 393 -368q81 0 145.5 19t117 60t80.5 114.5t28 174.5v994h98v-994q0 -465 -501 -465q-145 0 -256.5 36.5t-180 100.5t-103 147t-34.5 181zM754 1536l190 328h189v-21l-295 -307h-84z" />
<glyph unicode="&#xdb;" horiz-adv-x="1525" d="M225 440v994h213v-994q0 -368 393 -368q81 0 145.5 19t117 60t80.5 114.5t28 174.5v994h98v-994q0 -465 -501 -465q-145 0 -256.5 36.5t-180 100.5t-103 147t-34.5 181zM487 1536l191 328h235l189 -328h-84l-223 250l-224 -250h-84z" />
<glyph unicode="&#xdc;" horiz-adv-x="1525" d="M225 440v994h213v-994q0 -368 393 -368q81 0 145.5 19t117 60t80.5 114.5t28 174.5v994h98v-994q0 -465 -501 -465q-145 0 -256.5 36.5t-180 100.5t-103 147t-34.5 181zM481 1706q0 54 35 89.5t88 35.5q54 0 89.5 -35.5t35.5 -89.5q0 -52 -35.5 -86.5t-89.5 -34.5 q-53 0 -88 34.5t-35 86.5zM860 1706q0 54 35 89.5t88 35.5q54 0 89.5 -35.5t35.5 -89.5q0 -52 -35.5 -86.5t-89.5 -34.5q-53 0 -88 34.5t-35 86.5z" />
<glyph unicode="&#xdd;" d="M53 1434h262l488 -662l485 662h123l-573 -783v-651h-211v651zM723 1536l190 328h189v-21l-295 -307h-84z" />
<glyph unicode="&#xde;" horiz-adv-x="1490" d="M225 0v1434h213v-297h445q495 0 495 -389q0 -205 -129.5 -306.5t-365.5 -101.5h-445v-340h-213zM438 432h445q120 0 186 65t66 201v88q0 136 -65 196t-187 60h-445v-610z" />
<glyph unicode="&#xdf;" horiz-adv-x="1320" d="M51 938v86h178v135q0 145 106.5 222t309.5 77q200 0 301 -68t101 -180q0 -87 -58 -143t-164 -82q188 -38 291 -159.5t103 -327.5q0 -240 -141.5 -375t-370.5 -135q-61 0 -111 12v84q31 -8 84 -8q154 0 237.5 84.5t83.5 249.5v186q0 169 -83.5 255.5t-237.5 86.5h-84v86 h63q107 0 158 44t51 138q0 81 -58.5 123.5t-166.5 42.5q-105 0 -156 -42t-51 -138v-1192h-207v938h-178z" />
<glyph unicode="&#xe0;" horiz-adv-x="1251" d="M102 334q0 170 117 264t309 94q206 0 320 -94v145q0 117 -61 168.5t-177 51.5q-94 0 -192.5 -35.5t-169.5 -91.5h-17l-36 82q209 131 460 131q189 0 295.5 -85t106.5 -270v-694h-209v121q-132 -146 -340 -146q-186 0 -296 96t-110 263zM289 1434v20h190l189 -328h-84z M313 309q0 -115 62.5 -180.5t163.5 -65.5q95 0 179.5 45t129.5 115v285q-45 43 -119 71.5t-156 28.5q-122 0 -191 -61t-69 -187v-51z" />
<glyph unicode="&#xe1;" horiz-adv-x="1251" d="M102 334q0 170 117 264t309 94q206 0 320 -94v145q0 117 -61 168.5t-177 51.5q-94 0 -192.5 -35.5t-169.5 -91.5h-17l-36 82q209 131 460 131q189 0 295.5 -85t106.5 -270v-694h-209v121q-132 -146 -340 -146q-186 0 -296 96t-110 263zM313 309q0 -115 62.5 -180.5 t163.5 -65.5q95 0 179.5 45t129.5 115v285q-45 43 -119 71.5t-156 28.5q-122 0 -191 -61t-69 -187v-51zM586 1126l190 328h189v-20l-295 -308h-84z" />
<glyph unicode="&#xe2;" horiz-adv-x="1251" d="M102 334q0 170 117 264t309 94q206 0 320 -94v145q0 117 -61 168.5t-177 51.5q-94 0 -192.5 -35.5t-169.5 -91.5h-17l-36 82q209 131 460 131q189 0 295.5 -85t106.5 -270v-694h-209v121q-132 -146 -340 -146q-186 0 -296 96t-110 263zM313 309q0 -115 62.5 -180.5 t163.5 -65.5q95 0 179.5 45t129.5 115v285q-45 43 -119 71.5t-156 28.5q-122 0 -191 -61t-69 -187v-51zM319 1126l191 328h235l189 -328h-84l-223 250l-224 -250h-84z" />
<glyph unicode="&#xe3;" horiz-adv-x="1251" d="M102 334q0 170 117 264t309 94q206 0 320 -94v145q0 117 -61 168.5t-177 51.5q-94 0 -192.5 -35.5t-169.5 -91.5h-17l-36 82q209 131 460 131q189 0 295.5 -85t106.5 -270v-694h-209v121q-132 -146 -340 -146q-186 0 -296 96t-110 263zM313 309q0 -115 62.5 -180.5 t163.5 -65.5q95 0 179.5 45t129.5 115v285q-45 43 -119 71.5t-156 28.5q-122 0 -191 -61t-69 -187v-51zM315 1126q0 147 50 242.5t141 95.5q40 0 75 -22.5t60.5 -55t48 -64.5t47 -54.5t47.5 -22.5q82 0 82 209h72q0 -149 -48.5 -243.5t-139.5 -94.5q-40 0 -75.5 21.5t-61 53 t-48.5 62.5t-47.5 52.5t-48.5 21.5q-82 0 -82 -201h-72z" />
<glyph unicode="&#xe4;" horiz-adv-x="1251" d="M102 334q0 170 117 264t309 94q206 0 320 -94v145q0 117 -61 168.5t-177 51.5q-94 0 -192.5 -35.5t-169.5 -91.5h-17l-36 82q209 131 460 131q189 0 295.5 -85t106.5 -270v-694h-209v121q-132 -146 -340 -146q-186 0 -296 96t-110 263zM313 309q0 -115 62.5 -180.5 t163.5 -65.5q95 0 179.5 45t129.5 115v285q-45 43 -119 71.5t-156 28.5q-122 0 -191 -61t-69 -187v-51zM313 1296q0 54 35 89.5t88 35.5q54 0 89.5 -35.5t35.5 -89.5q0 -52 -35.5 -86t-89.5 -34q-53 0 -88 34t-35 86zM692 1296q0 54 35 89.5t88 35.5q54 0 89.5 -35.5 t35.5 -89.5q0 -52 -35.5 -86t-89.5 -34q-53 0 -88 34t-35 86z" />
<glyph unicode="&#xe5;" horiz-adv-x="1251" d="M102 334q0 170 117 264t309 94q206 0 320 -94v145q0 117 -61 168.5t-177 51.5q-94 0 -192.5 -35.5t-169.5 -91.5h-17l-36 82q209 131 460 131q189 0 295.5 -85t106.5 -270v-694h-209v121q-132 -146 -340 -146q-186 0 -296 96t-110 263zM313 309q0 -115 62.5 -180.5 t163.5 -65.5q95 0 179.5 45t129.5 115v285q-45 43 -119 71.5t-156 28.5q-122 0 -191 -61t-69 -187v-51zM461 1300q0 68 49.5 117t116.5 49t115.5 -49t48.5 -117q0 -67 -48 -115t-116 -48t-117 48t-49 115zM524 1300q0 -43 30 -72.5t73 -29.5t72.5 29.5t29.5 72.5t-29.5 73 t-72.5 30t-73 -30t-30 -73z" />
<glyph unicode="&#xe6;" horiz-adv-x="1990" d="M102 334q0 170 117 264t309 94q206 0 320 -94v145q0 117 -61 168.5t-177 51.5q-95 0 -193.5 -35t-168.5 -92h-17l-36 82q209 131 440 131q143 0 227.5 -49.5t116.5 -159.5q122 209 410 209q218 0 358.5 -141.5t140.5 -385.5v-24h-831v-95q0 -168 90 -254t268 -86 q104 0 205 40t162 108h22l49 -64q-184 -172 -448 -172q-335 0 -473 207q-150 -207 -414 -207q-193 0 -304.5 95.5t-111.5 263.5zM313 309q0 -115 62.5 -180.5t163.5 -65.5q91 0 174 42.5t135 123.5v279q-45 43 -119 71.5t-156 28.5q-122 0 -191 -61t-69 -187v-51zM1057 586 h620v24q0 175 -83.5 264t-223.5 89q-142 0 -227.5 -89t-85.5 -264v-24z" />
<glyph unicode="&#xe7;" horiz-adv-x="1089" d="M102 512q0 254 145.5 395.5t391.5 141.5q232 0 389 -154l-51 -82h-23q-55 70 -140 110t-175 40q-152 0 -236 -90t-84 -257v-206q0 -167 84 -257t236 -90q93 0 181.5 36t144.5 98h22l41 -66q-147 -147 -356 -156l-29 -86q37 15 90 15q65 0 111.5 -30t46.5 -91 q0 -43 -25 -74.5t-68.5 -48.5t-95.5 -25t-114 -8q-123 0 -232 41l25 76q119 -41 205 -41q78 0 112.5 16t34.5 54q0 29 -21 44t-53 15q-50 0 -84 -37l-59 29l49 156q-214 21 -338.5 160t-124.5 372z" />
<glyph unicode="&#xe8;" horiz-adv-x="1253" d="M102 512q0 168 69.5 291t188 184.5t271.5 61.5q232 0 376 -140.5t144 -386.5v-24h-832v-95q0 -168 90.5 -254t268.5 -86q104 0 204.5 40t161.5 108h23l49 -64q-184 -172 -448 -172q-262 0 -414 141.5t-152 395.5zM293 1434v20h190l189 -328h-84zM319 586h621v24 q0 176 -83.5 264.5t-223.5 88.5q-142 0 -228 -88.5t-86 -264.5v-24z" />
<glyph unicode="&#xe9;" horiz-adv-x="1253" d="M102 512q0 168 69.5 291t188 184.5t271.5 61.5q232 0 376 -140.5t144 -386.5v-24h-832v-95q0 -168 90.5 -254t268.5 -86q104 0 204.5 40t161.5 108h23l49 -64q-184 -172 -448 -172q-262 0 -414 141.5t-152 395.5zM319 586h621v24q0 176 -83.5 264.5t-223.5 88.5 q-142 0 -228 -88.5t-86 -264.5v-24zM590 1126l190 328h189v-20l-295 -308h-84z" />
<glyph unicode="&#xea;" horiz-adv-x="1253" d="M102 512q0 168 69.5 291t188 184.5t271.5 61.5q232 0 376 -140.5t144 -386.5v-24h-832v-95q0 -168 90.5 -254t268.5 -86q104 0 204.5 40t161.5 108h23l49 -64q-184 -172 -448 -172q-262 0 -414 141.5t-152 395.5zM319 586h621v24q0 176 -83.5 264.5t-223.5 88.5 q-142 0 -228 -88.5t-86 -264.5v-24zM324 1126l190 328h236l188 -328h-84l-223 250l-223 -250h-84z" />
<glyph unicode="&#xeb;" horiz-adv-x="1253" d="M102 512q0 168 69.5 291t188 184.5t271.5 61.5q232 0 376 -140.5t144 -386.5v-24h-832v-95q0 -168 90.5 -254t268.5 -86q104 0 204.5 40t161.5 108h23l49 -64q-184 -172 -448 -172q-262 0 -414 141.5t-152 395.5zM317 1296q0 54 35 89.5t88 35.5q54 0 89.5 -35.5 t35.5 -89.5q0 -52 -35.5 -86t-89.5 -34q-53 0 -88 34t-35 86zM319 586h621v24q0 176 -83.5 264.5t-223.5 88.5q-142 0 -228 -88.5t-86 -264.5v-24zM696 1296q0 54 35 89.5t88 35.5q54 0 89.5 -35.5t35.5 -89.5q0 -52 -35.5 -86t-89.5 -34q-53 0 -88 34t-35 86z" />
<glyph unicode="&#xec;" horiz-adv-x="598" d="M-39 1434v20h191l188 -328h-84zM195 0v1024h208v-1024h-208z" />
<glyph unicode="&#xed;" horiz-adv-x="598" d="M195 0v1024h208v-1024h-208zM258 1126l191 328h188v-20l-295 -308h-84z" />
<glyph unicode="&#xee;" horiz-adv-x="598" d="M-8 1126l190 328h236l188 -328h-84l-223 250l-223 -250h-84zM195 0v1024h208v-1024h-208z" />
<glyph unicode="&#xef;" horiz-adv-x="598" d="M-14 1296q0 54 35 89.5t88 35.5q54 0 89 -35.5t35 -89.5q0 -52 -35 -86t-89 -34q-53 0 -88 34t-35 86zM195 0v1024h208v-1024h-208zM365 1296q0 54 34.5 89.5t87.5 35.5q54 0 89.5 -35.5t35.5 -89.5q0 -52 -35.5 -86t-89.5 -34q-53 0 -87.5 34t-34.5 86z" />
<glyph unicode="&#xf0;" horiz-adv-x="1259" d="M102 512q0 252 147 394.5t382 142.5q142 0 252 -76q-79 153 -252 258l-408 -113l-24 82l321 88q-126 59 -321 96l14 76q247 -33 455 -131l354 96l27 -79l-277 -76q188 -122 286.5 -298t98.5 -390q0 -289 -145.5 -448t-380.5 -159q-153 0 -272 62t-188 185t-69 290z M319 403q0 -172 84.5 -256t227.5 -84q141 0 226 84.5t85 258.5v215q0 175 -84 258.5t-227 83.5t-227.5 -83.5t-84.5 -258.5v-218z" />
<glyph unicode="&#xf1;" horiz-adv-x="1314" d="M195 0v1024h208v-158q80 75 186.5 129t225.5 54q150 0 227.5 -73.5t77.5 -215.5v-760h-209v760q0 180 -157 180q-80 0 -178 -48t-173 -120v-772h-208zM346 1126q0 147 50 242.5t141 95.5q40 0 75 -22.5t60.5 -55t48 -64.5t47 -54.5t47.5 -22.5q82 0 82 209h72 q0 -148 -49 -243t-140 -95q-40 0 -75.5 21.5t-61 53t-48 62.5t-47 52.5t-48.5 21.5q-82 0 -82 -201h-72z" />
<glyph unicode="&#xf2;" horiz-adv-x="1259" d="M102 512q0 252 147 394.5t382 142.5t380.5 -142.5t145.5 -394.5t-145.5 -394.5t-380.5 -142.5t-382 142.5t-147 394.5zM293 1434v20h190l189 -328h-84zM319 403q0 -173 84.5 -256.5t227.5 -83.5t227 84.5t84 258.5v215q0 175 -84 258.5t-227 83.5t-227.5 -83.5 t-84.5 -258.5v-218z" />
<glyph unicode="&#xf3;" horiz-adv-x="1259" d="M102 512q0 252 147 394.5t382 142.5t380.5 -142.5t145.5 -394.5t-145.5 -394.5t-380.5 -142.5t-382 142.5t-147 394.5zM319 403q0 -173 84.5 -256.5t227.5 -83.5t227 84.5t84 258.5v215q0 175 -84 258.5t-227 83.5t-227.5 -83.5t-84.5 -258.5v-218zM590 1126l190 328h189 v-20l-295 -308h-84z" />
<glyph unicode="&#xf4;" horiz-adv-x="1259" d="M102 512q0 252 147 394.5t382 142.5t380.5 -142.5t145.5 -394.5t-145.5 -394.5t-380.5 -142.5t-382 142.5t-147 394.5zM319 403q0 -173 84.5 -256.5t227.5 -83.5t227 84.5t84 258.5v215q0 175 -84 258.5t-227 83.5t-227.5 -83.5t-84.5 -258.5v-218zM324 1126l190 328h236 l188 -328h-84l-223 250l-223 -250h-84z" />
<glyph unicode="&#xf5;" horiz-adv-x="1259" d="M102 512q0 252 147 394.5t382 142.5t380.5 -142.5t145.5 -394.5t-145.5 -394.5t-380.5 -142.5t-382 142.5t-147 394.5zM319 403q0 -173 84.5 -256.5t227.5 -83.5t227 84.5t84 258.5v215q0 175 -84 258.5t-227 83.5t-227.5 -83.5t-84.5 -258.5v-218zM319 1126 q0 147 50 242.5t141 95.5q40 0 75 -22.5t60.5 -55t48 -64.5t47 -54.5t47.5 -22.5q82 0 82 209h72q0 -149 -48.5 -243.5t-139.5 -94.5q-40 0 -75.5 21.5t-61 53t-48.5 62.5t-47.5 52.5t-48.5 21.5q-82 0 -82 -201h-72z" />
<glyph unicode="&#xf6;" horiz-adv-x="1259" d="M102 512q0 252 147 394.5t382 142.5t380.5 -142.5t145.5 -394.5t-145.5 -394.5t-380.5 -142.5t-382 142.5t-147 394.5zM317 1296q0 54 35 89.5t88 35.5q54 0 89.5 -35.5t35.5 -89.5q0 -52 -35.5 -86t-89.5 -34q-53 0 -88 34t-35 86zM319 403q0 -173 84.5 -256.5 t227.5 -83.5t227 84.5t84 258.5v215q0 175 -84 258.5t-227 83.5t-227.5 -83.5t-84.5 -258.5v-218zM696 1296q0 54 35 89.5t88 35.5q54 0 89.5 -35.5t35.5 -89.5q0 -52 -35.5 -86t-89.5 -34q-53 0 -88 34t-35 86z" />
<glyph unicode="&#xf7;" horiz-adv-x="1228" d="M102 471v84h1024v-84h-1024zM479 115q0 59 38.5 99t96.5 40q60 0 100 -40t40 -99q0 -57 -40 -97.5t-100 -40.5q-58 0 -96.5 40t-38.5 98zM479 909q0 59 38.5 98.5t96.5 39.5q60 0 100 -39.5t40 -98.5t-40 -98t-100 -39q-58 0 -96.5 39t-38.5 98z" />
<glyph unicode="&#xf8;" horiz-adv-x="1259" d="M102 512q0 252 147 394.5t382 142.5q188 0 319 -93l56 66h122l-106 -125q135 -148 135 -385q0 -252 -145.5 -394.5t-380.5 -142.5q-189 0 -320 93l-59 -70h-123l111 129q-138 144 -138 385zM319 403q0 -84 23 -155l528 616q-80 99 -239 99q-143 0 -227.5 -83.5 t-84.5 -258.5v-218zM391 160q81 -97 240 -97q143 0 227 84.5t84 258.5v215q0 87 -22 155z" />
<glyph unicode="&#xf9;" horiz-adv-x="1314" d="M195 266v758h208v-760q0 -178 158 -178q80 0 177 48t173 120v770h209v-1024h-209v158q-81 -75 -186.5 -129t-224.5 -54q-149 0 -227 74.5t-78 216.5zM319 1434v20h191l188 -328h-84z" />
<glyph unicode="&#xfa;" horiz-adv-x="1314" d="M195 266v758h208v-760q0 -178 158 -178q80 0 177 48t173 120v770h209v-1024h-209v158q-81 -75 -186.5 -129t-224.5 -54q-149 0 -227 74.5t-78 216.5zM616 1126l191 328h188v-20l-295 -308h-84z" />
<glyph unicode="&#xfb;" horiz-adv-x="1314" d="M195 266v758h208v-760q0 -178 158 -178q80 0 177 48t173 120v770h209v-1024h-209v158q-81 -75 -186.5 -129t-224.5 -54q-149 0 -227 74.5t-78 216.5zM350 1126l191 328h235l189 -328h-84l-224 250l-223 -250h-84z" />
<glyph unicode="&#xfc;" horiz-adv-x="1314" d="M195 266v758h208v-760q0 -178 158 -178q80 0 177 48t173 120v770h209v-1024h-209v158q-81 -75 -186.5 -129t-224.5 -54q-149 0 -227 74.5t-78 216.5zM344 1296q0 54 35 89.5t88 35.5q54 0 89.5 -35.5t35.5 -89.5q0 -52 -35.5 -86t-89.5 -34q-53 0 -88 34t-35 86z M723 1296q0 54 35 89.5t88 35.5q54 0 89.5 -35.5t35.5 -89.5q0 -52 -35.5 -86t-89.5 -34q-53 0 -88 34t-35 86z" />
<glyph unicode="&#xfd;" horiz-adv-x="1058" d="M25 1024h225l344 -774l340 774h100l-483 -1098q-66 -151 -147 -225t-218 -74l-32 86l14 15q112 0 181.5 57.5t123.5 187.5l10 25zM518 1126l191 328h188v-20l-295 -308h-84z" />
<glyph unicode="&#xfe;" horiz-adv-x="1286" d="M195 -348v1782h208v-519q56 65 141 99.5t181 34.5q196 0 327.5 -144.5t131.5 -392.5q0 -125 -36 -227.5t-98.5 -169.5t-145.5 -103.5t-179 -36.5t-181 35t-141 101v-459h-208zM403 227q51 -79 128 -121.5t169 -42.5q269 0 269 340v224q0 95 -23 164t-63 104.5t-85 51.5 t-98 16q-92 0 -169 -43t-128 -123v-570z" />
<glyph unicode="&#xff;" horiz-adv-x="1058" d="M25 1024h225l344 -774l340 774h100l-483 -1098q-66 -151 -147 -225t-218 -74l-32 86l14 15q112 0 181.5 57.5t123.5 187.5l10 25zM246 1296q0 54 35 89.5t88 35.5q54 0 89.5 -35.5t35.5 -89.5q0 -52 -35.5 -86t-89.5 -34q-53 0 -88 34t-35 86zM625 1296q0 54 35 89.5 t88 35.5q54 0 89 -35.5t35 -89.5q0 -52 -35 -86t-89 -34q-53 0 -88 34t-35 86z" />
<glyph unicode="&#x152;" horiz-adv-x="2351" d="M113 717q0 174 53.5 316t145.5 234t212.5 141.5t257.5 49.5q274 0 414 -203v179h956l35 -93h-774v-544h588v-92h-588v-611h825l-34 -94h-1008v180q-142 -205 -414 -205q-136 0 -257 50t-213 142.5t-145.5 234.5t-53.5 315zM367 551q0 -132 28.5 -226.5t84 -149.5 t129.5 -80t173 -25q201 0 307.5 111.5t106.5 369.5v332q0 132 -28.5 226.5t-84.5 150t-129.5 81t-171.5 25.5q-202 0 -308.5 -112.5t-106.5 -370.5v-332z" />
<glyph unicode="&#x153;" horiz-adv-x="2091" d="M102 512q0 252 147 394.5t382 142.5q137 0 246.5 -58t173.5 -166q64 108 173 166t246 58q151 0 268 -61.5t184 -182t67 -283.5v-24h-832v-95q0 -167 91 -253.5t268 -86.5q105 0 206 40t162 108h23l47 -64q-184 -172 -447 -172q-156 0 -273 58.5t-183 167.5 q-64 -110 -173.5 -168t-246.5 -58q-235 0 -382 142.5t-147 394.5zM319 403q0 -173 84.5 -256.5t227.5 -83.5t227 84.5t84 258.5v215q0 175 -84 258.5t-227 83.5t-227.5 -83.5t-84.5 -258.5v-218zM1157 586h623v24q0 176 -84 264.5t-226 88.5t-227.5 -88.5t-85.5 -264.5v-24z " />
<glyph unicode="&#x178;" d="M53 1434h262l488 -662l485 662h123l-573 -783v-651h-211v651zM451 1706q0 54 34.5 89.5t87.5 35.5q54 0 89.5 -35.5t35.5 -89.5q0 -52 -35.5 -86.5t-89.5 -34.5q-53 0 -87.5 34.5t-34.5 86.5zM829 1706q0 54 35 89.5t88 35.5q54 0 89.5 -35.5t35.5 -89.5 q0 -52 -35.5 -86.5t-89.5 -34.5q-53 0 -88 34.5t-35 86.5z" />
<glyph unicode="&#x2c6;" horiz-adv-x="778" d="M82 1126l190 328h236l188 -328h-84l-223 250l-223 -250h-84z" />
<glyph unicode="&#x2dc;" horiz-adv-x="786" d="M82 1126q0 147 49.5 242.5t140.5 95.5q40 0 75 -22.5t60.5 -55t48.5 -64.5t47.5 -54.5t47.5 -22.5q82 0 82 209h72q0 -148 -49 -243t-140 -95q-40 0 -75.5 21.5t-61 53t-48 62.5t-47 52.5t-48.5 21.5q-82 0 -82 -201h-72z" />
<glyph unicode="&#x2000;" horiz-adv-x="938" />
<glyph unicode="&#x2001;" horiz-adv-x="1876" />
<glyph unicode="&#x2002;" horiz-adv-x="938" />
<glyph unicode="&#x2003;" horiz-adv-x="1876" />
<glyph unicode="&#x2004;" horiz-adv-x="625" />
<glyph unicode="&#x2005;" horiz-adv-x="469" />
<glyph unicode="&#x2006;" horiz-adv-x="312" />
<glyph unicode="&#x2007;" horiz-adv-x="312" />
<glyph unicode="&#x2008;" horiz-adv-x="234" />
<glyph unicode="&#x2009;" horiz-adv-x="375" />
<glyph unicode="&#x200a;" horiz-adv-x="104" />
<glyph unicode="&#x2010;" horiz-adv-x="833" d="M102 438v150h629v-150h-629z" />
<glyph unicode="&#x2011;" horiz-adv-x="833" d="M102 438v150h629v-150h-629z" />
<glyph unicode="&#x2012;" horiz-adv-x="833" d="M102 438v150h629v-150h-629z" />
<glyph unicode="&#x2013;" horiz-adv-x="1294" d="M102 471v84h1090v-84h-1090z" />
<glyph unicode="&#x2014;" horiz-adv-x="1941" d="M102 471v84h1737v-84h-1737z" />
<glyph unicode="&#x2018;" horiz-adv-x="614" d="M170 1040q0 72 35.5 152.5t105.5 153t158 108.5l29 -45q-77 -47 -129.5 -118.5t-65.5 -147.5q64 4 102.5 -38t38.5 -97q0 -61 -39.5 -100.5t-97.5 -39.5q-57 0 -97 46t-40 126z" />
<glyph unicode="&#x2019;" horiz-adv-x="614" d="M117 915q77 47 129 118t67 147q-64 -3 -103.5 38.5t-39.5 96.5q0 61 39.5 100t97.5 39t97.5 -45.5t39.5 -126.5q0 -112 -83 -235t-216 -179z" />
<glyph unicode="&#x201a;" horiz-adv-x="614" d="M117 -287q77 47 129 117.5t67 146.5q-64 -3 -103.5 40t-39.5 98q0 61 39.5 100t97.5 39t97.5 -46t39.5 -126q0 -113 -83 -236.5t-216 -179.5z" />
<glyph unicode="&#x201c;" horiz-adv-x="1007" d="M170 1040q0 72 35.5 152.5t105.5 153t158 108.5l29 -45q-77 -47 -129.5 -118.5t-65.5 -147.5q64 4 102.5 -38t38.5 -97q0 -61 -39.5 -100.5t-97.5 -39.5q-57 0 -97 46t-40 126zM563 1040q0 72 35 152t105 153t159 109l29 -45q-77 -48 -130.5 -119t-66.5 -147 q64 4 104 -38t40 -97q0 -61 -40 -100.5t-98 -39.5t-97.5 46t-39.5 126z" />
<glyph unicode="&#x201d;" horiz-adv-x="1007" d="M117 915q77 47 129 118t67 147q-64 -3 -103.5 38.5t-39.5 96.5q0 61 39.5 100t97.5 39t97.5 -45.5t39.5 -126.5q0 -112 -83 -235t-216 -179zM510 915q76 46 128.5 117t66.5 148q-64 -3 -103 38.5t-39 96.5q0 61 39.5 100t97.5 39q57 0 97.5 -45.5t40.5 -126.5 q0 -111 -83.5 -234.5t-215.5 -179.5z" />
<glyph unicode="&#x201e;" horiz-adv-x="1007" d="M117 -287q77 47 129 117.5t67 146.5q-64 -3 -103.5 40t-39.5 98q0 61 39.5 100t97.5 39t97.5 -46t39.5 -126q0 -113 -83 -236.5t-216 -179.5zM510 -287q77 48 129.5 118t65.5 146q-64 -3 -103 40t-39 98q0 61 39.5 100t97.5 39q57 0 97.5 -46t40.5 -126 q0 -112 -83.5 -236t-215.5 -180z" />
<glyph unicode="&#x2022;" horiz-adv-x="751" d="M170 512q0 88 58.5 147.5t146.5 59.5q89 0 148 -59.5t59 -147.5q0 -87 -59 -146t-148 -59q-87 0 -146 59t-59 146z" />
<glyph unicode="&#x2026;" horiz-adv-x="1843" d="M170 115q0 59 39.5 99t97.5 40t97.5 -40t39.5 -99q0 -57 -39.5 -97.5t-97.5 -40.5t-97.5 40.5t-39.5 97.5zM784 115q0 59 40 99t98 40t97.5 -40t39.5 -99q0 -57 -39.5 -97.5t-97.5 -40.5t-98 40.5t-40 97.5zM1399 115q0 59 39.5 99t97.5 40t97.5 -40t39.5 -99 q0 -57 -39.5 -97.5t-97.5 -40.5t-97.5 40.5t-39.5 97.5z" />
<glyph unicode="&#x202f;" horiz-adv-x="375" />
<glyph unicode="&#x2039;" horiz-adv-x="927" d="M205 512l315 393h135l-315 -393l315 -393h-135z" />
<glyph unicode="&#x203a;" horiz-adv-x="927" d="M272 119l316 393l-316 393h136l315 -393l-315 -393h-136z" />
<glyph unicode="&#x205f;" horiz-adv-x="469" />
<glyph unicode="&#x20ac;" horiz-adv-x="1216" d="M102 559v82h136q-2 25 -2 76t2 76h-136v84h144q34 268 175 424.5t351 156.5q233 0 389 -153l-51 -82h-23q-55 71 -140 112t-175 41q-153 0 -236 -95t-83 -282v-122h483v-84h-483v-152h483v-82h-483v-125q0 -187 83 -282t236 -95q93 0 181.5 37.5t144.5 102.5h22l41 -66 q-156 -156 -389 -156q-211 0 -351.5 157.5t-174.5 426.5h-144z" />
<glyph unicode="&#x2122;" horiz-adv-x="1138" d="M55 1376v58h391v-58h-163v-372h-64v372h-164zM532 1004v430h86l160 -332l158 332h92v-430h-63v352l-166 -352h-43l-160 337v-337h-64z" />
<glyph unicode="&#x25fc;" horiz-adv-x="1024" d="M0 0v1024h1024v-1024h-1024z" />
<glyph unicode="&#xfb01;" horiz-adv-x="1425" d="M51 938v86h178v145q0 139 82 214t246 75q132 0 246 -57l-27 -80h-18q-69 51 -160 51q-89 0 -125.5 -34t-36.5 -130v-184h340v-86h-340v-938h-207v938h-178zM1004 1296q0 54 34.5 89.5t87.5 35.5q54 0 89.5 -35.5t35.5 -89.5q0 -52 -35.5 -86t-89.5 -34q-53 0 -87.5 34 t-34.5 86zM1022 0v1024h209v-1024h-209z" />
<glyph unicode="&#xfb02;" horiz-adv-x="1425" d="M51 938v86h178v145q0 139 82 214t246 75q132 0 246 -57l-27 -80h-18q-69 51 -160 51q-89 0 -125.5 -34t-36.5 -130v-184h340v-86h-340v-938h-207v938h-178zM1022 0v1434h209v-1434h-209z" />
</font>
</defs>
</svg>
