<?xml version="1.0" standalone="no"?>
<!DOCTYPE svg PUBLIC "-//W3C//DTD SVG 1.1//EN" "http://www.w3.org/Graphics/SVG/1.1/DTD/svg11.dtd" >
<svg xmlns="http://www.w3.org/2000/svg" xmlns:xlink="http://www.w3.org/1999/xlink" version="1.1">
<metadata></metadata>
<defs>
<font id="acme_gothic_wideregular" horiz-adv-x="1495" >
<font-face units-per-em="2048" ascent="1659" descent="-389" />
<missing-glyph horiz-adv-x="606" />
<glyph horiz-adv-x="0" />
<glyph horiz-adv-x="682" />
<glyph unicode=" "  horiz-adv-x="606" />
<glyph unicode="&#x09;" horiz-adv-x="606" />
<glyph unicode="&#xa0;" horiz-adv-x="606" />
<glyph unicode="!" horiz-adv-x="638" d="M139 1434h361l-119 -977h-125zM150 143q0 71 47.5 118.5t119.5 47.5q73 0 122.5 -47.5t49.5 -118.5t-49.5 -118.5t-122.5 -47.5q-72 0 -119.5 47.5t-47.5 118.5z" />
<glyph unicode="&#x22;" horiz-adv-x="946" d="M88 743l283 691h143l-283 -691h-143zM432 743l281 691h143l-281 -691h-143z" />
<glyph unicode="#" horiz-adv-x="1576" d="M106 457l48 110h280l129 299h-280l47 111h280l197 457h121l-197 -457h336l197 457h122l-196 -457h280l-47 -111h-282l-127 -299h280l-47 -110h-282l-197 -457h-121l197 457h-336l-197 -457h-121l197 457h-281zM555 567h336l129 299h-336z" />
<glyph unicode="$" horiz-adv-x="1087" d="M70 326l55 98h22q157 -129 377 -129q107 0 164 38.5t57 106.5q0 43 -27 75.5t-71 52t-100.5 39.5t-115.5 35.5t-115.5 42.5t-100.5 59.5t-71 86.5t-27 123q0 121 98 200.5t266 94.5v185h133v-183q186 -12 318 -108l-47 -101h-23q-123 97 -305 97q-102 0 -158.5 -32.5 t-56.5 -88.5q0 -43 36.5 -75t94.5 -52.5t128.5 -40t140.5 -45.5t128 -60.5t94.5 -93.5t36.5 -137q0 -145 -107 -228.5t-280 -101.5v-184h-133v182q-243 11 -411 144z" />
<glyph unicode="%" horiz-adv-x="2318" d="M57 1004q0 138 61.5 240t165.5 153t236 51q204 0 334.5 -118.5t130.5 -325.5q0 -206 -131 -325.5t-334 -119.5t-333 119.5t-130 325.5zM307 860q0 -207 215 -207q213 0 213 209v279q0 213 -213 213q-215 0 -215 -213v-281zM543 0l1091 1434h142l-1090 -1434h-143z M1333 430q0 138 61.5 240t165.5 153t236 51q204 0 334.5 -118.5t130.5 -325.5q0 -137 -61.5 -239t-166 -153.5t-237.5 -51.5q-203 0 -333 119t-130 325zM1583 287q0 -207 215 -207q213 0 213 209v278q0 213 -213 213q-215 0 -215 -213v-280z" />
<glyph unicode="&#x26;" horiz-adv-x="1511" d="M100 377q0 82 27 148.5t84.5 122t128.5 100t176 94.5q-67 108 -82 218t20.5 198.5t134 144t245.5 55.5q64 0 120.5 -15t102.5 -44.5t73 -80t27 -116.5q0 -99 -75 -179.5t-238 -160.5l274 -387l174 254h150l-248 -360l262 -369h-346l-100 141q-187 -166 -430 -166 q-215 0 -347.5 108.5t-132.5 293.5zM361 455q7 -76 63 -156l27 -35q80 -117 245 -117q130 0 242 97l-352 497q-121 -60 -176.5 -135t-48.5 -151zM676 1196q0 -93 98 -233q141 68 195.5 119t54.5 118q0 69 -44.5 107.5t-129.5 38.5q-82 0 -128 -43t-46 -107z" />
<glyph unicode="'" horiz-adv-x="602" d="M88 743l283 691h143l-283 -691h-143z" />
<glyph unicode="(" horiz-adv-x="765" d="M100 543q0 282 136.5 528t396.5 432l53 -65q-170 -174 -260 -408.5t-90 -486.5t90 -486.5t260 -408.5l-53 -66q-260 185 -396.5 432.5t-136.5 528.5z" />
<glyph unicode=")" horiz-adv-x="768" d="M80 -352q172 174 262 408.5t90 486.5t-90 486.5t-262 408.5l53 65q261 -185 397 -431t136 -529q0 -282 -136 -529t-397 -432z" />
<glyph unicode="*" horiz-adv-x="753" d="M88 1032l197 103l-197 102l57 94l185 -117l-8 220h110l-8 -220l182 117l58 -94l-197 -102l197 -103l-58 -94l-182 117l8 -219h-110l8 219l-185 -117z" />
<glyph unicode="+" horiz-adv-x="1202" d="M88 457v110h459v457h110v-457h455v-110h-455v-457h-110v457h-459z" />
<glyph unicode="," horiz-adv-x="638" d="M121 -274q73 46 124 113t68 141q-72 0 -117.5 48t-45.5 113q0 73 49 120.5t120 47.5t120.5 -54t49.5 -144q0 -132 -95 -259t-236 -186z" />
<glyph unicode="-" horiz-adv-x="804" d="M88 424v176h629v-176h-629z" />
<glyph unicode="." horiz-adv-x="638" d="M150 143q0 71 47.5 118.5t119.5 47.5q73 0 122.5 -47.5t49.5 -118.5t-49.5 -118.5t-122.5 -47.5q-72 0 -119.5 47.5t-47.5 118.5z" />
<glyph unicode="/" horiz-adv-x="835" d="M4 -102l707 1638h120l-704 -1638h-123z" />
<glyph unicode="0" horiz-adv-x="1583" d="M100 717q0 175 53.5 316.5t147.5 233.5t219.5 141.5t270.5 49.5q144 0 269.5 -49.5t219 -141.5t147.5 -233.5t54 -316.5q0 -173 -54 -314.5t-147.5 -234.5t-219 -143t-269.5 -50q-145 0 -270.5 50t-219.5 143t-147.5 234.5t-53.5 314.5zM422 506q0 -216 95.5 -312 t273.5 -96q179 0 274.5 96t95.5 314v414q0 217 -95.5 315t-274.5 98q-369 0 -369 -413v-416z" />
<glyph unicode="1" horiz-adv-x="944" d="M49 1210l594 234h100v-1444h-284v1239l-365 -141z" />
<glyph unicode="2" horiz-adv-x="1189" d="M104 0v82l558 700q169 212 169 340q0 97 -75 155t-217 58q-204 0 -338 -137h-27l-70 107q83 73 199.5 113t251.5 40q245 0 388.5 -113.5t143.5 -295.5q0 -195 -180 -420l-403 -506h631l-48 -123h-983z" />
<glyph unicode="3" horiz-adv-x="1320" d="M51 190l68 84h28q156 -176 422 -176q160 0 245 74t85 207v117q0 134 -62.5 204t-174.5 70q-119 0 -224 -65l-67 73l438 533h-705l48 123h1011v-82l-389 -475q147 -10 249 -69.5t149 -150t47 -204.5q0 -223 -168 -350.5t-457 -127.5q-353 0 -543 215z" />
<glyph unicode="4" horiz-adv-x="1294" d="M51 309v92l875 1043h118v-1010h197v-125h-197v-309h-286v309h-707zM246 434h512v617z" />
<glyph unicode="5" horiz-adv-x="1320" d="M51 190l68 84h28q156 -176 422 -176q160 0 245 74t85 207v137q0 295 -315 295q-209 0 -396 -111l-84 64l160 670h803l47 -123h-600l-98 -414q124 31 229 31q266 0 420 -124t154 -347q0 -226 -168 -354t-457 -128q-353 0 -543 215z" />
<glyph unicode="6" horiz-adv-x="1497" d="M96 600q0 163 67 308.5t191 259.5t310 190.5t415 101.5l17 -100q-317 -58 -491 -206.5t-185 -365.5q175 101 442 101q150 0 271 -47.5t196.5 -148t75.5 -238.5q0 -224 -173.5 -352t-479.5 -128q-193 0 -342 77t-231.5 219.5t-82.5 328.5zM420 418q0 -164 88.5 -242 t243.5 -78t244 68.5t89 214.5v113q0 270 -313 270q-99 0 -194 -31.5t-158 -75.5v-239z" />
<glyph unicode="7" horiz-adv-x="1193" d="M43 1311l47 123h1061v-84l-590 -1350h-317l571 1311h-772z" />
<glyph unicode="8" horiz-adv-x="1519" d="M100 408q0 301 369 385q-279 76 -279 309q0 158 152 257t416 99q263 0 417 -99t154 -257q0 -233 -280 -311q370 -84 370 -383q0 -104 -52.5 -187.5t-144 -136.5t-210 -81t-254.5 -28t-254 28t-209 81t-143 136.5t-52 187.5zM422 358q0 -127 87.5 -193.5t248.5 -66.5 t250.5 67t89.5 193v113q0 127 -89 193.5t-251 66.5q-161 0 -248.5 -66t-87.5 -194v-113zM494 1053q0 -94 69 -146.5t195 -52.5t197 52.5t71 146.5v82q0 95 -71 147.5t-197 52.5t-195 -52.5t-69 -147.5v-82z" />
<glyph unicode="9" horiz-adv-x="1497" d="M92 979q0 223 173 351t480 128q193 0 342 -77t231.5 -219t82.5 -328q0 -163 -67 -309t-191 -259.5t-310 -190.5t-415 -102l-17 101q317 58 491 206t185 365q-173 -100 -442 -100q-150 0 -271 47.5t-196.5 148t-75.5 238.5zM414 942q0 -272 311 -272q99 0 194 31t158 75 v240q0 164 -88.5 241.5t-243.5 77.5q-154 0 -242.5 -68.5t-88.5 -213.5v-111z" />
<glyph unicode=":" horiz-adv-x="638" d="M150 143q0 71 47.5 118.5t119.5 47.5q73 0 122.5 -47.5t49.5 -118.5t-49.5 -118.5t-122.5 -47.5q-72 0 -119.5 47.5t-47.5 118.5zM150 895q0 71 47.5 118.5t119.5 47.5q73 0 122.5 -47.5t49.5 -118.5t-49.5 -118.5t-122.5 -47.5q-72 0 -119.5 47.5t-47.5 118.5z" />
<glyph unicode=";" horiz-adv-x="638" d="M121 -274q73 46 124 113t68 141q-72 0 -117.5 48t-45.5 113q0 73 49 120.5t120 47.5t120.5 -54t49.5 -144q0 -132 -95 -259t-236 -186zM150 895q0 71 47.5 118.5t119.5 47.5q73 0 122.5 -47.5t49.5 -118.5t-49.5 -118.5t-122.5 -47.5q-72 0 -119.5 47.5t-47.5 118.5z" />
<glyph unicode="&#x3c;" horiz-adv-x="1202" d="M90 442v142l1024 465v-121l-915 -416l915 -416v-121z" />
<glyph unicode="=" horiz-adv-x="1202" d="M88 231v111h1024v-111h-1024zM88 682v111h1024v-111h-1024z" />
<glyph unicode="&#x3e;" horiz-adv-x="1202" d="M88 -25v121l916 416l-916 416v121l1024 -465v-142z" />
<glyph unicode="?" horiz-adv-x="907" d="M23 1350q162 108 385 108q193 0 301 -72t108 -198q0 -60 -25.5 -111.5t-66 -89.5t-89 -72.5t-97.5 -67.5t-89.5 -67.5t-66 -78.5t-25.5 -95q0 -66 43 -133l-110 -31q-48 44 -77.5 107.5t-29.5 130.5q0 58 19.5 110.5t51 92.5t69.5 76t76.5 67.5t70 61t51 63.5t19.5 68 q0 57 -43 87.5t-123 30.5q-159 0 -277 -96h-20zM170 143q0 71 47.5 118.5t120.5 47.5t122.5 -47.5t49.5 -118.5t-49.5 -118.5t-122.5 -47.5t-120.5 47.5t-47.5 118.5z" />
<glyph unicode="@" horiz-adv-x="2076" d="M88 508q0 202 72.5 378.5t198 302t302.5 197.5t379 72q201 0 376.5 -69t301 -189.5t197.5 -289.5t72 -363q0 -271 -109 -421.5t-285 -150.5q-108 0 -185 41t-118 115q-122 -156 -358 -156q-93 0 -175.5 36.5t-145 103.5t-98.5 169.5t-36 227.5q0 250 132.5 393.5 t336.5 143.5q225 0 357 -144l147 131h76v-803q0 -145 119 -145q99 0 165 129t66 330q0 172 -63.5 322t-174 257t-265.5 168.5t-333 61.5t-334.5 -64.5t-267.5 -176.5t-175 -269.5t-64 -337.5t64 -337.5t175 -269.5t267.5 -176.5t334.5 -64.5q289 0 533 178l59 -82 q-257 -198 -592 -198q-202 0 -379 72t-302.5 197.5t-198 302t-72.5 378.5zM760 387q0 -81 19 -139.5t53 -90t73.5 -45.5t87.5 -14q79 0 147 36.5t113 105.5v544q-44 68 -112.5 105t-147.5 37q-102 0 -167.5 -67.5t-65.5 -225.5v-246z" />
<glyph unicode="A" d="M47 0l619 1434h161l621 -1434h-309l-127 293h-695l-127 -293h-143zM369 416h589l-294 684z" />
<glyph unicode="B" horiz-adv-x="1533" d="M201 0v1434h622q259 0 389.5 -85t130.5 -278q0 -132 -63.5 -207.5t-185.5 -107.5q321 -67 321 -371q0 -204 -137.5 -294.5t-403.5 -90.5h-673zM483 123h391q228 0 228 215v125q0 111 -60.5 168t-167.5 57h-391v-565zM483 811h340q219 0 219 193v112q0 195 -219 195h-340 v-500z" />
<glyph unicode="C" horiz-adv-x="1363" d="M100 717q0 175 55.5 316.5t152.5 233.5t227.5 141.5t281.5 49.5q149 0 282 -56t214 -159l-74 -100h-29q-144 192 -393 192q-188 0 -291.5 -104.5t-103.5 -325.5v-381q0 -426 395 -426q248 0 402 174h28l66 -82q-85 -104 -216.5 -159.5t-279.5 -55.5q-151 0 -281.5 50 t-227.5 143t-152.5 234.5t-55.5 314.5z" />
<glyph unicode="D" horiz-adv-x="1556" d="M201 0v1434h583q316 0 493 -190t177 -527t-177 -527t-493 -190h-583zM483 125h303q176 0 265.5 91.5t89.5 299.5v397q0 214 -89 305t-266 91h-303v-1184z" />
<glyph unicode="E" horiz-adv-x="1384" d="M201 0v1434h983l49 -123h-746v-500h557v-123h-557v-565h797l-49 -123h-1034z" />
<glyph unicode="F" horiz-adv-x="1290" d="M201 0v1434h991l47 -123h-752v-500h566v-123h-566v-688h-286z" />
<glyph unicode="G" horiz-adv-x="1585" d="M100 717q0 175 55.5 316.5t152.5 233.5t227.5 141.5t281.5 49.5q149 0 282.5 -56t213.5 -159l-74 -100h-29q-141 192 -393 192q-189 0 -292 -106t-103 -330v-371q0 -430 385 -430q164 0 293 90v435h-303l47 122h538v-759h-57l-141 100q-153 -111 -375 -111 q-148 0 -276.5 50t-225 143t-152 234.5t-55.5 314.5z" />
<glyph unicode="H" horiz-adv-x="1581" d="M201 0v1434h286v-623h609v623h284v-1434h-284v688h-609v-688h-286z" />
<glyph unicode="I" horiz-adv-x="684" d="M201 0v1434h282v-1434h-282z" />
<glyph unicode="J" horiz-adv-x="1003" d="M47 49l41 117h29q75 -68 205 -68q90 0 143 55.5t53 168.5v1112h283v-1065q0 -193 -120 -293.5t-323 -100.5q-181 0 -311 74z" />
<glyph unicode="K" horiz-adv-x="1517" d="M201 0v1434h282v-766l734 766h178l-494 -516l592 -918h-346l-449 709l-215 -226v-483h-282z" />
<glyph unicode="L" horiz-adv-x="1273" d="M201 0v1434h282v-1311h742l-49 -123h-975z" />
<glyph unicode="M" horiz-adv-x="1990" d="M201 0v1434h315l490 -1037l487 1037h297v-1434h-283v1149l-544 -1149h-86l-543 1145v-1145h-133z" />
<glyph unicode="N" horiz-adv-x="1527" d="M201 0v1434h319l672 -942v942h133v-1434h-131l-860 1200v-1200h-133z" />
<glyph unicode="O" horiz-adv-x="1583" d="M100 717q0 174 54 316t148 234t219.5 141.5t269.5 49.5q145 0 270.5 -49.5t219 -141.5t147 -233.5t53.5 -316.5q0 -173 -53.5 -314.5t-147 -234.5t-219 -143t-270.5 -50q-144 0 -269.5 50t-219.5 143t-148 234.5t-54 314.5zM422 508q0 -217 95.5 -313.5t273.5 -96.5 q179 0 274.5 96.5t95.5 313.5v418q0 217 -95.5 313t-274.5 96q-178 0 -273.5 -96.5t-95.5 -312.5v-418z" />
<glyph unicode="P" horiz-adv-x="1517" d="M201 0v1434h673q267 0 404 -92.5t137 -303.5q0 -415 -541 -415h-391v-623h-282zM483 745h391q108 0 168 59.5t60 184.5v86q0 236 -228 236h-391v-566z" />
<glyph unicode="Q" horiz-adv-x="1583" d="M100 717q0 174 54 316t148 234t219.5 141.5t269.5 49.5q145 0 270.5 -49.5t219 -141.5t147 -233.5t53.5 -316.5q0 -205 -73.5 -361.5t-203.5 -251.5l180 -286h-258l-114 190q-100 -33 -221 -33q-144 0 -269.5 50t-219.5 143t-148 234.5t-54 314.5zM422 508 q0 -217 95.5 -313.5t273.5 -96.5q88 0 153 23l-149 248h243l72 -113q51 94 51 252v418q0 217 -95.5 313t-274.5 96q-178 0 -273.5 -96.5t-95.5 -312.5v-418z" />
<glyph unicode="R" horiz-adv-x="1566" d="M201 0v1434h673q267 0 404 -92.5t137 -303.5q0 -318 -313 -391l373 -647h-332l-330 623h-330v-623h-282zM483 745h391q108 0 168 59.5t60 184.5v86q0 236 -228 236h-391v-566z" />
<glyph unicode="S" horiz-adv-x="1370" d="M66 170l75 111h29q83 -81 206.5 -132t270.5 -51q167 0 258.5 59.5t91.5 172.5q0 74 -47.5 129.5t-123.5 90.5t-167.5 65t-183 65.5t-167.5 81t-123.5 121t-47.5 176.5q0 175 153.5 287t420.5 112q304 0 485 -143l-68 -113h-28q-139 133 -389 133q-316 0 -316 -190 q0 -50 30 -90.5t80.5 -69.5t116 -54.5t138 -50.5t145.5 -52.5t138.5 -65.5t116 -84.5t80.5 -114.5t30 -151q0 -138 -81 -238t-220 -149.5t-320 -49.5q-353 0 -583 195z" />
<glyph unicode="T" horiz-adv-x="1357" d="M47 1311l49 123h1166l49 -123h-492v-1311h-280v1311h-492z" />
<glyph unicode="U" horiz-adv-x="1525" d="M201 446v988h282v-994q0 -92 27.5 -159.5t78 -105.5t114 -55.5t143.5 -17.5q76 0 137.5 17.5t110.5 55.5t75.5 104.5t26.5 158.5v996h129v-990q0 -469 -528 -469q-151 0 -267 36.5t-187 101t-106.5 149t-35.5 184.5z" />
<glyph unicode="V" horiz-adv-x="1492" d="M47 1434h311l473 -1098l472 1098h143l-617 -1434h-163z" />
<glyph unicode="W" horiz-adv-x="2015" d="M47 1434h303l346 -1000l346 1000h97l346 -1000l344 1000h139l-491 -1434h-144l-323 938l-324 -938h-143z" />
<glyph unicode="X" d="M47 0l557 702l-518 732h346l377 -533l434 533h166l-518 -650l557 -784h-346l-414 584l-473 -584h-168z" />
<glyph unicode="Y" d="M47 1434h344l449 -629l448 629h160l-559 -797v-637h-281v635z" />
<glyph unicode="Z" horiz-adv-x="1372" d="M100 0v68l766 1243h-733l47 123h1057v-56l-772 -1255h807l-47 -123h-1125z" />
<glyph unicode="[" horiz-adv-x="765" d="M201 -459v2003h448l43 -110h-272v-1782h272l-43 -111h-448z" />
<glyph unicode="\" horiz-adv-x="827" d="M0 1536h121l706 -1638h-122z" />
<glyph unicode="]" horiz-adv-x="765" d="M74 -348h274v1782h-274l43 110h448v-2003h-448z" />
<glyph unicode="^" horiz-adv-x="1202" d="M63 410l467 1024h142l465 -1024h-119l-416 913l-418 -913h-121z" />
<glyph unicode="_" horiz-adv-x="1318" d="M4 -119h1311v-110h-1311v110z" />
<glyph unicode="`" horiz-adv-x="589" d="M82 1430v24h242l184 -328h-111z" />
<glyph unicode="a" horiz-adv-x="1275" d="M88 336q0 166 117.5 259t308.5 93q198 0 320 -88v135q0 197 -224 197q-95 0 -192.5 -32.5t-169.5 -86.5h-19l-47 107q211 129 482 129q214 0 328 -87t114 -280v-682h-272v106q-131 -131 -336 -131q-186 0 -298 96t-112 265zM360 307q0 -100 56.5 -156.5t148.5 -56.5 q80 0 152.5 36.5t116.5 96.5v269q-40 34 -105.5 56.5t-134.5 22.5q-109 0 -171.5 -54t-62.5 -163v-51z" />
<glyph unicode="b" horiz-adv-x="1308" d="M170 -12v1446h272v-514q117 129 320 129q94 0 177 -36.5t145.5 -103.5t98.5 -169.5t36 -227.5q0 -249 -133 -393t-338 -144q-104 0 -196.5 36t-158.5 108l-147 -131h-76zM442 240q44 -69 112.5 -106.5t147.5 -37.5q48 0 87.5 14.5t73.5 46.5t53.5 92t19.5 142v246 q0 81 -19.5 140t-53.5 90.5t-73.5 46t-87.5 14.5q-79 0 -147.5 -37.5t-112.5 -106.5v-544z" />
<glyph unicode="c" horiz-adv-x="1105" d="M88 512q0 252 153.5 394.5t407.5 142.5q128 0 226.5 -37.5t181.5 -122.5l-74 -101h-22q-51 69 -133.5 107.5t-170.5 38.5q-135 0 -210.5 -77.5t-75.5 -223.5v-242q0 -146 75.5 -223.5t210.5 -77.5q92 0 177.5 34t138.5 95h22l62 -84q-160 -160 -408 -160q-253 0 -407 143 t-154 394z" />
<glyph unicode="d" horiz-adv-x="1308" d="M88 512q0 125 36 227.5t98.5 169.5t145.5 103.5t177 36.5q204 0 321 -129v514h271v-1434h-271v104q-117 -129 -321 -129q-94 0 -177 36.5t-145.5 103.5t-98.5 169.5t-36 227.5zM371 387q0 -156 66 -223.5t169 -67.5q78 0 146.5 37.5t113.5 106.5v544q-45 69 -113.5 106.5 t-146.5 37.5q-49 0 -88.5 -14t-74 -46t-53.5 -92t-19 -143v-246z" />
<glyph unicode="e" horiz-adv-x="1265" d="M88 512q0 251 153.5 394t401.5 143q239 0 387 -141.5t148 -389.5v-37h-807v-96q0 -295 327 -295q103 0 200.5 36.5t156.5 100.5h22l68 -82q-95 -86 -207.5 -128t-257.5 -42q-274 0 -433 142t-159 395zM371 594h540v39q0 152 -71.5 226.5t-196.5 74.5q-124 0 -198 -75 t-74 -226v-39z" />
<glyph unicode="f" horiz-adv-x="862" d="M45 909v115h172v129q0 149 94 227t273 78q154 0 268 -57l-35 -105h-20q-68 47 -160 47q-80 0 -115 -31t-35 -116v-172h330v-115h-330v-909h-270v909h-172z" />
<glyph unicode="g" horiz-adv-x="1267" d="M88 -113q0 88 78 166q-55 52 -55 140q0 72 44.5 132t104.5 99q-149 92 -149 274q0 172 126 261.5t330 89.5q205 0 324 -88l307 88h19v-179h-242q43 -75 43 -172q0 -170 -124.5 -258t-326.5 -88q-119 0 -217 31q-59 -37 -59 -92q0 -90 135 -90h455q153 0 245.5 -62.5 t92.5 -181.5q0 -88 -43 -152.5t-123.5 -103t-185.5 -56.5t-238 -18q-284 0 -412.5 64.5t-128.5 195.5zM221 -92q0 -84 97 -125t311 -41q377 0 377 145q0 48 -41.5 70.5t-139.5 22.5h-389q-110 0 -184 24q-31 -45 -31 -96zM367 645q0 -89 47 -134.5t153 -45.5q103 0 148 45.5 t45 134.5v103q0 188 -193 188q-200 0 -200 -188v-103z" />
<glyph unicode="h" horiz-adv-x="1331" d="M170 0v1434h272v-560q198 175 408 175q150 0 230.5 -74.5t80.5 -216.5v-758h-272v750q0 153 -135 153q-70 0 -157 -42.5t-155 -106.5v-754h-272z" />
<glyph unicode="i" horiz-adv-x="612" d="M150 1298q0 63 43 103.5t112 40.5t112.5 -40.5t43.5 -103.5t-43.5 -103t-112.5 -40t-112 40t-43 103zM170 0v1024h272v-1024h-272z" />
<glyph unicode="j" horiz-adv-x="612" d="M-2 -367l12 113q23 -4 49 -4q61 0 86 30t25 117v1135h272v-1085q0 -155 -92 -233.5t-258 -78.5q-50 0 -94 6zM150 1298q0 63 43 103.5t112 40.5t112.5 -40.5t43.5 -103.5t-43.5 -103t-112.5 -40t-112 40t-43 103z" />
<glyph unicode="k" horiz-adv-x="1296" d="M170 0v1434h272v-981l559 571h179l-357 -356l449 -668h-330l-309 477l-191 -188v-289h-272z" />
<glyph unicode="l" horiz-adv-x="612" d="M170 0v1434h272v-1434h-272z" />
<glyph unicode="m" horiz-adv-x="2009" d="M170 0v1024h272v-147q76 71 177.5 121.5t216.5 50.5q229 0 288 -175q78 71 185.5 123t224.5 52q147 0 226 -76.5t79 -218.5v-754h-270v750q0 153 -133 153q-65 0 -147 -41t-148 -104v-758h-273v750q0 153 -131 153q-66 0 -148.5 -42.5t-146.5 -106.5v-754h-272z" />
<glyph unicode="n" horiz-adv-x="1331" d="M170 0v1024h272v-150q198 175 408 175q150 0 230.5 -74.5t80.5 -216.5v-758h-272v750q0 153 -135 153q-70 0 -157 -42.5t-155 -106.5v-754h-272z" />
<glyph unicode="o" horiz-adv-x="1286" d="M88 512q0 252 152.5 394.5t402.5 142.5t402.5 -142.5t152.5 -394.5t-152.5 -394.5t-402.5 -142.5t-402.5 142.5t-152.5 394.5zM371 381q0 -148 73 -219.5t199 -71.5t199 72.5t73 220.5v260q0 148 -73 219.5t-199 71.5t-199 -71.5t-73 -219.5v-262z" />
<glyph unicode="p" horiz-adv-x="1308" d="M170 -348v1372h272v-104q117 129 320 129q94 0 177 -36.5t145.5 -103.5t98.5 -169.5t36 -227.5t-36 -227.5t-98 -169.5t-145 -103.5t-178 -36.5q-203 0 -320 129v-452h-272zM442 240q44 -69 112.5 -106.5t147.5 -37.5q234 0 234 295v246q0 81 -19.5 140t-53.5 90.5 t-73.5 46t-87.5 14.5q-79 0 -147.5 -37.5t-112.5 -106.5v-544z" />
<glyph unicode="q" horiz-adv-x="1308" d="M88 512q0 249 133 393t338 144q222 0 354 -144l148 131h76v-1384h-271v452q-117 -129 -321 -129q-94 0 -177 36.5t-145.5 103.5t-98.5 169.5t-36 227.5zM371 387q0 -81 19.5 -140t54 -90.5t74 -46t87.5 -14.5q78 0 146.5 37.5t113.5 106.5v544q-45 69 -113.5 106.5 t-146.5 37.5q-102 0 -168.5 -68.5t-66.5 -226.5v-246z" />
<glyph unicode="r" horiz-adv-x="927" d="M170 0v1024h272v-182q58 82 157 144.5t214 62.5q37 0 72 -9v-192l-19 -4q-53 26 -135 26q-85 0 -164 -43.5t-125 -113.5v-713h-272z" />
<glyph unicode="s" horiz-adv-x="1089" d="M70 121l55 98h22q157 -129 377 -129q107 0 164 38.5t57 107.5q0 43 -27 75.5t-71 52t-100.5 39.5t-115.5 35.5t-115.5 42.5t-100.5 59.5t-71 86.5t-27 123q0 135 120.5 217t319.5 82q223 0 375 -111l-47 -100h-23q-121 96 -305 96q-102 0 -158.5 -32.5t-56.5 -88.5 q0 -43 36.5 -75t94.5 -52.5t128.5 -40t140.5 -45.5t128 -60.5t94.5 -93.5t36.5 -137q0 -83 -37.5 -148t-103.5 -105t-150.5 -60.5t-183.5 -20.5q-269 0 -456 146z" />
<glyph unicode="t" horiz-adv-x="864" d="M43 909v72q235 96 356 330h80v-287h330v-115h-330v-676q0 -82 34.5 -112.5t113.5 -30.5q92 0 157 45h21l37 -102q-116 -58 -267 -58q-180 0 -273 78t-93 228v628h-166z" />
<glyph unicode="u" horiz-adv-x="1331" d="M170 266v758h272v-750q0 -153 138 -153q68 0 154.5 42.5t154.5 106.5v754h272v-1024h-272v150q-198 -175 -406 -175q-151 0 -232 74.5t-81 216.5z" />
<glyph unicode="v" horiz-adv-x="1091" d="M23 1024h294l314 -715l311 715h127l-446 -1024h-150z" />
<glyph unicode="w" horiz-adv-x="1591" d="M23 1024h286l248 -672l246 672h145l244 -672l246 672h131l-375 -1024h-160l-239 645l-238 -645h-160z" />
<glyph unicode="x" horiz-adv-x="1114" d="M23 0l407 481l-391 543h313l262 -362l308 362h155l-391 -461l408 -563h-316l-276 383l-326 -383h-153z" />
<glyph unicode="y" horiz-adv-x="1091" d="M23 1024h294l314 -713l311 713h127l-477 -1098q-68 -156 -162.5 -227.5t-236.5 -71.5l-41 111l14 16q115 0 190 50t129 171z" />
<glyph unicode="z" horiz-adv-x="1017" d="M49 0v68l524 841h-524l45 115h828v-66l-525 -843h578l-45 -115h-881z" />
<glyph unicode="{" horiz-adv-x="765" d="M109 489v109q113 0 159.5 37.5t46.5 109.5q0 52 -21.5 120t-48 125t-48 133t-21.5 143q0 128 97.5 203t293.5 75h84l41 -110h-110q-170 0 -170 -162q0 -93 35.5 -250.5t35.5 -257.5q0 -86 -47.5 -144t-134.5 -77q87 -19 134.5 -77t47.5 -144q0 -100 -35.5 -257.5 t-35.5 -250.5q0 -162 170 -162h110l-41 -111h-84q-196 0 -293.5 75t-97.5 202q0 67 21.5 144t48 135t48 126t21.5 119q0 72 -46.5 109.5t-159.5 37.5z" />
<glyph unicode="|" horiz-adv-x="514" d="M201 -102v1638h110v-1638h-110z" />
<glyph unicode="}" horiz-adv-x="765" d="M74 -348h110q170 0 170 162q0 93 -35.5 250.5t-35.5 257.5q0 85 48 143.5t134 77.5q-86 19 -134 77.5t-48 143.5q0 100 35.5 257.5t35.5 250.5q0 162 -170 162h-110l41 110h84q196 0 294.5 -75.5t98.5 -202.5q0 -67 -22 -143t-48.5 -133t-48.5 -125t-22 -120 q0 -72 46.5 -109.5t159.5 -37.5v-109q-113 0 -159.5 -37.5t-46.5 -109.5q0 -51 22 -119t48.5 -126t48.5 -135t22 -144q0 -127 -98 -202t-295 -75h-84z" />
<glyph unicode="~" horiz-adv-x="1202" d="M88 377q0 123 85 207t208 84q58 0 109 -20.5t89 -50t73.5 -59.5t78 -50.5t86.5 -20.5q78 0 130 51.5t52 128.5h113q0 -123 -84.5 -207t-206.5 -84q-58 0 -109 20.5t-89 50t-74 59.5t-78.5 50.5t-87.5 20.5q-77 0 -128.5 -51.5t-51.5 -128.5h-115z" />
<glyph unicode="&#xa1;" horiz-adv-x="638" d="M139 -348l117 977h125l119 -977h-361zM150 942q0 71 48 118.5t121 47.5t121.5 -47.5t48.5 -118.5t-48.5 -118.5t-121.5 -47.5t-121 47.5t-48 118.5z" />
<glyph unicode="&#xa2;" horiz-adv-x="1118" d="M100 717q0 228 127.5 367.5t343.5 164.5v185h134v-183q219 -9 364 -157l-74 -101h-24q-50 69 -131.5 107.5t-169.5 38.5q-136 0 -211.5 -77.5t-75.5 -223.5v-242q0 -146 75.5 -223.5t211.5 -77.5q92 0 177 34t136 95h25l61 -84q-149 -149 -364 -158v-182h-134v184 q-217 27 -344 166t-127 367z" />
<glyph unicode="&#xa3;" horiz-adv-x="1261" d="M78 150q0 71 60.5 122.5t158.5 51.5q59 0 162 -29q-6 93 -45 197h-326v122h279q-38 95 -55 139.5t-36.5 127t-19.5 153.5q0 200 137 312t371 112q124 0 221.5 -28t183.5 -95l-67 -104h-23q-123 112 -286 112q-215 0 -215 -227v-502h550v-122h-550v-209v-23 q181 -53 323 -53q160 0 234 51l22 -10q-6 -123 -70 -198t-192 -75q-66 0 -134.5 23.5t-100 42t-101.5 66.5q-11 7 -16 10q-36 -69 -100 -105.5t-144 -36.5q-107 0 -164 50t-57 125zM211 147q0 -59 94 -59q95 0 135 88q-75 35 -137 35q-92 0 -92 -64z" />
<glyph unicode="&#xa4;" horiz-adv-x="1202" d="M143 336l150 151q-78 100 -78 232q0 129 78 229l-150 152l78 76l150 -150q100 78 231 78q129 0 229 -78l152 150l78 -76l-150 -152q76 -102 76 -229q0 -129 -78 -234l152 -149l-78 -78l-152 152q-100 -78 -229 -78q-131 0 -231 78l-152 -152zM324 721q0 -119 81 -200 t199 -81q114 0 194.5 81.5t80.5 199.5q0 114 -80.5 194t-194.5 80q-118 0 -199 -80t-81 -194z" />
<glyph unicode="&#xa5;" d="M47 1434h344l449 -629l448 629h160l-498 -709h377v-111h-438v-141h438v-111h-438v-362h-281v362h-438v111h438v141h-438v111h375z" />
<glyph unicode="&#xa6;" horiz-adv-x="514" d="M201 -102v716h110v-716h-110zM201 819v717h110v-717h-110z" />
<glyph unicode="&#xa7;" horiz-adv-x="1140" d="M104 625q0 96 61 168t169 108q-81 42 -126.5 103.5t-45.5 154.5q0 135 116.5 217t307.5 82q205 0 346 -110l-47 -101h-25q-111 103 -274 103q-94 0 -146.5 -34t-52.5 -93q0 -43 36 -75t93.5 -52.5t126.5 -39.5t138.5 -45t127 -60.5t93.5 -94t36 -137.5q0 -107 -60 -181 t-165 -112q168 -89 168 -256q0 -110 -62.5 -187.5t-161.5 -112t-225 -34.5q-117 0 -221 39t-180 107l55 98h23q137 -133 317 -133q96 0 148.5 39.5t52.5 109.5q0 44 -27 78t-70.5 54t-99.5 40t-114.5 36.5t-114.5 44t-99.5 60.5t-70.5 89t-27 127zM322 696q0 -19 5 -35.5 t17 -30.5t24 -25.5t34.5 -23t38.5 -19t46 -18t47.5 -16t53.5 -16.5t53 -16q74 12 113 49.5t39 95.5q0 31 -15 57t-37 43.5t-60 34.5t-70 28t-81 26q-13 4 -20 6q-88 -6 -138 -45t-50 -95z" />
<glyph unicode="&#xa8;" horiz-adv-x="866" d="M82 1298q0 60 40.5 98t104.5 38t105 -38t41 -98t-40.5 -96.5t-105.5 -36.5t-105 36.5t-40 96.5zM492 1298q0 60 40.5 98t104.5 38q65 0 106 -38t41 -98t-41 -96.5t-106 -36.5t-105 36.5t-40 96.5z" />
<glyph unicode="&#xa9;" horiz-adv-x="1683" d="M100 717q0 202 99.5 372.5t270 269.5t372.5 99q151 0 288.5 -58.5t236.5 -157.5t157.5 -236.5t58.5 -288.5q0 -202 -99 -372.5t-269.5 -270t-372.5 -99.5t-372.5 99.5t-270 270t-99.5 372.5zM199 717q0 -175 86.5 -323t234.5 -234t322 -86q175 0 323.5 86t235 234 t86.5 323t-86.5 323t-235 234t-323.5 86q-174 0 -322 -86t-234.5 -234t-86.5 -323zM369 715q0 132 65 244.5t177 178.5t245 66q96 0 185.5 -36.5t156.5 -106.5l-68 -70q-112 115 -274 115q-160 0 -275.5 -114.5t-115.5 -272.5q0 -162 114.5 -276.5t276.5 -114.5 q163 0 274 114l68 -69q-68 -70 -157.5 -107t-184.5 -37q-131 0 -243 65t-178 177t-66 244z" />
<glyph unicode="&#xaa;" horiz-adv-x="778" d="M47 1022q0 97 71.5 153t184.5 56q117 0 191 -49v75q0 109 -127 109q-56 0 -114.5 -19.5t-102.5 -50.5h-13l-33 74q126 78 297 78q147 0 216 -54.5t69 -170.5v-404h-192v58q-78 -72 -199 -72q-111 0 -179.5 57.5t-68.5 159.5zM78 621v100h608v-100h-608zM238 1004 q0 -54 31.5 -83.5t80.5 -29.5q42 0 81 19.5t63 50.5v149q-52 41 -127 41q-59 0 -94 -29.5t-35 -87.5v-30z" />
<glyph unicode="&#xab;" horiz-adv-x="1243" d="M178 512l316 393h170l-316 -393l316 -393h-170zM582 512l315 393h168l-315 -393l315 -393h-168z" />
<glyph unicode="&#xac;" horiz-adv-x="1202" d="M88 682v111h969v-562h-111v451h-858z" />
<glyph unicode="&#xad;" horiz-adv-x="804" d="M88 424v176h629v-176h-629z" />
<glyph unicode="&#xae;" horiz-adv-x="942" d="M100 1087q0 154 108.5 262.5t262.5 108.5t262.5 -108.5t108.5 -262.5t-108.5 -262t-262.5 -108t-262.5 108t-108.5 262zM158 1087q0 -129 92 -221t221 -92q130 0 222.5 92t92.5 221q0 131 -92.5 223.5t-222.5 92.5q-129 0 -221 -93t-92 -223zM338 879v415h141 q139 0 139 -123q0 -97 -77 -120l90 -172h-62l-84 163h-6h-88v-163h-53zM391 1090h88q82 0 82 71v17q0 39 -21 54t-61 15h-88v-157z" />
<glyph unicode="&#xaf;" horiz-adv-x="806" d="M82 1227v143h643v-143h-643z" />
<glyph unicode="&#xb0;" horiz-adv-x="843" d="M100 1139q0 132 94.5 225.5t229.5 93.5q132 0 225.5 -93.5t93.5 -225.5q0 -133 -93.5 -227.5t-225.5 -94.5q-135 0 -229.5 94t-94.5 228zM217 1139q0 -88 59.5 -147.5t147.5 -59.5q85 0 144 60t59 147q0 85 -59 143.5t-144 58.5q-88 0 -147.5 -58.5t-59.5 -143.5z" />
<glyph unicode="&#xb1;" horiz-adv-x="1202" d="M88 0v111h1024v-111h-1024zM88 580v110h459v334h110v-334h455v-110h-455v-334h-110v334h-459z" />
<glyph unicode="&#xb2;" horiz-adv-x="796" d="M57 872v64l361 420q98 113 98 182q0 53 -44 85t-126 32q-131 0 -221 -84h-19l-49 82q119 94 305 94q168 0 267.5 -72.5t99.5 -189.5q0 -116 -121 -254l-229 -264h389l-39 -95h-672z" />
<glyph unicode="&#xb3;" horiz-adv-x="874" d="M29 985l53 66h20q99 -99 267 -99q97 0 147.5 40.5t50.5 113.5v76q0 70 -37 107.5t-102 37.5q-75 0 -141 -37l-58 58l265 290h-431l39 95h674v-64l-239 -262q136 -13 207 -81.5t71 -170.5q0 -139 -112.5 -218t-305.5 -79q-241 0 -368 127z" />
<glyph unicode="&#xb4;" horiz-adv-x="589" d="M82 1126l184 328h242v-24l-315 -304h-111z" />
<glyph unicode="&#xb5;" horiz-adv-x="1394" d="M170 -348v1372h272v-750q0 -153 138 -153q68 0 154.5 42.5t154.5 106.5v4v750h272v-788q0 -84 34.5 -116t111.5 -32q19 0 43 4v-92q-45 -25 -117 -25q-126 0 -211 47t-117 138q-83 -75 -191.5 -130t-230.5 -55q-29 0 -41 2v-325h-272z" />
<glyph unicode="&#xb6;" horiz-adv-x="1695" d="M100 1038q0 211 137.5 303.5t405.5 92.5h852v-1782h-127v1659h-207v-1659h-129v971h-389q-543 0 -543 415zM414 989q0 -244 229 -244h389v566h-389q-229 0 -229 -236v-86z" />
<glyph unicode="&#xb7;" horiz-adv-x="638" d="M150 512q0 71 47.5 118.5t119.5 47.5q73 0 122.5 -47.5t49.5 -118.5t-49.5 -118.5t-122.5 -47.5q-72 0 -119.5 47.5t-47.5 118.5z" />
<glyph unicode="&#xb8;" horiz-adv-x="710" d="M82 -330l24 82q122 -43 211 -43q140 0 140 64q0 27 -19.5 41t-48.5 14q-50 0 -88 -35l-63 33l57 174h119l-37 -104q40 12 86 12q69 0 117.5 -31t48.5 -92q0 -55 -43.5 -91.5t-109.5 -51.5t-152 -15q-132 0 -242 43z" />
<glyph unicode="&#xb9;" horiz-adv-x="641" d="M29 1589l409 150h86v-867h-229v715l-232 -82z" />
<glyph unicode="&#xba;" horiz-adv-x="784" d="M47 1126q0 150 95 236t251 86q155 0 249.5 -86t94.5 -236t-94.5 -235.5t-249.5 -85.5q-156 0 -251 85.5t-95 235.5zM88 621v100h608v-100h-608zM248 1036q0 -77 39 -115t106 -38q66 0 105 39t39 116v179q0 75 -39 113t-105 38q-68 0 -106.5 -37t-38.5 -114v-181z" />
<glyph unicode="&#xbb;" horiz-adv-x="1243" d="M178 119l316 393l-316 393h170l316 -393l-316 -393h-170zM582 119l315 393l-315 393h168l315 -393l-315 -393h-168z" />
<glyph unicode="&#xbc;" horiz-adv-x="1697" d="M29 1290l409 150h86v-867h-229v715l-232 -82zM272 0l1092 1434h141l-1089 -1434h-144zM877 176v76l565 614h106v-596h121v-94h-121v-176h-227v176h-444zM1026 270h295v324z" />
<glyph unicode="&#xbd;" horiz-adv-x="1904" d="M29 1290l409 150h86v-867h-229v715l-232 -82zM272 0l1092 1434h141l-1089 -1434h-144zM1165 0v63l361 420q98 116 98 183q0 53 -44 84.5t-126 31.5q-131 0 -221 -84h-19l-49 82q119 94 305 94q168 0 267.5 -72.5t99.5 -189.5q0 -116 -121 -254l-229 -264h389l-39 -94 h-672z" />
<glyph unicode="&#xbe;" horiz-adv-x="1857" d="M29 686l53 66h20q99 -99 267 -99q97 0 147.5 40.5t50.5 113.5v76q0 70 -37 107.5t-102 37.5q-75 0 -141 -37l-58 58l265 290h-431l39 95h674v-64l-239 -262q136 -13 207 -81.5t71 -170.5q0 -139 -112.5 -218t-305.5 -79q-241 0 -368 127zM432 0l1092 1434h141 l-1090 -1434h-143zM1036 176v76l566 614h106v-596h121v-94h-121v-176h-227v176h-445zM1186 270h295v324z" />
<glyph unicode="&#xbf;" horiz-adv-x="907" d="M90 -102q0 60 25.5 111.5t66 89.5t89.5 72.5t97.5 67.5t89 67t66 78t25.5 95q0 66 -43 133l110 31q49 -44 78 -107t29 -130q0 -58 -19.5 -110.5t-51 -92.5t-69.5 -76t-76 -67.5t-69.5 -61t-51 -63.5t-19.5 -68q0 -57 43 -88t122 -31q159 0 277 96h20l56 -108 q-163 -109 -387 -109q-192 0 -300 73t-108 198zM397 942q0 71 49.5 118.5t122.5 47.5q72 0 120 -47.5t48 -118.5t-48 -118.5t-120 -47.5q-73 0 -122.5 47.5t-49.5 118.5z" />
<glyph unicode="&#xc0;" d="M47 0l619 1434h161l621 -1434h-309l-127 293h-695l-127 -293h-143zM369 416h589l-294 684zM375 1839v25h241l185 -328h-111z" />
<glyph unicode="&#xc1;" d="M47 0l619 1434h161l621 -1434h-309l-127 293h-695l-127 -293h-143zM369 416h589l-294 684zM694 1536l185 328h241v-25l-315 -303h-111z" />
<glyph unicode="&#xc2;" d="M47 0l619 1434h161l621 -1434h-309l-127 293h-695l-127 -293h-143zM369 416h589l-294 684zM416 1536l186 328h291l186 -328h-102l-229 236l-228 -236h-104z" />
<glyph unicode="&#xc3;" d="M47 0l619 1434h161l621 -1434h-309l-127 293h-695l-127 -293h-143zM369 416h589l-294 684zM418 1536q0 145 54 241.5t153 96.5q42 0 78.5 -20.5t62 -50t48 -58.5t46.5 -49.5t47 -20.5q40 0 60 50.5t20 138.5h90q0 -147 -54 -243.5t-153 -96.5q-42 0 -78.5 20t-62 48.5 t-48 57t-46.5 48.5t-47 20q-80 0 -80 -182h-90z" />
<glyph unicode="&#xc4;" d="M47 0l619 1434h161l621 -1434h-309l-127 293h-695l-127 -293h-143zM369 416h589l-294 684zM397 1708q0 60 40.5 97.5t105.5 37.5q64 0 104.5 -37.5t40.5 -97.5t-40 -96.5t-105 -36.5t-105.5 36.5t-40.5 96.5zM807 1708q0 60 40.5 97.5t104.5 37.5q65 0 106.5 -37.5 t41.5 -97.5t-41.5 -96.5t-106.5 -36.5t-105 36.5t-40 96.5z" />
<glyph unicode="&#xc5;" d="M47 0l619 1434h161l621 -1434h-309l-127 293h-695l-127 -293h-143zM369 416h589l-294 684zM571 1718q0 72 52.5 124t124.5 52t125 -52t53 -124t-53 -125t-125 -53t-124.5 53t-52.5 125zM651 1718q0 -41 28.5 -69.5t68.5 -28.5q41 0 68.5 28.5t27.5 69.5q0 40 -27.5 68.5 t-68.5 28.5q-40 0 -68.5 -28.5t-28.5 -68.5z" />
<glyph unicode="&#xc6;" horiz-adv-x="2287" d="M-16 0l1237 1434h866l49 -123h-745v-500h557v-123h-557v-565h796l-49 -123h-1034v293h-694l-252 -293h-174zM516 416h588v682z" />
<glyph unicode="&#xc7;" horiz-adv-x="1363" d="M100 717q0 175 55.5 316.5t152.5 233.5t227.5 141.5t281.5 49.5q149 0 282 -56t214 -159l-74 -100h-29q-144 192 -393 192q-188 0 -291.5 -104.5t-103.5 -325.5v-381q0 -426 395 -426q248 0 402 174h28l66 -82q-80 -98 -201.5 -153.5t-259.5 -61.5l-29 -79q40 12 86 12 q69 0 117.5 -31t48.5 -92q0 -55 -43.5 -91.5t-109.5 -51.5t-152 -15q-132 0 -242 43l25 82q122 -43 211 -43q139 0 139 64q0 27 -19 41t-48 14q-50 0 -88 -35l-64 33l51 154q-137 13 -252.5 68.5t-201 147.5t-133.5 226t-48 295z" />
<glyph unicode="&#xc8;" horiz-adv-x="1384" d="M201 0v1434h983l49 -123h-746v-500h557v-123h-557v-565h797l-49 -123h-1034zM342 1839v25h242l184 -328h-111z" />
<glyph unicode="&#xc9;" horiz-adv-x="1384" d="M201 0v1434h983l49 -123h-746v-500h557v-123h-557v-565h797l-49 -123h-1034zM662 1536l184 328h241v-25l-315 -303h-110z" />
<glyph unicode="&#xca;" horiz-adv-x="1384" d="M201 0v1434h983l49 -123h-746v-500h557v-123h-557v-565h797l-49 -123h-1034zM383 1536l186 328h291l187 -328h-103l-229 236l-228 -236h-104z" />
<glyph unicode="&#xcb;" horiz-adv-x="1384" d="M201 0v1434h983l49 -123h-746v-500h557v-123h-557v-565h797l-49 -123h-1034zM365 1708q0 60 40.5 97.5t104.5 37.5t104.5 -37.5t40.5 -97.5t-40 -96.5t-105 -36.5t-105 36.5t-40 96.5zM774 1708q0 60 40.5 97.5t105.5 37.5t106 -37.5t41 -97.5t-41 -96.5t-106 -36.5 t-105.5 36.5t-40.5 96.5z" />
<glyph unicode="&#xcc;" horiz-adv-x="684" d="M-31 1839v25h242l184 -328h-110zM201 0v1434h282v-1434h-282z" />
<glyph unicode="&#xcd;" horiz-adv-x="684" d="M201 0v1434h282v-1434h-282zM289 1536l184 328h242v-25l-316 -303h-110z" />
<glyph unicode="&#xce;" horiz-adv-x="684" d="M10 1536l187 328h290l187 -328h-103l-229 236l-227 -236h-105zM201 0v1434h282v-1434h-282z" />
<glyph unicode="&#xcf;" horiz-adv-x="684" d="M-8 1708q0 60 40.5 97.5t104.5 37.5q65 0 105.5 -37.5t40.5 -97.5t-40.5 -96.5t-105.5 -36.5t-105 36.5t-40 96.5zM201 0v1434h282v-1434h-282zM401 1708q0 60 40.5 97.5t105.5 37.5t106 -37.5t41 -97.5t-41 -96.5t-106 -36.5t-105.5 36.5t-40.5 96.5z" />
<glyph unicode="&#xd0;" horiz-adv-x="1556" d="M45 680v125h156v629h583q316 0 493 -190t177 -527t-177 -527t-493 -190h-583v680h-156zM483 125h303q176 0 265.5 91.5t89.5 299.5v397q0 214 -89 305t-266 91h-303v-504h250v-125h-250v-555z" />
<glyph unicode="&#xd1;" horiz-adv-x="1527" d="M201 0v1434h319l672 -942v942h133v-1434h-131l-860 1200v-1200h-133zM434 1536q0 145 54 241.5t153 96.5q42 0 79 -20.5t62.5 -50t48 -58.5t46.5 -49.5t47 -20.5q40 0 60 50.5t20 138.5h90q0 -147 -54 -243.5t-153 -96.5q-42 0 -79 20t-62.5 48.5t-48 57t-46.5 48.5 t-47 20q-80 0 -80 -182h-90z" />
<glyph unicode="&#xd2;" horiz-adv-x="1583" d="M100 717q0 174 54 316t148 234t219.5 141.5t269.5 49.5q145 0 270.5 -49.5t219 -141.5t147 -233.5t53.5 -316.5q0 -173 -53.5 -314.5t-147 -234.5t-219 -143t-270.5 -50q-144 0 -269.5 50t-219.5 143t-148 234.5t-54 314.5zM420 1839v25h242l184 -328h-111zM422 508 q0 -217 95.5 -313.5t273.5 -96.5q179 0 274.5 96.5t95.5 313.5v418q0 217 -95.5 313t-274.5 96q-178 0 -273.5 -96.5t-95.5 -312.5v-418z" />
<glyph unicode="&#xd3;" horiz-adv-x="1583" d="M100 717q0 174 54 316t148 234t219.5 141.5t269.5 49.5q145 0 270.5 -49.5t219 -141.5t147 -233.5t53.5 -316.5q0 -173 -53.5 -314.5t-147 -234.5t-219 -143t-270.5 -50q-144 0 -269.5 50t-219.5 143t-148 234.5t-54 314.5zM422 508q0 -217 95.5 -313.5t273.5 -96.5 q179 0 274.5 96.5t95.5 313.5v418q0 217 -95.5 313t-274.5 96q-178 0 -273.5 -96.5t-95.5 -312.5v-418zM737 1536l185 328h241v-25l-315 -303h-111z" />
<glyph unicode="&#xd4;" horiz-adv-x="1583" d="M100 717q0 174 54 316t148 234t219.5 141.5t269.5 49.5q145 0 270.5 -49.5t219 -141.5t147 -233.5t53.5 -316.5q0 -173 -53.5 -314.5t-147 -234.5t-219 -143t-270.5 -50q-144 0 -269.5 50t-219.5 143t-148 234.5t-54 314.5zM422 508q0 -217 95.5 -313.5t273.5 -96.5 q179 0 274.5 96.5t95.5 313.5v418q0 217 -95.5 313t-274.5 96q-178 0 -273.5 -96.5t-95.5 -312.5v-418zM459 1536l186 328h291l186 -328h-102l-229 236l-228 -236h-104z" />
<glyph unicode="&#xd5;" horiz-adv-x="1583" d="M100 717q0 174 54 316t148 234t219.5 141.5t269.5 49.5q145 0 270.5 -49.5t219 -141.5t147 -233.5t53.5 -316.5q0 -173 -53.5 -314.5t-147 -234.5t-219 -143t-270.5 -50q-144 0 -269.5 50t-219.5 143t-148 234.5t-54 314.5zM422 508q0 -217 95.5 -313.5t273.5 -96.5 q179 0 274.5 96.5t95.5 313.5v418q0 217 -95.5 313t-274.5 96q-178 0 -273.5 -96.5t-95.5 -312.5v-418zM463 1536q0 145 54 241.5t153 96.5q42 0 78.5 -20.5t62 -50t48 -58.5t46.5 -49.5t47 -20.5q40 0 60 50.5t20 138.5h90q0 -147 -54 -243.5t-153 -96.5q-42 0 -78.5 20 t-62 48.5t-48 57t-46.5 48.5t-47 20q-80 0 -80 -182h-90z" />
<glyph unicode="&#xd6;" horiz-adv-x="1583" d="M100 717q0 174 54 316t148 234t219.5 141.5t269.5 49.5q145 0 270.5 -49.5t219 -141.5t147 -233.5t53.5 -316.5q0 -173 -53.5 -314.5t-147 -234.5t-219 -143t-270.5 -50q-144 0 -269.5 50t-219.5 143t-148 234.5t-54 314.5zM422 508q0 -217 95.5 -313.5t273.5 -96.5 q179 0 274.5 96.5t95.5 313.5v418q0 217 -95.5 313t-274.5 96q-178 0 -273.5 -96.5t-95.5 -312.5v-418zM440 1708q0 60 40.5 97.5t105.5 37.5q64 0 104.5 -37.5t40.5 -97.5t-40 -96.5t-105 -36.5t-105.5 36.5t-40.5 96.5zM850 1708q0 60 40.5 97.5t104.5 37.5 q65 0 106.5 -37.5t41.5 -97.5t-41.5 -96.5t-106.5 -36.5t-105 36.5t-40 96.5z" />
<glyph unicode="&#xd7;" horiz-adv-x="1202" d="M141 895l78 76l383 -381l381 381l78 -76l-383 -383l381 -381l-76 -78l-381 383l-383 -383l-76 78l381 381z" />
<glyph unicode="&#xd8;" horiz-adv-x="1583" d="M100 717q0 174 54 316t148 234t219.5 141.5t269.5 49.5q235 0 407 -123l76 99h149l-135 -174q193 -206 193 -543q0 -173 -53.5 -314.5t-147 -234.5t-219 -143t-270.5 -50q-232 0 -406 123l-78 -98h-149l137 176q-93 96 -144 233.5t-51 307.5zM422 508q0 -90 14 -150 l658 844q-89 133 -303 133q-178 0 -273.5 -96.5t-95.5 -312.5v-418zM487 231q89 -133 304 -133q179 0 274.5 96.5t95.5 313.5v418q0 76 -14 151z" />
<glyph unicode="&#xd9;" horiz-adv-x="1525" d="M201 446v988h282v-994q0 -92 27.5 -159.5t78 -105.5t114 -55.5t143.5 -17.5q76 0 137.5 17.5t110.5 55.5t75.5 104.5t26.5 158.5v996h129v-990q0 -469 -528 -469q-151 0 -267 36.5t-187 101t-106.5 149t-35.5 184.5zM432 1839v25h242l184 -328h-110z" />
<glyph unicode="&#xda;" horiz-adv-x="1525" d="M201 446v988h282v-994q0 -92 27.5 -159.5t78 -105.5t114 -55.5t143.5 -17.5q76 0 137.5 17.5t110.5 55.5t75.5 104.5t26.5 158.5v996h129v-990q0 -469 -528 -469q-151 0 -267 36.5t-187 101t-106.5 149t-35.5 184.5zM752 1536l184 328h242v-25l-316 -303h-110z" />
<glyph unicode="&#xdb;" horiz-adv-x="1525" d="M201 446v988h282v-994q0 -92 27.5 -159.5t78 -105.5t114 -55.5t143.5 -17.5q76 0 137.5 17.5t110.5 55.5t75.5 104.5t26.5 158.5v996h129v-990q0 -469 -528 -469q-151 0 -267 36.5t-187 101t-106.5 149t-35.5 184.5zM473 1536l186 328h291l187 -328h-103l-229 236 l-227 -236h-105z" />
<glyph unicode="&#xdc;" horiz-adv-x="1525" d="M201 446v988h282v-994q0 -92 27.5 -159.5t78 -105.5t114 -55.5t143.5 -17.5q76 0 137.5 17.5t110.5 55.5t75.5 104.5t26.5 158.5v996h129v-990q0 -469 -528 -469q-151 0 -267 36.5t-187 101t-106.5 149t-35.5 184.5zM455 1708q0 60 40.5 97.5t104.5 37.5t104.5 -37.5 t40.5 -97.5t-40 -96.5t-105 -36.5t-105 36.5t-40 96.5zM864 1708q0 60 40.5 97.5t105.5 37.5t106 -37.5t41 -97.5t-41 -96.5t-106 -36.5t-105.5 36.5t-40.5 96.5z" />
<glyph unicode="&#xdd;" d="M47 1434h344l449 -629l448 629h160l-559 -797v-637h-281v635zM729 1536l184 328h242v-25l-315 -303h-111z" />
<glyph unicode="&#xde;" horiz-adv-x="1517" d="M201 0v1434h282v-291h391q268 0 404.5 -92t136.5 -301q0 -418 -541 -418h-391v-332h-282zM483 455h391q228 0 228 243v86q0 125 -59 180.5t-169 55.5h-391v-565z" />
<glyph unicode="&#xdf;" horiz-adv-x="1353" d="M45 909v115h172v119q0 155 116 235t335 80q215 0 323.5 -71t108.5 -185q0 -170 -201 -229q173 -44 270 -164t97 -311q0 -239 -148 -374.5t-381 -135.5q-56 0 -110 12v111q35 -9 78 -9q132 0 205 73t73 216v219q0 148 -74 223.5t-207 75.5h-75v115h59q98 0 145.5 41 t47.5 127q0 72 -52 111.5t-149 39.5q-96 0 -143.5 -39t-47.5 -126v-1178h-270v909h-172z" />
<glyph unicode="&#xe0;" horiz-adv-x="1275" d="M88 336q0 166 117.5 259t308.5 93q198 0 320 -88v135q0 197 -224 197q-95 0 -192.5 -32.5t-169.5 -86.5h-19l-47 107q211 129 482 129q214 0 328 -87t114 -280v-682h-272v106q-131 -131 -336 -131q-186 0 -298 96t-112 265zM266 1430v24h242l184 -328h-110zM360 307 q0 -100 56.5 -156.5t148.5 -56.5q80 0 152.5 36.5t116.5 96.5v269q-40 34 -105.5 56.5t-134.5 22.5q-109 0 -171.5 -54t-62.5 -163v-51z" />
<glyph unicode="&#xe1;" horiz-adv-x="1275" d="M88 336q0 166 117.5 259t308.5 93q198 0 320 -88v135q0 197 -224 197q-95 0 -192.5 -32.5t-169.5 -86.5h-19l-47 107q211 129 482 129q214 0 328 -87t114 -280v-682h-272v106q-131 -131 -336 -131q-186 0 -298 96t-112 265zM360 307q0 -100 56.5 -156.5t148.5 -56.5 q80 0 152.5 36.5t116.5 96.5v269q-40 34 -105.5 56.5t-134.5 22.5q-109 0 -171.5 -54t-62.5 -163v-51zM586 1126l184 328h242v-24l-316 -304h-110z" />
<glyph unicode="&#xe2;" horiz-adv-x="1275" d="M88 336q0 166 117.5 259t308.5 93q198 0 320 -88v135q0 197 -224 197q-95 0 -192.5 -32.5t-169.5 -86.5h-19l-47 107q211 129 482 129q214 0 328 -87t114 -280v-682h-272v106q-131 -131 -336 -131q-186 0 -298 96t-112 265zM307 1126l187 328h290l187 -328h-103l-229 236 l-227 -236h-105zM360 307q0 -100 56.5 -156.5t148.5 -56.5q80 0 152.5 36.5t116.5 96.5v269q-40 34 -105.5 56.5t-134.5 22.5q-109 0 -171.5 -54t-62.5 -163v-51z" />
<glyph unicode="&#xe3;" horiz-adv-x="1275" d="M88 336q0 166 117.5 259t308.5 93q198 0 320 -88v135q0 197 -224 197q-95 0 -192.5 -32.5t-169.5 -86.5h-19l-47 107q211 129 482 129q214 0 328 -87t114 -280v-682h-272v106q-131 -131 -336 -131q-186 0 -298 96t-112 265zM309 1126q0 145 54 241.5t153 96.5 q42 0 79 -20.5t62.5 -49.5t48 -58t46.5 -49.5t47 -20.5q80 0 80 188h90q0 -147 -54 -243.5t-153 -96.5q-42 0 -79 20t-62.5 49t-48 57.5t-46.5 48.5t-47 20q-80 0 -80 -183h-90zM360 307q0 -100 56.5 -156.5t148.5 -56.5q80 0 152.5 36.5t116.5 96.5v269q-40 34 -105.5 56.5 t-134.5 22.5q-109 0 -171.5 -54t-62.5 -163v-51z" />
<glyph unicode="&#xe4;" horiz-adv-x="1275" d="M88 336q0 166 117.5 259t308.5 93q198 0 320 -88v135q0 197 -224 197q-95 0 -192.5 -32.5t-169.5 -86.5h-19l-47 107q211 129 482 129q214 0 328 -87t114 -280v-682h-272v106q-131 -131 -336 -131q-186 0 -298 96t-112 265zM287 1298q0 60 40.5 98t104.5 38t105 -38 t41 -98t-40.5 -96.5t-105.5 -36.5t-105 36.5t-40 96.5zM360 307q0 -100 56.5 -156.5t148.5 -56.5q80 0 152.5 36.5t116.5 96.5v269q-40 34 -105.5 56.5t-134.5 22.5q-109 0 -171.5 -54t-62.5 -163v-51zM696 1298q0 60 41 98t105 38q65 0 106 -38t41 -98t-41 -96.5 t-106 -36.5t-105.5 36.5t-40.5 96.5z" />
<glyph unicode="&#xe5;" horiz-adv-x="1275" d="M88 336q0 166 117.5 259t308.5 93q198 0 320 -88v135q0 197 -224 197q-95 0 -192.5 -32.5t-169.5 -86.5h-19l-47 107q211 129 482 129q214 0 328 -87t114 -280v-682h-272v106q-131 -131 -336 -131q-186 0 -298 96t-112 265zM360 307q0 -100 56.5 -156.5t148.5 -56.5 q80 0 152.5 36.5t116.5 96.5v269q-40 34 -105.5 56.5t-134.5 22.5q-109 0 -171.5 -54t-62.5 -163v-51zM461 1309q0 72 52 124t124 52t125 -52t53 -124t-53 -125.5t-125 -53.5t-124 53.5t-52 125.5zM541 1309q0 -41 28 -70t68 -29q41 0 68.5 28.5t27.5 70.5q0 40 -27.5 68 t-68.5 28q-40 0 -68 -28t-28 -68z" />
<glyph unicode="&#xe6;" horiz-adv-x="2000" d="M88 336q0 166 117.5 259t308.5 93q198 0 320 -88v135q0 105 -57.5 151t-166.5 46q-96 0 -193.5 -32.5t-168.5 -86.5h-19l-47 107q211 129 461 129q144 0 231 -44.5t123 -142.5q130 187 404 187q108 0 201.5 -36t162 -103t107.5 -168t39 -224v-37h-805v-96 q0 -295 328 -295q101 0 198 36.5t156 100.5h24l68 -82q-97 -86 -209.5 -128t-257.5 -42q-332 0 -477 193q-161 -193 -426 -193q-194 0 -308 95.5t-114 265.5zM360 307q0 -102 56.5 -158.5t148.5 -56.5q77 0 148.5 35.5t120.5 103.5v265q-40 34 -105.5 56.5t-134.5 22.5 q-109 0 -171.5 -54t-62.5 -163v-51zM1106 594h541v39q0 151 -72.5 226t-196.5 75t-198 -75t-74 -226v-39z" />
<glyph unicode="&#xe7;" horiz-adv-x="1105" d="M88 512q0 252 153.5 394.5t407.5 142.5q128 0 226.5 -37.5t181.5 -122.5l-74 -101h-22q-51 69 -133.5 107.5t-170.5 38.5q-135 0 -210.5 -77.5t-75.5 -223.5v-242q0 -146 75.5 -223.5t210.5 -77.5q92 0 177.5 34t138.5 95h22l62 -84q-151 -151 -373 -160l-29 -79 q40 12 86 12q69 0 117.5 -31t48.5 -92q0 -55 -43.5 -91.5t-109.5 -51.5t-152 -15q-132 0 -242 43l25 82q122 -43 211 -43q139 0 139 64q0 27 -19 41t-48 14q-50 0 -88 -35l-64 33l51 154q-220 24 -349.5 163.5t-129.5 368.5z" />
<glyph unicode="&#xe8;" horiz-adv-x="1265" d="M88 512q0 251 153.5 394t401.5 143q239 0 387 -141.5t148 -389.5v-37h-807v-96q0 -295 327 -295q103 0 200.5 36.5t156.5 100.5h22l68 -82q-95 -86 -207.5 -128t-257.5 -42q-274 0 -433 142t-159 395zM270 1430v24h242l184 -328h-110zM371 594h540v39q0 152 -71.5 226.5 t-196.5 74.5q-124 0 -198 -75t-74 -226v-39z" />
<glyph unicode="&#xe9;" horiz-adv-x="1265" d="M88 512q0 251 153.5 394t401.5 143q239 0 387 -141.5t148 -389.5v-37h-807v-96q0 -295 327 -295q103 0 200.5 36.5t156.5 100.5h22l68 -82q-95 -86 -207.5 -128t-257.5 -42q-274 0 -433 142t-159 395zM371 594h540v39q0 152 -71.5 226.5t-196.5 74.5q-124 0 -198 -75 t-74 -226v-39zM590 1126l184 328h242v-24l-316 -304h-110z" />
<glyph unicode="&#xea;" horiz-adv-x="1265" d="M88 512q0 251 153.5 394t401.5 143q239 0 387 -141.5t148 -389.5v-37h-807v-96q0 -295 327 -295q103 0 200.5 36.5t156.5 100.5h22l68 -82q-95 -86 -207.5 -128t-257.5 -42q-274 0 -433 142t-159 395zM311 1126l187 328h290l187 -328h-103l-229 236l-227 -236h-105z M371 594h540v39q0 152 -71.5 226.5t-196.5 74.5q-124 0 -198 -75t-74 -226v-39z" />
<glyph unicode="&#xeb;" horiz-adv-x="1265" d="M88 512q0 251 153.5 394t401.5 143q239 0 387 -141.5t148 -389.5v-37h-807v-96q0 -295 327 -295q103 0 200.5 36.5t156.5 100.5h22l68 -82q-95 -86 -207.5 -128t-257.5 -42q-274 0 -433 142t-159 395zM291 1298q0 60 40.5 98t104.5 38t105 -38t41 -98t-40.5 -96.5 t-105.5 -36.5t-105 36.5t-40 96.5zM371 594h540v39q0 152 -71.5 226.5t-196.5 74.5q-124 0 -198 -75t-74 -226v-39zM700 1298q0 60 41 98t105 38q65 0 106 -38t41 -98t-41 -96.5t-106 -36.5t-105.5 36.5t-40.5 96.5z" />
<glyph unicode="&#xec;" horiz-adv-x="612" d="M-66 1430v24h242l184 -328h-110zM170 0v1024h272v-1024h-272z" />
<glyph unicode="&#xed;" horiz-adv-x="612" d="M170 0v1024h272v-1024h-272zM254 1126l184 328h242v-24l-315 -304h-111z" />
<glyph unicode="&#xee;" horiz-adv-x="612" d="M-25 1126l187 328h291l186 -328h-102l-230 236l-227 -236h-105zM170 0v1024h272v-1024h-272z" />
<glyph unicode="&#xef;" horiz-adv-x="612" d="M-45 1298q0 60 40.5 98t104.5 38t105 -38t41 -98t-40.5 -96.5t-105.5 -36.5t-105 36.5t-40 96.5zM170 0v1024h272v-1024h-272zM365 1298q0 60 40.5 98t104.5 38q65 0 106 -38t41 -98t-41 -96.5t-106 -36.5t-105 36.5t-40 96.5z" />
<glyph unicode="&#xf0;" horiz-adv-x="1286" d="M88 512q0 251 147.5 394t385.5 143q133 0 235 -60q-72 131 -219 223l-422 -110l-27 94l320 82q-140 59 -320 86l17 96q283 -30 491 -133l355 92l28 -92l-260 -67q185 -121 282 -295t97 -379q0 -147 -41 -263.5t-115 -192t-175 -115.5t-222 -40q-251 0 -404 143t-153 394z M371 381q0 -148 73 -219.5t199 -71.5q125 0 198.5 72.5t73.5 220.5v260q0 148 -73 219.5t-199 71.5t-199 -71.5t-73 -219.5v-262z" />
<glyph unicode="&#xf1;" horiz-adv-x="1331" d="M170 0v1024h272v-150q198 175 408 175q150 0 230.5 -74.5t80.5 -216.5v-758h-272v750q0 153 -135 153q-70 0 -157 -42.5t-155 -106.5v-754h-272zM336 1126q0 145 54 241.5t153 96.5q42 0 78.5 -20.5t62 -49.5t48 -58t46.5 -49.5t47 -20.5q80 0 80 188h90 q0 -147 -54 -243.5t-153 -96.5q-42 0 -78.5 20t-62 49t-48 57.5t-46.5 48.5t-47 20q-80 0 -80 -183h-90z" />
<glyph unicode="&#xf2;" horiz-adv-x="1286" d="M88 512q0 252 152.5 394.5t402.5 142.5t402.5 -142.5t152.5 -394.5t-152.5 -394.5t-402.5 -142.5t-402.5 142.5t-152.5 394.5zM270 1430v24h242l184 -328h-110zM371 381q0 -148 73 -219.5t199 -71.5t199 72.5t73 220.5v260q0 148 -73 219.5t-199 71.5t-199 -71.5 t-73 -219.5v-262z" />
<glyph unicode="&#xf3;" horiz-adv-x="1286" d="M88 512q0 252 152.5 394.5t402.5 142.5t402.5 -142.5t152.5 -394.5t-152.5 -394.5t-402.5 -142.5t-402.5 142.5t-152.5 394.5zM371 381q0 -148 73 -219.5t199 -71.5t199 72.5t73 220.5v260q0 148 -73 219.5t-199 71.5t-199 -71.5t-73 -219.5v-262zM590 1126l184 328h242 v-24l-316 -304h-110z" />
<glyph unicode="&#xf4;" horiz-adv-x="1286" d="M88 512q0 252 152.5 394.5t402.5 142.5t402.5 -142.5t152.5 -394.5t-152.5 -394.5t-402.5 -142.5t-402.5 142.5t-152.5 394.5zM311 1126l187 328h290l187 -328h-103l-229 236l-227 -236h-105zM371 381q0 -148 73 -219.5t199 -71.5t199 72.5t73 220.5v260q0 148 -73 219.5 t-199 71.5t-199 -71.5t-73 -219.5v-262z" />
<glyph unicode="&#xf5;" horiz-adv-x="1286" d="M88 512q0 252 152.5 394.5t402.5 142.5t402.5 -142.5t152.5 -394.5t-152.5 -394.5t-402.5 -142.5t-402.5 142.5t-152.5 394.5zM313 1126q0 145 54 241.5t153 96.5q42 0 79 -20.5t62.5 -49.5t48 -58t46.5 -49.5t47 -20.5q80 0 80 188h90q0 -147 -54 -243.5t-153 -96.5 q-42 0 -79 20t-62.5 49t-48 57.5t-46.5 48.5t-47 20q-80 0 -80 -183h-90zM371 381q0 -148 73 -219.5t199 -71.5t199 72.5t73 220.5v260q0 148 -73 219.5t-199 71.5t-199 -71.5t-73 -219.5v-262z" />
<glyph unicode="&#xf6;" horiz-adv-x="1286" d="M88 512q0 252 152.5 394.5t402.5 142.5t402.5 -142.5t152.5 -394.5t-152.5 -394.5t-402.5 -142.5t-402.5 142.5t-152.5 394.5zM293 1298q0 60 40.5 98t104.5 38t105 -38t41 -98t-40.5 -96.5t-105.5 -36.5t-105 36.5t-40 96.5zM371 381q0 -148 73 -219.5t199 -71.5 t199 72.5t73 220.5v260q0 148 -73 219.5t-199 71.5t-199 -71.5t-73 -219.5v-262zM702 1298q0 60 41 98t105 38q65 0 106 -38t41 -98t-41 -96.5t-106 -36.5t-105.5 36.5t-40.5 96.5z" />
<glyph unicode="&#xf7;" horiz-adv-x="1202" d="M88 457v110h1024v-110h-1024zM451 125q0 63 42.5 106t106.5 43q66 0 109 -43t43 -106t-43 -105.5t-109 -42.5q-64 0 -106.5 42.5t-42.5 105.5zM451 899q0 63 42.5 105.5t106.5 42.5q66 0 109 -42.5t43 -105.5t-43 -106t-109 -43q-64 0 -106.5 43t-42.5 106z" />
<glyph unicode="&#xf8;" horiz-adv-x="1286" d="M88 512q0 252 152.5 394.5t402.5 142.5q186 0 322 -82l51 57h160l-117 -131q139 -145 139 -381q0 -252 -152.5 -394.5t-402.5 -142.5q-185 0 -321 82l-52 -57h-159l116 131q-139 145 -139 381zM371 381q0 -43 6 -80l481 545q-73 88 -215 88q-126 0 -199 -71.5t-73 -219.5 v-262zM428 178q73 -88 215 -88q126 0 199 72.5t73 220.5v260q0 43 -6 80z" />
<glyph unicode="&#xf9;" horiz-adv-x="1331" d="M170 266v758h272v-750q0 -153 138 -153q68 0 154.5 42.5t154.5 106.5v754h272v-1024h-272v150q-198 -175 -406 -175q-151 0 -232 74.5t-81 216.5zM293 1430v24h242l184 -328h-111z" />
<glyph unicode="&#xfa;" horiz-adv-x="1331" d="M170 266v758h272v-750q0 -153 138 -153q68 0 154.5 42.5t154.5 106.5v754h272v-1024h-272v150q-198 -175 -406 -175q-151 0 -232 74.5t-81 216.5zM612 1126l185 328h241v-24l-315 -304h-111z" />
<glyph unicode="&#xfb;" horiz-adv-x="1331" d="M170 266v758h272v-750q0 -153 138 -153q68 0 154.5 42.5t154.5 106.5v754h272v-1024h-272v150q-198 -175 -406 -175q-151 0 -232 74.5t-81 216.5zM334 1126l186 328h291l186 -328h-102l-229 236l-228 -236h-104z" />
<glyph unicode="&#xfc;" horiz-adv-x="1331" d="M170 266v758h272v-750q0 -153 138 -153q68 0 154.5 42.5t154.5 106.5v754h272v-1024h-272v150q-198 -175 -406 -175q-151 0 -232 74.5t-81 216.5zM315 1298q0 60 41 98t105 38t104.5 -38t40.5 -98t-40 -96.5t-105 -36.5t-105.5 36.5t-40.5 96.5zM725 1298q0 60 40.5 98 t104.5 38q65 0 106.5 -38t41.5 -98t-41.5 -96.5t-106.5 -36.5t-105 36.5t-40 96.5z" />
<glyph unicode="&#xfd;" horiz-adv-x="1091" d="M23 1024h294l314 -713l311 713h127l-477 -1098q-68 -156 -162.5 -227.5t-236.5 -71.5l-41 111l14 16q115 0 190 50t129 171zM524 1126l185 328h241v-24l-315 -304h-111z" />
<glyph unicode="&#xfe;" horiz-adv-x="1308" d="M170 -348v1782h272v-514q117 129 320 129q94 0 177 -36.5t145.5 -103.5t98.5 -169.5t36 -227.5t-36 -227.5t-98 -169.5t-145 -103.5t-178 -36.5q-203 0 -320 129v-452h-272zM442 240q44 -69 112.5 -106.5t147.5 -37.5q234 0 234 295v246q0 81 -19.5 140t-53.5 90.5 t-73.5 46t-87.5 14.5q-79 0 -147.5 -37.5t-112.5 -106.5v-544z" />
<glyph unicode="&#xff;" horiz-adv-x="1091" d="M23 1024h294l314 -713l311 713h127l-477 -1098q-68 -156 -162.5 -227.5t-236.5 -71.5l-41 111l14 16q115 0 190 50t129 171zM227 1298q0 60 41 98t105 38t104.5 -38t40.5 -98t-40 -96.5t-105 -36.5t-105.5 36.5t-40.5 96.5zM637 1298q0 60 40.5 98t104.5 38 q65 0 106.5 -38t41.5 -98t-41.5 -96.5t-106.5 -36.5t-105 36.5t-40 96.5z" />
<glyph unicode="&#x152;" horiz-adv-x="2344" d="M100 717q0 174 53.5 316t145.5 234t214.5 141.5t262.5 49.5q249 0 385 -174v150h983l47 -123h-743v-500h557v-123h-557v-565h795l-48 -123h-1034v152q-139 -177 -385 -177q-140 0 -262.5 50t-214.5 142.5t-145.5 234.5t-53.5 315zM422 508q0 -217 95.5 -313.5 t273.5 -96.5q179 0 274.5 96.5t95.5 313.5v418q0 217 -95.5 313t-274.5 96q-178 0 -273.5 -96.5t-95.5 -312.5v-418z" />
<glyph unicode="&#x153;" horiz-adv-x="2093" d="M88 512q0 168 71 290.5t194.5 184.5t285.5 62q136 0 244 -51.5t174 -147.5q67 97 175 148t243 51q236 0 382 -141.5t146 -389.5v-37h-805v-96q0 -295 328 -295q102 0 199.5 37t156.5 100h23l67 -82q-188 -170 -461 -170q-152 0 -267.5 51.5t-184.5 149.5 q-67 -98 -175 -149.5t-245 -51.5q-162 0 -285.5 62t-194.5 184.5t-71 290.5zM371 381q0 -148 73 -219.5t199 -71.5t199 72.5t73 220.5v260q0 148 -73 219.5t-199 71.5t-199 -71.5t-73 -219.5v-262zM1198 594h541v39q0 151 -72.5 226t-196.5 75t-198 -75t-74 -226v-39z" />
<glyph unicode="&#x178;" d="M47 1434h344l449 -629l448 629h160l-559 -797v-637h-281v635zM432 1708q0 60 40.5 97.5t105.5 37.5q64 0 104.5 -37.5t40.5 -97.5t-40 -96.5t-105 -36.5t-105.5 36.5t-40.5 96.5zM842 1708q0 60 40.5 97.5t104.5 37.5q65 0 106.5 -37.5t41.5 -97.5t-41.5 -96.5 t-106.5 -36.5t-105 36.5t-40 96.5z" />
<glyph unicode="&#x2c6;" horiz-adv-x="827" d="M82 1126l186 328h291l186 -328h-102l-229 236l-228 -236h-104z" />
<glyph unicode="&#x2dc;" horiz-adv-x="823" d="M82 1126q0 145 54 241.5t153 96.5q42 0 78.5 -20.5t62 -49.5t48 -58t46.5 -49.5t47 -20.5q80 0 80 188h90q0 -95 -22.5 -170.5t-70 -122.5t-113.5 -47q-42 0 -79 20t-62.5 49t-48 57.5t-46.5 48.5t-47 20q-80 0 -80 -183h-90z" />
<glyph unicode="&#x2000;" horiz-adv-x="947" />
<glyph unicode="&#x2001;" horiz-adv-x="1894" />
<glyph unicode="&#x2002;" horiz-adv-x="947" />
<glyph unicode="&#x2003;" horiz-adv-x="1894" />
<glyph unicode="&#x2004;" horiz-adv-x="631" />
<glyph unicode="&#x2005;" horiz-adv-x="473" />
<glyph unicode="&#x2006;" horiz-adv-x="315" />
<glyph unicode="&#x2007;" horiz-adv-x="315" />
<glyph unicode="&#x2008;" horiz-adv-x="236" />
<glyph unicode="&#x2009;" horiz-adv-x="378" />
<glyph unicode="&#x200a;" horiz-adv-x="105" />
<glyph unicode="&#x2010;" horiz-adv-x="804" d="M88 424v176h629v-176h-629z" />
<glyph unicode="&#x2011;" horiz-adv-x="804" d="M88 424v176h629v-176h-629z" />
<glyph unicode="&#x2012;" horiz-adv-x="804" d="M88 424v176h629v-176h-629z" />
<glyph unicode="&#x2013;" horiz-adv-x="1318" d="M88 457v110h1141v-110h-1141z" />
<glyph unicode="&#x2014;" horiz-adv-x="1978" d="M88 457v110h1800v-110h-1800z" />
<glyph unicode="&#x2018;" horiz-adv-x="638" d="M150 1012q0 131 95.5 258t235.5 184l37 -59q-74 -46 -125.5 -113.5t-66.5 -138.5q73 0 118 -49.5t45 -114.5q0 -72 -49 -119t-121 -47q-71 0 -120 53.5t-49 145.5z" />
<glyph unicode="&#x2019;" horiz-adv-x="638" d="M121 872q74 46 125.5 113.5t66.5 138.5q-72 0 -117.5 48.5t-45.5 113.5q0 73 49 120.5t120 47.5t120.5 -53.5t49.5 -145.5q0 -131 -95.5 -258t-235.5 -184z" />
<glyph unicode="&#x201a;" horiz-adv-x="638" d="M121 -274q73 46 124 113t68 141q-72 0 -117.5 48t-45.5 113q0 73 49 120.5t120 47.5t120.5 -54t49.5 -144q0 -132 -95 -259t-236 -186z" />
<glyph unicode="&#x201c;" horiz-adv-x="1085" d="M150 1012q0 131 95.5 258t235.5 184l37 -59q-74 -46 -125.5 -113.5t-66.5 -138.5q73 0 118 -49.5t45 -114.5q0 -72 -49 -119t-121 -47q-71 0 -120 53.5t-49 145.5zM596 1012q0 131 96 258t236 184l37 -59q-74 -46 -126 -113.5t-67 -138.5q72 0 118 -49.5t46 -114.5 q0 -72 -49 -119t-121 -47q-71 0 -120.5 53.5t-49.5 145.5z" />
<glyph unicode="&#x201d;" horiz-adv-x="1085" d="M121 872q74 46 125.5 113.5t66.5 138.5q-72 0 -117.5 48.5t-45.5 113.5q0 73 49 120.5t120 47.5t120.5 -53.5t49.5 -145.5q0 -131 -95.5 -258t-235.5 -184zM567 872q74 46 126 113.5t67 138.5q-72 0 -118 48.5t-46 113.5q0 73 49.5 120.5t120.5 47.5t120.5 -53.5 t49.5 -145.5q0 -131 -96 -258t-236 -184z" />
<glyph unicode="&#x201e;" horiz-adv-x="1085" d="M121 -274q73 46 124 113t68 141q-72 0 -117.5 48t-45.5 113q0 73 49 120.5t120 47.5t120.5 -54t49.5 -144q0 -132 -95 -259t-236 -186zM567 -274q73 46 124.5 113t68.5 141q-72 0 -118 48.5t-46 112.5q0 73 49.5 120.5t120.5 47.5t120.5 -54t49.5 -144q0 -132 -95.5 -259 t-236.5 -186z" />
<glyph unicode="&#x2022;" horiz-adv-x="808" d="M150 512q0 106 72 178t181 72t182.5 -72t73.5 -178t-73.5 -177t-182.5 -71q-110 0 -181.5 71t-71.5 177z" />
<glyph unicode="&#x2026;" horiz-adv-x="1914" d="M150 143q0 71 47.5 118.5t119.5 47.5q73 0 122.5 -47.5t49.5 -118.5t-49.5 -118.5t-122.5 -47.5q-72 0 -119.5 47.5t-47.5 118.5zM786 143q0 71 48.5 118.5t121.5 47.5t122.5 -47.5t49.5 -118.5t-49.5 -118.5t-122.5 -47.5t-121.5 47.5t-48.5 118.5zM1425 143 q0 71 48.5 118.5t121.5 47.5t121.5 -47.5t48.5 -118.5t-48.5 -118.5t-121.5 -47.5t-121.5 47.5t-48.5 118.5z" />
<glyph unicode="&#x202f;" horiz-adv-x="378" />
<glyph unicode="&#x2039;" horiz-adv-x="892" d="M178 512l316 393h170l-316 -393l316 -393h-170z" />
<glyph unicode="&#x203a;" horiz-adv-x="892" d="M229 119l316 393l-316 393h170l316 -393l-316 -393h-170z" />
<glyph unicode="&#x205f;" horiz-adv-x="473" />
<glyph unicode="&#x20ac;" horiz-adv-x="1239" d="M92 537v110h131q-2 23 -2 70q0 46 2 69h-131v111h141q40 259 187.5 410t361.5 151q128 0 226.5 -37.5t181.5 -122.5l-74 -100h-22q-52 71 -133.5 110.5t-169.5 39.5q-136 0 -211.5 -82.5t-75.5 -243.5v-125h446v-111h-446v-139h446v-110h-446v-125q0 -161 75.5 -243.5 t211.5 -82.5q92 0 177 35t138 98h22l62 -84q-160 -160 -408 -160q-213 0 -359.5 151t-186.5 411h-144z" />
<glyph unicode="&#x2122;" horiz-adv-x="1138" d="M55 1376v58h391v-58h-163v-372h-64v372h-164zM532 1004v430h86l160 -332l158 332h92v-430h-63v352l-166 -352h-43l-160 337v-337h-64z" />
<glyph unicode="&#x25fc;" horiz-adv-x="1024" d="M0 0v1024h1024v-1024h-1024z" />
<glyph unicode="&#xfb01;" horiz-adv-x="1474" d="M45 909v115h172v129q0 149 94 227t273 78q154 0 268 -57l-35 -105h-20q-68 47 -160 47q-80 0 -115 -31t-35 -116v-172h330v-115h-330v-909h-270v909h-172zM1012 1298q0 63 43 103.5t112 40.5t112.5 -40.5t43.5 -103.5t-43.5 -103t-112.5 -40t-112 40t-43 103zM1032 0 v1024h273v-1024h-273z" />
<glyph unicode="&#xfb02;" horiz-adv-x="1474" d="M45 909v115h172v129q0 149 94 227t273 78q154 0 268 -57l-35 -105h-20q-68 47 -160 47q-80 0 -115 -31t-35 -116v-172h330v-115h-330v-909h-270v909h-172zM1032 0v1434h273v-1434h-273z" />
</font>
</defs>
</svg>
