<?xml version="1.0" standalone="no"?>
<!DOCTYPE svg PUBLIC "-//W3C//DTD SVG 1.1//EN" "http://www.w3.org/Graphics/SVG/1.1/DTD/svg11.dtd" >
<svg xmlns="http://www.w3.org/2000/svg" xmlns:xlink="http://www.w3.org/1999/xlink" version="1.1">
<metadata></metadata>
<defs>
<font id="acme_gothic_widebold" horiz-adv-x="1556" >
<font-face units-per-em="2048" ascent="1659" descent="-389" />
<missing-glyph horiz-adv-x="546" />
<glyph horiz-adv-x="0" />
<glyph horiz-adv-x="682" />
<glyph unicode=" "  horiz-adv-x="546" />
<glyph unicode="&#x09;" horiz-adv-x="546" />
<glyph unicode="&#xa0;" horiz-adv-x="546" />
<glyph unicode="!" horiz-adv-x="686" d="M76 1434h534l-174 -906h-186zM106 201q0 97 66.5 159t169.5 62t170.5 -62.5t67.5 -158.5q0 -97 -67.5 -160.5t-170.5 -63.5t-169.5 63.5t-66.5 160.5z" />
<glyph unicode="&#x22;" horiz-adv-x="972" d="M61 743l283 691h201l-283 -691h-201zM428 743l281 691h200l-280 -691h-201z" />
<glyph unicode="#" horiz-adv-x="1675" d="M92 428l72 168h282l105 244h-283l74 166h281l184 428h184l-184 -428h311l185 428h182l-185 -428h283l-72 -166h-282l-105 -244h283l-72 -168h-282l-185 -428h-182l184 428h-313l-184 -428h-183l185 428h-283zM631 596h311l105 244h-312z" />
<glyph unicode="$" horiz-adv-x="1124" d="M39 332l82 139h24q156 -121 383 -121q174 0 174 96q0 36 -33.5 61.5t-87 42.5t-118 34t-129 42.5t-118 61t-87 97t-33.5 143.5q0 128 98 212t279 107v187h195v-183q195 -15 333 -112l-69 -146h-25q-131 90 -313 90q-170 0 -170 -84q0 -32 35.5 -54.5t92 -37.5t125 -30.5 t137.5 -40.5t125.5 -60.5t92 -97t35.5 -143.5q0 -149 -108 -236.5t-291 -110.5v-188h-195v182q-257 14 -434 150z" />
<glyph unicode="%" horiz-adv-x="2406" d="M43 1004q0 205 136 324.5t358 119.5q224 0 360.5 -119.5t136.5 -324.5q0 -204 -137 -324.5t-360 -120.5q-222 0 -358 120.5t-136 324.5zM381 831q0 -137 158 -137q157 0 157 140v337q0 142 -157 142q-158 0 -158 -142v-340zM559 0l1092 1434h196l-1089 -1434h-199z M1372 430q0 205 136 324.5t358 119.5q224 0 360.5 -119.5t136.5 -324.5q0 -204 -137 -324t-360 -120q-222 0 -358 120t-136 324zM1710 258q0 -137 158 -137q157 0 157 139v338q0 141 -157 141q-158 0 -158 -141v-340z" />
<glyph unicode="&#x26;" horiz-adv-x="1617" d="M78 381q0 81 26.5 147t82 120.5t125.5 98t173 91.5q-53 84 -72.5 171.5t-1 167.5t71 143t151.5 100.5t232 37.5q68 0 128 -12.5t114.5 -41t86.5 -82t32 -126.5q0 -188 -271 -324l248 -344l135 201h215l-239 -354l270 -375h-498l-63 88q-189 -113 -422 -113t-378.5 107.5 t-145.5 298.5zM452 539.5q-20 -92.5 52 -195.5l35 -51q74 -111 233 -111q82 0 154 41l-340 471q-114 -62 -134 -154.5zM780 1190q0 -66 76 -178q92 44 135 85t43 91q0 49 -33.5 76.5t-93.5 27.5q-59 0 -93 -29.5t-34 -72.5z" />
<glyph unicode="'" horiz-adv-x="606" d="M61 743l283 691h201l-283 -691h-201z" />
<glyph unicode="(" horiz-adv-x="821" d="M78 543q0 306 158 566t450 431l78 -102q-167 -177 -253.5 -409.5t-86.5 -485.5q0 -252 86.5 -485t253.5 -408l-78 -105q-292 172 -450 433t-158 565z" />
<glyph unicode=")" horiz-adv-x="821" d="M57 -350q167 175 254.5 408.5t87.5 484.5q0 252 -87.5 485t-254.5 410l78 102q292 -171 450 -431t158 -566q0 -304 -158 -565t-450 -433z" />
<glyph unicode="*" horiz-adv-x="718" d="M61 1051l170 84l-170 86l76 129l160 -107l-12 191h149l-12 -189l158 105l75 -129l-170 -86l170 -84l-75 -129l-158 102l12 -188h-149l12 190l-160 -104z" />
<glyph unicode="+" horiz-adv-x="1148" d="M61 428v168h431v428h165v-428h428v-168h-428v-428h-165v428h-431z" />
<glyph unicode="," horiz-adv-x="686" d="M106 197q0 97 69 160t167 63q99 0 168.5 -69.5t69.5 -182.5q0 -90 -35 -172.5t-94 -144.5t-126 -108t-141 -77l-55 86q145 99 182 225q-89 9 -147 72t-58 148z" />
<glyph unicode="-" horiz-adv-x="751" d="M61 397v230h629v-230h-629z" />
<glyph unicode="." horiz-adv-x="686" d="M106 201q0 97 66.5 159t169.5 62t170.5 -62.5t67.5 -158.5q0 -97 -67.5 -160.5t-170.5 -63.5t-169.5 63.5t-66.5 160.5z" />
<glyph unicode="/" horiz-adv-x="878" d="M-4 -102l704 1638h185l-707 -1638h-182z" />
<glyph unicode="0" horiz-adv-x="1624" d="M78 717q0 176 53.5 316.5t150.5 233.5t231.5 142t295.5 49t296 -49.5t233 -142t153 -233.5t55 -316q0 -174 -55 -315t-153 -234t-233 -143t-296 -50q-216 0 -380 86t-257.5 255t-93.5 401zM530 420q0 -258 283 -258q281 0 281 260v590q0 133 -73 197.5t-208 64.5 q-136 0 -209.5 -64.5t-73.5 -197.5v-592z" />
<glyph unicode="1" horiz-adv-x="1024" d="M39 1182l666 262h165v-1444h-424v1147l-342 -131z" />
<glyph unicode="2" horiz-adv-x="1269" d="M80 0v123l551 706q71 91 101 153t30 114q0 82 -60 132t-174 50q-198 0 -325 -143h-31l-92 159q84 78 210 121t275 43q276 0 435 -127.5t159 -337.5q0 -193 -158 -391l-327 -418h557l-72 -184h-1079z" />
<glyph unicode="3" horiz-adv-x="1368" d="M39 188l102 129h33q149 -155 397 -155q137 0 202 56t65 169v150q0 105 -48.5 158t-138.5 53q-101 0 -209 -60l-106 115l369 446h-611l72 185h1067v-123l-338 -412q197 -30 296 -143.5t99 -286.5q0 -227 -177.5 -360.5t-483.5 -133.5q-183 0 -337.5 53.5t-252.5 159.5z " />
<glyph unicode="4" horiz-adv-x="1325" d="M39 281v149l858 1014h219v-979h170v-184h-170v-281h-424v281h-653zM317 465h375v455z" />
<glyph unicode="5" horiz-adv-x="1368" d="M39 188l102 129h33q149 -155 397 -155q137 0 202 56t65 169v168q0 119 -66 178.5t-192 59.5q-208 0 -373 -103l-121 94l154 650h868l72 -185h-555l-72 -311q85 16 166 16q265 0 418 -122.5t153 -348.5q0 -236 -177 -372t-484 -136q-184 0 -337 53.5t-253 159.5z" />
<glyph unicode="6" horiz-adv-x="1536" d="M76 600q0 164 70 311t198.5 262.5t322.5 191.5t431 95l28 -151q-263 -44 -425 -183.5t-173 -302.5q159 95 408 95q150 0 267.5 -50t188 -152t70.5 -241q0 -237 -185.5 -368.5t-506.5 -131.5q-317 0 -505.5 170.5t-188.5 454.5zM528 391q0 -117 65.5 -173t176.5 -56 t176.5 53t65.5 166v113q0 233 -224 233q-74 0 -144 -26t-116 -64v-246z" />
<glyph unicode="7" horiz-adv-x="1277" d="M35 1249l74 185h1134v-127l-571 -1307h-471l544 1249h-710z" />
<glyph unicode="8" horiz-adv-x="1566" d="M78 412q0 284 317 379q-229 83 -229 311q0 159 165 257.5t451 98.5q284 0 451.5 -99t167.5 -257q0 -228 -230 -311q320 -96 320 -379q0 -105 -56.5 -189.5t-154.5 -138t-225.5 -81.5t-272.5 -28q-197 0 -353.5 48t-253.5 148.5t-97 240.5zM530 365q0 -98 66 -151.5 t186 -53.5t187 53.5t67 151.5v135q0 98 -66.5 150t-187.5 52t-186.5 -52t-65.5 -150v-135zM569 1042q0 -75 56 -116t157 -41q102 0 159.5 41t57.5 116v72q0 75 -58 117.5t-159 42.5t-157 -42.5t-56 -117.5v-72z" />
<glyph unicode="9" horiz-adv-x="1536" d="M74 961q0 237 185.5 367t508.5 130q316 0 504 -170.5t188 -453.5q0 -164 -70 -311.5t-198 -262.5t-322 -191.5t-430 -95.5l-28 152q261 44 423 183t173 302q-154 -92 -408 -92q-149 0 -266.5 50t-188.5 152t-71 241zM526 942q0 -124 57.5 -178.5t164.5 -54.5 q75 0 144.5 25t115.5 63v245q0 118 -65 174t-175 56q-111 0 -176.5 -53t-65.5 -166v-111z" />
<glyph unicode=":" horiz-adv-x="686" d="M106 201q0 97 66.5 159t169.5 62t170.5 -62.5t67.5 -158.5q0 -97 -67.5 -160.5t-170.5 -63.5t-169.5 63.5t-66.5 160.5zM106 864q0 97 66.5 159t169.5 62t170.5 -62.5t67.5 -158.5q0 -97 -67.5 -160t-170.5 -63t-169.5 63t-66.5 160z" />
<glyph unicode=";" horiz-adv-x="686" d="M106 197q0 97 69 160t167 63q99 0 168.5 -69.5t69.5 -182.5q0 -90 -35 -172.5t-94 -144.5t-126 -108t-141 -77l-55 86q145 99 182 225q-89 9 -147 72t-58 148zM106 864q0 97 66.5 159t169.5 62t170.5 -62.5t67.5 -158.5q0 -97 -67.5 -160t-170.5 -63t-169.5 63t-66.5 160 z" />
<glyph unicode="&#x3c;" horiz-adv-x="1148" d="M63 410v204l1024 435v-181l-843 -356l843 -356v-181z" />
<glyph unicode="=" horiz-adv-x="1148" d="M61 203v168h1024v-168h-1024zM61 653v168h1024v-168h-1024z" />
<glyph unicode="&#x3e;" horiz-adv-x="1148" d="M61 -25v181l844 356l-844 356v181l1024 -435v-204z" />
<glyph unicode="?" horiz-adv-x="983" d="M16 1350q164 108 430 108q226 0 351 -80t125 -225q0 -65 -25.5 -118t-66.5 -89t-90.5 -66.5t-99.5 -56.5t-91 -52.5t-66.5 -61.5t-25.5 -76q0 -39 20 -84l-190 -41q-107 107 -107 231q0 77 34.5 141t83.5 105.5t98 77t83.5 70.5t34.5 69q0 80 -123 80q-149 0 -264 -94 h-21zM147 201q0 97 65.5 159t168.5 62t170 -62t67 -159t-67 -160.5t-170 -63.5q-102 0 -168 63.5t-66 160.5z" />
<glyph unicode="@" horiz-adv-x="2142" d="M61 508q0 202 76.5 378.5t209.5 302t321 197.5t403 72q214 0 402 -68t321 -186.5t210 -285t77 -357.5q0 -282 -121.5 -434t-331.5 -152q-115 0 -206.5 39t-145.5 107q-140 -146 -385 -146q-93 0 -174.5 36.5t-143 103.5t-97.5 169.5t-36 227.5q0 251 136 394t356 143 q215 0 358 -140l195 127h121v-757q0 -132 106 -132q87 0 145 114.5t58 299.5q0 158 -64 296.5t-175.5 237t-268.5 155.5t-336 57q-239 0 -432.5 -103.5t-302.5 -286.5t-109 -409t109 -409t302.5 -286.5t432.5 -103.5q285 0 516 168l96 -121q-266 -198 -612 -198 q-215 0 -403 72t-321 197.5t-209.5 302t-76.5 378.5zM854 367q0 -103 47 -152t123 -49q53 0 101.5 25.5t82.5 76.5v492q-70 98 -186 98q-75 0 -121.5 -49t-46.5 -152v-290z" />
<glyph unicode="A" d="M39 0l616 1434h244l621 -1434h-465l-101 236h-602l-102 -236h-211zM430 420h444l-221 516z" />
<glyph unicode="B" horiz-adv-x="1585" d="M154 0v1434h671q294 0 443 -85t149 -284q0 -127 -68.5 -201t-199.5 -108q172 -36 258 -124t86 -243q0 -212 -157 -300.5t-480 -88.5h-702zM578 186h278q88 0 136 43t48 131v115q0 89 -49 135.5t-135 46.5h-278v-471zM578 842h247q79 0 121.5 40t42.5 115v93 q0 76 -43 117.5t-121 41.5h-247v-407z" />
<glyph unicode="C" horiz-adv-x="1398" d="M78 717q0 175 59 316.5t161.5 233.5t240 141.5t295.5 49.5q149 0 293 -52.5t233 -160.5l-111 -143h-32q-144 172 -379 172q-143 0 -225.5 -77.5t-82.5 -235.5v-492q0 -156 83 -231.5t227 -75.5q238 0 387 149h33l100 -123q-101 -109 -240.5 -161t-285.5 -52 q-158 0 -295.5 50t-240 143t-161.5 234.5t-59 314.5z" />
<glyph unicode="D" horiz-adv-x="1605" d="M154 0v1434h653q342 0 531.5 -182.5t189.5 -534.5q0 -351 -189.5 -534t-531.5 -183h-653zM578 188h229q65 0 112.5 14.5t83.5 49.5t54 96.5t18 151.5v438q0 169 -68 239t-200 70h-229v-1059z" />
<glyph unicode="E" horiz-adv-x="1390" d="M154 0v1434h1036l72 -185h-684v-407h495v-185h-495v-471h735l-72 -186h-1087z" />
<glyph unicode="F" horiz-adv-x="1302" d="M154 0v1434h1038l74 -185h-688v-407h499v-185h-499v-657h-424z" />
<glyph unicode="G" horiz-adv-x="1583" d="M78 717q0 175 59 316.5t161.5 233.5t240 141.5t295.5 49.5q150 0 295 -52.5t231 -160.5l-111 -143h-32q-129 172 -379 172q-146 0 -227 -81.5t-81 -246.5v-463q0 -164 73 -242.5t204 -78.5q104 0 199 45v385h-228l72 184h580v-792h-84l-168 94q-155 -103 -369 -103 q-119 0 -227.5 31.5t-200.5 94t-159.5 150.5t-105.5 207.5t-38 258.5z" />
<glyph unicode="H" horiz-adv-x="1624" d="M154 0v1434h424v-592h469v592h423v-1434h-423v657h-469v-657h-424z" />
<glyph unicode="I" horiz-adv-x="731" d="M154 0v1434h424v-1434h-424z" />
<glyph unicode="J" horiz-adv-x="1067" d="M37 47l59 170h31q82 -55 186 -55q78 0 127 47t49 143v1082h424v-1037q0 -209 -137.5 -315.5t-376.5 -106.5q-211 0 -362 72z" />
<glyph unicode="K" horiz-adv-x="1581" d="M154 0v1434h424v-660l630 660h267l-463 -480l557 -954h-504l-356 639l-131 -135v-504h-424z" />
<glyph unicode="L" horiz-adv-x="1296" d="M154 0v1434h424v-1250h679l-71 -184h-1032z" />
<glyph unicode="M" horiz-adv-x="2013" d="M154 0v1434h473l395 -838l395 838h443v-1434h-424v1014l-484 -1014h-123l-481 1010v-1010h-194z" />
<glyph unicode="N" horiz-adv-x="1501" d="M154 0v1434h434l563 -725v725h197v-1434h-187l-813 1038v-1038h-194z" />
<glyph unicode="O" horiz-adv-x="1624" d="M78 717q0 176 54.5 316.5t152 233.5t232 142t296.5 49q161 0 295 -49.5t231.5 -142t152 -233t54.5 -316.5q0 -233 -94.5 -402t-259 -254.5t-379.5 -85.5q-216 0 -381 85.5t-259.5 254.5t-94.5 402zM530 420q0 -258 283 -258q281 0 281 260v592q0 260 -281 260 q-283 0 -283 -260v-594z" />
<glyph unicode="P" horiz-adv-x="1570" d="M154 0v1434h702q325 0 481 -92t156 -316q0 -228 -158.5 -331t-478.5 -103h-278v-592h-424zM578 776h278q88 0 136 48.5t48 148.5v86q0 190 -184 190h-278v-473z" />
<glyph unicode="Q" horiz-adv-x="1624" d="M78 717q0 176 54.5 316.5t152 233.5t232 142t296.5 49q161 0 295 -49.5t231.5 -142t152 -233t54.5 -316.5q0 -199 -68 -349.5t-194 -246.5l189 -303h-359l-106 178q-92 -21 -195 -21q-216 0 -381 85.5t-259.5 254.5t-94.5 402zM530 420q0 -258 283 -258q53 0 92 8 l-137 231h326v21v592q0 260 -281 260q-283 0 -283 -260v-594z" />
<glyph unicode="R" horiz-adv-x="1593" d="M154 0v1434h702q325 0 481 -92t156 -316q0 -294 -276 -387l319 -639h-506l-254 592h-198v-592h-424zM578 776h278q88 0 136 48.5t48 148.5v86q0 190 -184 190h-278v-473z" />
<glyph unicode="S" horiz-adv-x="1413" d="M51 170l109 162h33q194 -172 458 -172q130 0 200.5 44t70.5 128q0 45 -27.5 81t-73.5 61.5t-106.5 48t-126.5 44.5t-132.5 47.5t-126.5 60.5t-106 79t-73 108.5t-27 143.5q2 202 165 327t460 125q147 0 281 -36t224 -107l-94 -168h-31q-65 59 -165 93t-215 34 q-124 0 -187 -35.5t-63 -101.5q0 -38 28.5 -69t77.5 -53t111.5 -43t132.5 -44t139.5 -49.5t132 -65.5t111.5 -87t77.5 -118.5t28.5 -156.5q0 -118 -52 -210t-144.5 -149.5t-214.5 -87t-267 -29.5q-184 0 -344.5 52.5t-263.5 142.5z" />
<glyph unicode="T" horiz-adv-x="1409" d="M39 1249l72 185h1187l72 -185h-455v-1249h-421v1249h-455z" />
<glyph unicode="U" horiz-adv-x="1529" d="M154 459v975h424v-996q0 -144 81 -210t218 -66q66 0 120 15t96 47t65.5 86.5t23.5 127.5v996h194v-979q0 -82 -17 -151t-58.5 -131t-106.5 -105t-166 -68t-231 -25q-163 0 -288 36.5t-201.5 103t-115 153t-38.5 191.5z" />
<glyph unicode="V" d="M39 1434h465l401 -934l402 934h211l-617 -1434h-244z" />
<glyph unicode="W" horiz-adv-x="2037" d="M39 1434h453l284 -822l285 822h166l282 -824l283 824h207l-492 -1434h-239l-248 725l-248 -725h-240z" />
<glyph unicode="X" horiz-adv-x="1558" d="M39 0l524 682l-493 752h510l303 -461l362 461h244l-492 -637l525 -797h-510l-332 504l-397 -504h-244z" />
<glyph unicode="Y" d="M39 1434h506l373 -562l370 562h232l-529 -811v-623h-422v618z" />
<glyph unicode="Z" horiz-adv-x="1386" d="M78 0v102l661 1147h-637l72 185h1098v-84l-670 -1164h707l-72 -186h-1159z" />
<glyph unicode="[" horiz-adv-x="821" d="M154 -514v2113h542l64 -165h-293v-1782h293l-64 -166h-542z" />
<glyph unicode="\" horiz-adv-x="874" d="M-6 1536h182l707 -1638h-185z" />
<glyph unicode="]" horiz-adv-x="821" d="M61 -348h293v1782h-293l64 165h543v-2113h-543z" />
<glyph unicode="^" horiz-adv-x="1148" d="M37 410l434 1024h207l432 -1024h-178l-357 843l-358 -843h-180z" />
<glyph unicode="_" horiz-adv-x="1366" d="M12 -92h1342v-166h-1342v166z" />
<glyph unicode="`" horiz-adv-x="686" d="M82 1419v35h346l176 -328h-164z" />
<glyph unicode="a" horiz-adv-x="1327" d="M61 340q0 160 118.5 250t307.5 90t320 -80v119q0 151 -195 151q-98 0 -195 -26.5t-169 -75.5h-23l-65 154q92 52 227.5 89.5t292.5 37.5q267 0 395.5 -90.5t128.5 -301.5v-657h-397v84q-126 -109 -330 -109q-185 0 -300.5 96t-115.5 269zM457 307q0 -72 44 -109.5 t117 -37.5q52 0 103.5 23t85.5 61v223q-67 43 -170 43q-85 0 -132.5 -39t-47.5 -113v-51z" />
<glyph unicode="b" horiz-adv-x="1351" d="M123 -12v1446h397v-504q119 119 316 119q193 0 322.5 -144.5t129.5 -392.5q0 -252 -136 -394.5t-357 -142.5q-214 0 -357 140l-194 -127h-121zM520 264q34 -48 83 -73t102 -25q76 0 122.5 49t46.5 152v290q0 103 -46.5 153t-122.5 50q-52 0 -101.5 -26t-83.5 -74v-496z " />
<glyph unicode="c" horiz-adv-x="1140" d="M61 512q0 165 79 287.5t217.5 186t316.5 63.5q144 0 248.5 -39t191.5 -129l-117 -142h-24q-42 70 -116.5 105t-158.5 35q-104 0 -162.5 -54.5t-58.5 -158.5v-310q0 -103 58.5 -157t162.5 -54q87 0 166.5 30.5t124.5 90.5h25l100 -123q-168 -168 -440 -168 q-178 0 -316.5 63.5t-217.5 186t-79 287.5z" />
<glyph unicode="d" horiz-adv-x="1351" d="M61 512q0 125 36 227.5t98 169.5t144 103.5t175 36.5q199 0 315 -119v504h400v-1434h-400v94q-116 -119 -315 -119q-93 0 -175 36.5t-144 103.5t-98 169.5t-36 227.5zM477 367q0 -103 45.5 -152t122.5 -49q52 0 102 25t82 73v496q-33 48 -83 74t-101 26q-77 0 -122.5 -49 t-45.5 -154v-290z" />
<glyph unicode="e" horiz-adv-x="1294" d="M61 512q0 249 166 393t441 144q255 0 409 -144t154 -393v-66h-754v-96q0 -110 66.5 -157.5t199.5 -47.5q98 0 187.5 30t144.5 85h25l108 -117q-103 -86 -220.5 -127t-282.5 -41q-299 0 -471.5 143t-172.5 394zM477 616h379v66q0 197 -188 197q-89 0 -140 -48.5 t-51 -148.5v-66z" />
<glyph unicode="f" horiz-adv-x="929" d="M31 854v170h164v100q0 166 119 250t327 84q190 0 311 -57l-53 -156h-22q-65 43 -160 43q-65 0 -95 -27.5t-30 -91.5v-145h307v-170h-307v-854h-397v854h-164z" />
<glyph unicode="g" horiz-adv-x="1314" d="M61 -119q0 83 80 156q-57 51 -57 141q0 142 160 246q-168 89 -168 274q0 115 67 195.5t178.5 118t258.5 37.5q238 0 370 -97l297 97h19v-220h-215q26 -56 26 -131q0 -114 -66 -193.5t-176 -116t-255 -36.5q-115 0 -203 23q-39 -29 -39 -70q0 -30 21 -45.5t73 -15.5h436 q193 0 297.5 -70.5t104.5 -202.5q0 -93 -47 -160.5t-133.5 -107t-197.5 -58t-251 -18.5q-309 0 -444.5 62t-135.5 192zM256 -84q0 -65 92.5 -93t288.5 -28q126 0 199.5 12t100 32t26.5 52q0 34 -30.5 50t-101.5 16h-374q-109 0 -185 18q-16 -32 -16 -59zM432 649 q0 -133 148 -133q141 0 141 133v99q0 139 -141 139q-76 0 -112 -37t-36 -102v-99z" />
<glyph unicode="h" horiz-adv-x="1368" d="M123 0v1434h397v-541q74 63 177 109.5t221 46.5q153 0 240 -77t87 -218v-754h-399v727q0 52 -22.5 77t-69.5 25q-54 0 -118.5 -31.5t-115.5 -80.5v-717h-397z" />
<glyph unicode="i" horiz-adv-x="643" d="M100 1300q0 83 60 134t159 51q103 0 164.5 -51t61.5 -134q0 -84 -61.5 -133t-164.5 -49q-100 0 -159.5 49.5t-59.5 132.5zM123 0v1024h397v-1024h-397z" />
<glyph unicode="j" horiz-adv-x="643" d="M-25 -362l17 163q18 -4 47 -4q45 0 64.5 28t19.5 99v1100h397v-1044q0 -177 -108.5 -265t-292.5 -88q-65 0 -144 11zM100 1300q0 83 60 134t159 51q103 0 164.5 -51t61.5 -134q0 -84 -61.5 -133t-164.5 -49q-100 0 -159.5 49.5t-59.5 132.5z" />
<glyph unicode="k" horiz-adv-x="1341" d="M123 0v1434h397v-910l479 500h265l-330 -336l424 -688h-473l-230 406l-135 -138v-268h-397z" />
<glyph unicode="l" horiz-adv-x="643" d="M123 0v1434h397v-1434h-397z" />
<glyph unicode="m" horiz-adv-x="2050" d="M123 0v1024h397v-129q72 63 171.5 108.5t211.5 45.5q109 0 185 -41t110 -119q191 160 410 160q149 0 234 -78t85 -219v-752h-397v727q0 102 -90 102q-48 0 -107 -30.5t-108 -77.5v-721h-400v727q0 53 -21 77.5t-67 24.5q-50 0 -110 -31.5t-107 -80.5v-717h-397z" />
<glyph unicode="n" horiz-adv-x="1368" d="M123 0v1024h397v-131q74 63 177 109.5t221 46.5q153 0 240 -77t87 -218v-754h-399v727q0 52 -22.5 77t-69.5 25q-54 0 -118.5 -31.5t-115.5 -80.5v-717h-397z" />
<glyph unicode="o" horiz-adv-x="1341" d="M61 512q0 250 166.5 393.5t444.5 143.5t443 -143.5t165 -393.5t-165 -393.5t-443 -143.5t-444.5 143.5t-166.5 393.5zM477 336q0 -95 52 -143t143 -48q90 0 141 48.5t51 144.5v352q0 94 -51 141.5t-141 47.5q-91 0 -143 -47.5t-52 -141.5v-354z" />
<glyph unicode="p" horiz-adv-x="1351" d="M123 -348v1372h397v-94q119 119 316 119q193 0 322.5 -144.5t129.5 -392.5t-129.5 -392.5t-322.5 -144.5q-197 0 -316 119v-442h-397zM520 264q34 -48 83.5 -73t101.5 -25q169 0 169 201v290q0 104 -46 153.5t-123 49.5q-51 0 -101 -26t-84 -74v-496z" />
<glyph unicode="q" horiz-adv-x="1351" d="M61 512q0 251 137 394t357 143q216 0 356 -140l197 127h121v-1384h-400v442q-116 -119 -315 -119q-93 0 -175 36.5t-144 103.5t-98 169.5t-36 227.5zM477 367q0 -103 46.5 -152t121.5 -49q53 0 102 25t82 73v496q-33 48 -82 74t-102 26q-76 0 -122 -50t-46 -153v-290z " />
<glyph unicode="r" horiz-adv-x="978" d="M123 0v1024h397v-170q59 79 153.5 137t200.5 58q34 0 74 -9v-274l-20 -6q-62 26 -135 26q-82 0 -153.5 -30t-119.5 -82v-674h-397z" />
<glyph unicode="s" horiz-adv-x="1128" d="M39 127l82 139h24q156 -121 383 -121q174 0 174 97q0 36 -33.5 61.5t-87 42.5t-118 33.5t-129 42t-118 61t-87 97t-33.5 143.5q0 150 132 238t368 88q245 0 405 -115l-69 -146h-25q-132 91 -313 91q-170 0 -170 -84q0 -28 27.5 -49.5t73 -34t103 -28t118 -30t118 -41.5 t103 -61.5t73 -91.5t27.5 -129q0 -118 -71.5 -199.5t-189.5 -118.5t-274 -37q-296 0 -493 152z" />
<glyph unicode="t" horiz-adv-x="935" d="M25 854v115q119 44 225.5 134t181.5 208h133v-287h307v-170h-307v-594q0 -63 30.5 -89t94.5 -26q85 0 152 41h22l54 -153q-123 -58 -306 -58q-206 0 -325 84.5t-119 249.5v545h-143z" />
<glyph unicode="u" horiz-adv-x="1368" d="M123 270v754h397v-727q0 -102 94 -102q52 0 116 32t116 80v717h399v-1024h-399v129q-76 -63 -178 -108.5t-217 -45.5q-154 0 -241 77t-87 218z" />
<glyph unicode="v" horiz-adv-x="1161" d="M16 1024h437l256 -594l247 594h189l-440 -1024h-244z" />
<glyph unicode="w" horiz-adv-x="1650" d="M16 1024h424l195 -530l194 530h234l192 -528l193 528h186l-374 -1024h-248l-189 510l-184 -510h-248z" />
<glyph unicode="x" horiz-adv-x="1222" d="M16 0l402 467l-381 557h469l201 -293l249 293h228l-377 -440l399 -584h-471l-217 317l-272 -317h-230z" />
<glyph unicode="y" horiz-adv-x="1161" d="M16 1024h437l252 -586l251 586h189l-469 -1096q-128 -301 -473 -301l-53 160l14 16q225 0 323 140z" />
<glyph unicode="z" horiz-adv-x="1097" d="M47 0v88l447 766h-447l66 170h901v-82l-449 -772h502l-66 -170h-954z" />
<glyph unicode="{" horiz-adv-x="821" d="M100 461v166q87 0 129.5 32t42.5 89q0 52 -21 114t-46.5 113t-46.5 127.5t-21 154.5q0 342 469 342h90l64 -165h-117q-168 0 -168 -181q0 -84 33 -235t33 -242q0 -93 -59.5 -154.5t-162.5 -78.5q102 -17 162 -79t60 -155q0 -91 -33 -242t-33 -235q0 -92 41.5 -136 t126.5 -44h117l-64 -166h-90q-469 0 -469 342q0 78 21 155.5t46.5 129.5t46.5 114t21 113q0 57 -42.5 89t-129.5 32z" />
<glyph unicode="|" horiz-adv-x="473" d="M154 -102v1638h165v-1638h-165z" />
<glyph unicode="}" horiz-adv-x="821" d="M61 -348h117q85 0 126.5 44t41.5 136q0 84 -32.5 235t-32.5 242q0 93 59.5 155t161.5 79q-102 17 -161.5 78.5t-59.5 154.5q0 91 32.5 242t32.5 235q0 181 -168 181h-117l64 165h92q467 0 467 -342q0 -78 -21 -154.5t-46.5 -127.5t-46.5 -113t-21 -114q0 -57 43 -89 t129 -32v-166q-86 0 -129 -32t-43 -89q0 -51 21 -113t46.5 -114t46.5 -129.5t21 -155.5q0 -342 -467 -342h-92z" />
<glyph unicode="~" horiz-adv-x="1148" d="M61 367q0 132 91 221.5t223 89.5q51 0 98 -17t83 -41.5t69.5 -49t72 -41.5t76.5 -17q61 0 102.5 41.5t41.5 103.5h167q0 -132 -90 -221.5t-221 -89.5q-51 0 -98.5 17t-83.5 41.5t-69.5 49t-72 41.5t-77.5 17q-60 0 -101 -42t-41 -103h-170z" />
<glyph unicode="&#xa1;" horiz-adv-x="686" d="M76 -348l172 905h188l174 -905h-534zM106 885q0 97 67.5 160t170.5 63q102 0 168 -63t66 -160t-65.5 -159t-168.5 -62t-170.5 62.5t-67.5 158.5z" />
<glyph unicode="&#xa2;" horiz-adv-x="1155" d="M78 717q0 216 129.5 354t347.5 172v191h195v-183q119 -6 210 -45.5t170 -120.5l-116 -141h-25q-43 70 -117.5 104.5t-158.5 34.5q-103 0 -162 -54.5t-59 -158.5v-309q0 -103 58.5 -157t162.5 -54q88 0 167 30.5t126 90.5h24l100 -123q-154 -151 -380 -166v-182h-195v190 q-218 34 -347.5 172.5t-129.5 354.5z" />
<glyph unicode="&#xa3;" horiz-adv-x="1298" d="M39 184q0 90 73.5 147.5t182.5 57.5q57 0 162 -22q-19 68 -51 125h-359v184h250q-56 97 -86.5 180.5t-30.5 179.5q0 199 160.5 310.5t427.5 111.5q290 0 461 -147l-88 -146h-25q-129 129 -301 129q-88 0 -135 -41.5t-47 -140.5v-436h567v-184h-567v-173q208 -53 352 -53 q82 0 129.5 11t85.5 36l29 -14q0 -324 -258 -324q-56 0 -107 11.5t-104 37t-83 43.5t-87 54q-41 -69 -116.5 -107.5t-168.5 -38.5q-126 0 -196 57.5t-70 151.5zM229 180q0 -26 25 -40.5t68 -14.5q45 0 79 20.5t52 55.5q-72 37 -140 37q-40 0 -62 -15t-22 -43z" />
<glyph unicode="&#xa4;" horiz-adv-x="1148" d="M96 356l154 154q-64 92 -64 209q0 115 64 207l-154 153l117 117l154 -154q97 64 208 64q115 0 207 -64l154 154l117 -117l-152 -153q62 -94 62 -207q0 -111 -64 -211l154 -152l-117 -118l-154 153q-92 -61 -207 -61q-117 0 -208 63l-154 -155zM352 719q0 -94 65.5 -158.5 t160.5 -64.5q91 0 155 65t64 158q0 92 -64 156.5t-155 64.5q-95 0 -160.5 -64.5t-65.5 -156.5z" />
<glyph unicode="&#xa5;" d="M39 1434h506l373 -562l370 562h232l-435 -666h314v-166h-408v-117h408v-166h-408v-319h-422v319h-407v166h407v117h-407v166h311z" />
<glyph unicode="&#xa6;" horiz-adv-x="473" d="M154 -102v716h165v-716h-165zM154 819v717h165v-717h-165z" />
<glyph unicode="&#xa7;" horiz-adv-x="1161" d="M82 590q0 93 51.5 164t149.5 112q-154 93 -154 267q0 149 126 237t351 88q106 0 204.5 -29.5t170.5 -85.5l-70 -145h-24q-117 96 -281 96q-149 0 -149 -86q0 -32 34.5 -54.5t89.5 -37.5t121.5 -31t133 -41t121.5 -61t89.5 -98.5t34.5 -145.5q0 -199 -194 -290 q145 -91 145 -259q0 -89 -38.5 -158t-107 -111t-159 -63.5t-199.5 -21.5q-123 0 -236.5 42t-187.5 110l80 139h25q130 -123 309 -123q152 0 152 98q0 37 -32.5 63.5t-84.5 43.5t-114.5 33.5t-125 42t-114.5 61.5t-84.5 98.5t-32.5 145.5zM385 690q0 -14 4 -26t14 -22 t20.5 -18.5t28.5 -17t32 -14t38.5 -13t41 -12.5t45.5 -13t46 -13q88 21 88 96q0 36 -35 63.5t-70.5 40t-114.5 34.5q-25 7 -38 11q-48 -10 -74 -35.5t-26 -60.5z" />
<glyph unicode="&#xa8;" horiz-adv-x="1017" d="M82 1300q0 72 51 116t137 44q88 0 140.5 -44t52.5 -116t-52.5 -113.5t-140.5 -41.5q-87 0 -137.5 41.5t-50.5 113.5zM555 1300q0 72 51 116t137 44q88 0 140.5 -44t52.5 -116t-52.5 -113.5t-140.5 -41.5q-87 0 -137.5 41.5t-50.5 113.5z" />
<glyph unicode="&#xa9;" horiz-adv-x="1636" d="M78 717q0 151 58.5 288.5t157.5 236.5t236.5 157.5t288.5 58.5q202 0 372.5 -99t270 -269.5t99.5 -372.5t-99.5 -372.5t-270 -270t-372.5 -99.5t-372.5 99.5t-269.5 270t-99 372.5zM213 717q0 -164 81.5 -303.5t221 -220t303.5 -80.5q123 0 235 48t192.5 128.5 t128.5 192.5t48 235t-48 235t-128.5 192.5t-192.5 128.5t-235 48q-164 0 -303.5 -80.5t-221 -220t-81.5 -303.5zM371 715q0 123 60.5 228.5t166.5 168t231 62.5q191 0 322 -134l-96 -96q-94 94 -228 94q-130 0 -224.5 -95t-94.5 -226q0 -134 94.5 -227t226.5 -93 q134 0 226 92l96 -96q-65 -65 -149 -99t-173 -34q-188 0 -323 134t-135 321z" />
<glyph unicode="&#xaa;" horiz-adv-x="802" d="M35 1024q0 94 72 148.5t184 54.5q108 0 190 -45v67q0 88 -114 88q-126 0 -217 -63h-15l-41 98q54 31 137.5 53.5t178.5 22.5q175 0 249 -58t74 -180v-391h-252v49q-74 -63 -196 -63q-110 0 -180 57.5t-70 161.5zM57 592v135h676v-135h-676zM285 1004q0 -40 24.5 -61 t67.5 -21q63 0 104 47v129q-39 22 -94 22q-47 0 -74.5 -22.5t-27.5 -63.5v-30z" />
<glyph unicode="&#xab;" horiz-adv-x="1230" d="M125 512l315 393h238l-316 -393l316 -393h-238zM555 512l315 393h238l-315 -393l315 -393h-238z" />
<glyph unicode="&#xac;" horiz-adv-x="1148" d="M61 653v168h957v-618h-166v450h-791z" />
<glyph unicode="&#xad;" horiz-adv-x="751" d="M61 397v230h629v-230h-629z" />
<glyph unicode="&#xae;" horiz-adv-x="894" d="M78 1087q0 154 108.5 262.5t262.5 108.5t262 -108.5t108 -262.5t-108 -262t-262 -108t-262.5 108t-108.5 262zM135 1087q0 -129 92.5 -221t221.5 -92q130 0 222.5 92t92.5 221q0 131 -92.5 223.5t-222.5 92.5q-129 0 -221.5 -93t-92.5 -223zM315 879v415h142 q139 0 139 -123q0 -97 -78 -120l90 -172h-61l-84 163h-6h-88v-163h-54zM369 1090h88q82 0 82 71v17q0 39 -21 54t-61 15h-88v-157z" />
<glyph unicode="&#xaf;" horiz-adv-x="864" d="M82 1210v181h700v-181h-700z" />
<glyph unicode="&#xb0;" horiz-adv-x="796" d="M78 1139q0 132 94 225.5t227 93.5q132 0 226 -93.5t94 -225.5q0 -133 -94 -227.5t-226 -94.5q-133 0 -227 94t-94 228zM240 1139q0 -68 46 -114t113 -46q66 0 112 46.5t46 113.5q0 66 -46 111.5t-112 45.5q-67 0 -113 -45.5t-46 -111.5z" />
<glyph unicode="&#xb1;" horiz-adv-x="1148" d="M61 0v166h1024v-166h-1024zM61 551v168h431v305h165v-305h428v-168h-428v-305h-165v305h-431z" />
<glyph unicode="&#xb2;" horiz-adv-x="856" d="M43 872v91l350 415q76 91 76 144q0 43 -33 68.5t-98 25.5q-125 0 -207 -88h-22l-66 117q58 48 144 75t186 27q191 0 299 -80t108 -213q0 -58 -29.5 -119t-95.5 -139l-159 -188h340l-56 -136h-737z" />
<glyph unicode="&#xb3;" horiz-adv-x="911" d="M20 985l78 94h23q100 -86 248 -86q161 0 161 123v88q0 51 -27.5 80t-78.5 29q-68 0 -133 -35l-84 86l217 233h-367l58 136h706v-91l-207 -221q126 -20 190 -87t64 -171q0 -141 -120 -224t-324 -83q-270 0 -404 129z" />
<glyph unicode="&#xb4;" horiz-adv-x="686" d="M82 1126l176 328h346v-35l-358 -293h-164z" />
<glyph unicode="&#xb5;" horiz-adv-x="1439" d="M123 -348v1372h397v-727q0 -102 94 -102q52 0 116 32t116 80v717h399v-760q0 -63 28.5 -90t86.5 -27q22 0 47 7v-138q-57 -41 -178 -41q-125 0 -218 43.5t-134 131.5q-172 -145 -357 -170v-328h-397z" />
<glyph unicode="&#xb6;" horiz-adv-x="1693" d="M78 1026q0 224 156 316t481 92h825v-1782h-188v1597h-168v-1597h-191v940h-278q-320 0 -478.5 103t-158.5 331zM530 973q0 -100 48.5 -148.5t136.5 -48.5h278v473h-278q-185 0 -185 -190v-86z" />
<glyph unicode="&#xb7;" horiz-adv-x="686" d="M106 512q0 97 66.5 160t169.5 63t170.5 -63t67.5 -160q0 -95 -68 -159t-170 -64t-169 63.5t-67 159.5z" />
<glyph unicode="&#xb8;" horiz-adv-x="735" d="M82 -326l29 93q120 -43 221 -43q123 0 123 51q0 41 -56 41q-50 0 -98 -31l-70 43l62 172h139l-33 -92q32 8 72 8q79 0 130.5 -33t51.5 -94q0 -76 -86 -119t-221 -43q-69 0 -144.5 14t-119.5 33z" />
<glyph unicode="&#xb9;" horiz-adv-x="696" d="M20 1571l459 168h131v-867h-321v656l-219 -78z" />
<glyph unicode="&#xba;" horiz-adv-x="811" d="M35 1126q0 149 101 235.5t270 86.5t269.5 -86t100.5 -236q0 -149 -100.5 -235t-269.5 -86t-270 86t-101 235zM68 592v135h675v-135h-675zM297 1016q0 -53 29 -80t80 -27q50 0 79 27.5t29 79.5v221q0 104 -108 104q-50 0 -79.5 -26t-29.5 -78v-221z" />
<glyph unicode="&#xbb;" horiz-adv-x="1230" d="M125 119l315 393l-315 393h237l316 -393l-316 -393h-237zM555 119l315 393l-315 393h238l315 -393l-315 -393h-238z" />
<glyph unicode="&#xbc;" horiz-adv-x="1814" d="M20 1272l459 168h131v-867h-321v656l-219 -78zM328 0l1091 1434h197l-1090 -1434h-198zM956 156v114l560 596h174v-575h102v-135h-102v-156h-322v156h-412zM1153 291h215v229z" />
<glyph unicode="&#xbd;" horiz-adv-x="2056" d="M20 1272l459 168h131v-867h-321v656l-219 -78zM328 0l1091 1434h197l-1090 -1434h-198zM1243 0v90l350 416q76 91 76 143q0 43 -33 68.5t-98 25.5q-125 0 -207 -88h-22l-66 117q58 48 144 75t186 27q191 0 299 -79.5t108 -212.5q0 -58 -29.5 -119t-95.5 -139l-159 -189 h340l-56 -135h-737z" />
<glyph unicode="&#xbe;" horiz-adv-x="1933" d="M20 686l78 94h23q100 -86 248 -86q161 0 161 123v88q0 51 -27.5 80t-78.5 29q-68 0 -133 -35l-84 86l217 233h-367l58 136h706v-91l-207 -221q126 -20 190 -87t64 -171q0 -141 -120 -224t-324 -83q-270 0 -404 129zM446 0l1092 1434h197l-1090 -1434h-199zM1075 156v114 l559 596h174v-575h103v-135h-103v-156h-321v156h-412zM1272 291h215v229z" />
<glyph unicode="&#xbf;" horiz-adv-x="983" d="M61 -68q0 57 20 105.5t52.5 82t74.5 64t85.5 52.5t85.5 47t74.5 48t52.5 54.5t20 67.5q0 42 -20 84l190 41q48 -48 76.5 -109t28.5 -123q0 -77 -34.5 -141t-83.5 -105.5t-98 -77t-83.5 -70.5t-34.5 -69q0 -38 31.5 -59t91.5 -21q151 0 264 95h20l91 -162 q-162 -109 -428 -109q-226 0 -351 80t-125 225zM365 885q0 97 67 160t168 63q103 0 169.5 -63t66.5 -160t-66.5 -159t-169.5 -62q-102 0 -168.5 62.5t-66.5 158.5z" />
<glyph unicode="&#xc0;" d="M39 0l616 1434h244l621 -1434h-465l-101 236h-602l-102 -236h-211zM336 1829v35h346l176 -328h-164zM430 420h444l-221 516z" />
<glyph unicode="&#xc1;" d="M39 0l616 1434h244l621 -1434h-465l-101 236h-602l-102 -236h-211zM430 420h444l-221 516zM700 1536l177 328h346v-35l-359 -293h-164z" />
<glyph unicode="&#xc2;" d="M39 0l616 1434h244l621 -1434h-465l-101 236h-602l-102 -236h-211zM397 1536l183 328h399l182 -328h-143l-240 211l-237 -211h-144zM430 420h444l-221 516z" />
<glyph unicode="&#xc3;" d="M39 0l616 1434h244l621 -1434h-465l-101 236h-602l-102 -236h-211zM412 1536q0 144 63 242t174 98q48 0 88 -16.5t66.5 -40.5t49 -48t45 -40.5t44.5 -16.5q36 0 55 41t19 109h129q0 -145 -63.5 -242.5t-174.5 -97.5q-48 0 -88 16.5t-66 40t-48.5 46.5t-45 39.5 t-45.5 16.5q-35 0 -54 -40t-19 -107h-129zM430 420h444l-221 516z" />
<glyph unicode="&#xc4;" d="M39 0l616 1434h244l621 -1434h-465l-101 236h-602l-102 -236h-211zM350 1710q0 72 51.5 116t137.5 44q87 0 139.5 -44t52.5 -116t-52 -114t-140 -42q-86 0 -137.5 42t-51.5 114zM430 420h444l-221 516zM823 1710q0 72 51.5 116t137.5 44q87 0 139.5 -44t52.5 -116 t-52 -114t-140 -42q-86 0 -137.5 42t-51.5 114z" />
<glyph unicode="&#xc5;" d="M39 0l616 1434h244l621 -1434h-465l-101 236h-602l-102 -236h-211zM430 420h444l-221 516zM578 1733q0 82 59 141t141 59t141.5 -59t59.5 -141t-59.5 -141.5t-141.5 -59.5t-141 59.5t-59 141.5zM692 1733q0 -37 24.5 -61.5t61.5 -24.5t61.5 24.5t24.5 61.5t-24.5 61.5 t-61.5 24.5t-61.5 -24.5t-24.5 -61.5z" />
<glyph unicode="&#xc6;" horiz-adv-x="2265" d="M-31 0l1235 1434h862l72 -185h-684v-407h496v-185h-496v-471h735l-71 -186h-1088v236h-602l-203 -236h-256zM588 420h442v512z" />
<glyph unicode="&#xc7;" horiz-adv-x="1398" d="M78 717q0 175 59 316.5t161.5 233.5t240 141.5t295.5 49.5q149 0 293 -52.5t233 -160.5l-111 -143h-32q-144 172 -379 172q-143 0 -225.5 -77.5t-82.5 -235.5v-492q0 -156 83 -231.5t227 -75.5q238 0 387 149h33l100 -123q-95 -102 -223 -154.5t-265 -58.5l-24 -67 q32 8 72 8q79 0 130.5 -33t51.5 -94q0 -76 -86 -119t-221 -43q-69 0 -145 14t-120 33l29 93q120 -43 221 -43q123 0 123 51q0 41 -55 41q-50 0 -98 -31l-70 43l55 154q-141 15 -260 71t-208 147t-139 224t-50 293z" />
<glyph unicode="&#xc8;" horiz-adv-x="1390" d="M154 0v1434h1036l72 -185h-684v-407h495v-185h-495v-471h735l-72 -186h-1087zM258 1829v35h346l176 -328h-164z" />
<glyph unicode="&#xc9;" horiz-adv-x="1390" d="M154 0v1434h1036l72 -185h-684v-407h495v-185h-495v-471h735l-72 -186h-1087zM623 1536l176 328h346v-35l-359 -293h-163z" />
<glyph unicode="&#xca;" horiz-adv-x="1390" d="M154 0v1434h1036l72 -185h-684v-407h495v-185h-495v-471h735l-72 -186h-1087zM319 1536l183 328h399l182 -328h-143l-240 211l-237 -211h-144z" />
<glyph unicode="&#xcb;" horiz-adv-x="1390" d="M154 0v1434h1036l72 -185h-684v-407h495v-185h-495v-471h735l-72 -186h-1087zM272 1710q0 72 51.5 116t137.5 44q87 0 139.5 -44t52.5 -116t-52 -114t-140 -42q-86 0 -137.5 42t-51.5 114zM745 1710q0 72 51.5 116t137.5 44q87 0 139.5 -44t52.5 -116t-52 -114t-140 -42 q-86 0 -137.5 42t-51.5 114z" />
<glyph unicode="&#xcc;" horiz-adv-x="731" d="M-78 1829v35h346l176 -328h-163zM154 0v1434h424v-1434h-424z" />
<glyph unicode="&#xcd;" horiz-adv-x="731" d="M154 0v1434h424v-1434h-424zM287 1536l176 328h346v-35l-358 -293h-164z" />
<glyph unicode="&#xce;" horiz-adv-x="731" d="M-16 1536l182 328h399l183 -328h-144l-239 211l-238 -211h-143zM154 0v1434h424v-1434h-424z" />
<glyph unicode="&#xcf;" horiz-adv-x="731" d="M-61 1710q0 72 51 116t137 44q87 0 139.5 -44t52.5 -116t-52 -114t-140 -42q-86 0 -137 42t-51 114zM154 0v1434h424v-1434h-424zM412 1710q0 72 51 116t137 44q88 0 140.5 -44t52.5 -116t-52.5 -114t-140.5 -42q-86 0 -137 42t-51 114z" />
<glyph unicode="&#xd0;" horiz-adv-x="1605" d="M25 647v187h129v600h653q342 0 531.5 -182.5t189.5 -534.5q0 -351 -189.5 -534t-531.5 -183h-653v647h-129zM578 188h229q65 0 112.5 14.5t83.5 49.5t54 96.5t18 151.5v438q0 169 -68 239t-200 70h-229v-413h202v-187h-202v-459z" />
<glyph unicode="&#xd1;" horiz-adv-x="1501" d="M154 0v1434h434l563 -725v725h197v-1434h-187l-813 1038v-1038h-194zM385 1536q0 144 63.5 242t174.5 98q58 0 106 -25.5t74 -55.5t56 -55.5t56 -25.5q36 0 55 41t19 109h129q0 -145 -63 -242.5t-174 -97.5q-48 0 -88 16.5t-66 40t-48.5 46.5t-45 39.5t-45.5 16.5 q-35 0 -54.5 -40t-19.5 -107h-129z" />
<glyph unicode="&#xd2;" horiz-adv-x="1624" d="M78 717q0 176 54.5 316.5t152 233.5t232 142t296.5 49q161 0 295 -49.5t231.5 -142t152 -233t54.5 -316.5q0 -233 -94.5 -402t-259 -254.5t-379.5 -85.5q-216 0 -381 85.5t-259.5 254.5t-94.5 402zM371 1829v35h346l176 -328h-164zM530 420q0 -258 283 -258 q281 0 281 260v592q0 260 -281 260q-283 0 -283 -260v-594z" />
<glyph unicode="&#xd3;" horiz-adv-x="1624" d="M78 717q0 176 54.5 316.5t152 233.5t232 142t296.5 49q161 0 295 -49.5t231.5 -142t152 -233t54.5 -316.5q0 -233 -94.5 -402t-259 -254.5t-379.5 -85.5q-216 0 -381 85.5t-259.5 254.5t-94.5 402zM530 420q0 -258 283 -258q281 0 281 260v592q0 260 -281 260 q-283 0 -283 -260v-594zM733 1536l176 328h346v-35l-358 -293h-164z" />
<glyph unicode="&#xd4;" horiz-adv-x="1624" d="M78 717q0 176 54.5 316.5t152 233.5t232 142t296.5 49q161 0 295 -49.5t231.5 -142t152 -233t54.5 -316.5q0 -233 -94.5 -402t-259 -254.5t-379.5 -85.5q-216 0 -381 85.5t-259.5 254.5t-94.5 402zM430 1536l182 328h400l182 -328h-143l-240 211l-238 -211h-143zM530 420 q0 -258 283 -258q281 0 281 260v592q0 260 -281 260q-283 0 -283 -260v-594z" />
<glyph unicode="&#xd5;" horiz-adv-x="1624" d="M78 717q0 176 54.5 316.5t152 233.5t232 142t296.5 49q161 0 295 -49.5t231.5 -142t152 -233t54.5 -316.5q0 -233 -94.5 -402t-259 -254.5t-379.5 -85.5q-216 0 -381 85.5t-259.5 254.5t-94.5 402zM446 1536q0 144 63.5 242t174.5 98q48 0 88 -16.5t66.5 -40.5t49 -48 t45 -40.5t44.5 -16.5q36 0 55 41t19 109h129q0 -145 -63.5 -242.5t-174.5 -97.5q-48 0 -88 16.5t-66 40t-48.5 46.5t-45 39.5t-45.5 16.5q-35 0 -54.5 -40t-19.5 -107h-129zM530 420q0 -258 283 -258q281 0 281 260v592q0 260 -281 260q-283 0 -283 -260v-594z" />
<glyph unicode="&#xd6;" horiz-adv-x="1624" d="M78 717q0 176 54.5 316.5t152 233.5t232 142t296.5 49q161 0 295 -49.5t231.5 -142t152 -233t54.5 -316.5q0 -233 -94.5 -402t-259 -254.5t-379.5 -85.5q-216 0 -381 85.5t-259.5 254.5t-94.5 402zM385 1710q0 72 51 116t137 44q88 0 140.5 -44t52.5 -116t-52.5 -114 t-140.5 -42q-86 0 -137 42t-51 114zM530 420q0 -258 283 -258q281 0 281 260v592q0 260 -281 260q-283 0 -283 -260v-594zM858 1710q0 72 51.5 116t137.5 44q87 0 139.5 -44t52.5 -116t-52 -114t-140 -42q-86 0 -137.5 42t-51.5 114z" />
<glyph unicode="&#xd7;" horiz-adv-x="1148" d="M96 152l361 360l-361 362l117 117l362 -360l361 360l117 -117l-361 -362l361 -360l-117 -119l-361 362l-362 -362z" />
<glyph unicode="&#xd8;" horiz-adv-x="1624" d="M78 717q0 176 54.5 316.5t152 233.5t232 142t296.5 49q237 0 410 -102l63 78h217l-147 -183q190 -196 190 -534q0 -233 -94.5 -402t-259 -254.5t-379.5 -85.5q-239 0 -412 105l-65 -80h-217l149 184q-190 196 -190 533zM530 506l531 653q-62 115 -248 115 q-283 0 -283 -260v-508zM561 276q64 -114 252 -114q281 0 281 260v508z" />
<glyph unicode="&#xd9;" horiz-adv-x="1529" d="M154 459v975h424v-996q0 -144 81 -210t218 -66q66 0 120 15t96 47t65.5 86.5t23.5 127.5v996h194v-979q0 -82 -17 -151t-58.5 -131t-106.5 -105t-166 -68t-231 -25q-163 0 -288 36.5t-201.5 103t-115 153t-38.5 191.5zM387 1829v35h346l176 -328h-164z" />
<glyph unicode="&#xda;" horiz-adv-x="1529" d="M154 459v975h424v-996q0 -144 81 -210t218 -66q66 0 120 15t96 47t65.5 86.5t23.5 127.5v996h194v-979q0 -82 -17 -151t-58.5 -131t-106.5 -105t-166 -68t-231 -25q-163 0 -288 36.5t-201.5 103t-115 153t-38.5 191.5zM752 1536l176 328h346v-35l-359 -293h-163z" />
<glyph unicode="&#xdb;" horiz-adv-x="1529" d="M154 459v975h424v-996q0 -144 81 -210t218 -66q66 0 120 15t96 47t65.5 86.5t23.5 127.5v996h194v-979q0 -82 -17 -151t-58.5 -131t-106.5 -105t-166 -68t-231 -25q-163 0 -288 36.5t-201.5 103t-115 153t-38.5 191.5zM449 1536l182 328h399l182 -328h-143l-240 211 l-237 -211h-143z" />
<glyph unicode="&#xdc;" horiz-adv-x="1529" d="M154 459v975h424v-996q0 -144 81 -210t218 -66q66 0 120 15t96 47t65.5 86.5t23.5 127.5v996h194v-979q0 -82 -17 -151t-58.5 -131t-106.5 -105t-166 -68t-231 -25q-163 0 -288 36.5t-201.5 103t-115 153t-38.5 191.5zM403 1710q0 72 51.5 116t137.5 44q87 0 139.5 -44 t52.5 -116t-52 -114t-140 -42q-86 0 -137.5 42t-51.5 114zM877 1710q0 72 51 116t137 44q87 0 139.5 -44t52.5 -116t-52 -114t-140 -42q-86 0 -137 42t-51 114z" />
<glyph unicode="&#xdd;" d="M39 1434h506l373 -562l370 562h232l-529 -811v-623h-422v618zM743 1536l177 328h346v-35l-359 -293h-164z" />
<glyph unicode="&#xde;" horiz-adv-x="1570" d="M154 0v1434h424v-275h278q161 0 276 -20.5t198 -67t123 -125.5t40 -194q0 -228 -158.5 -331.5t-478.5 -103.5h-278v-317h-424zM578 502h278q88 0 136 48t48 148v86q0 189 -184 189h-278v-471z" />
<glyph unicode="&#xdf;" horiz-adv-x="1423" d="M31 854v170h164v88q0 175 135.5 260.5t384.5 85.5q246 0 369.5 -76t123.5 -198q0 -167 -176 -236q153 -52 241.5 -165t88.5 -283q0 -157 -77 -275t-203.5 -177.5t-280.5 -59.5q-69 0 -113 12v166q27 -8 66 -8q87 0 139.5 49.5t52.5 148.5v285q0 104 -53.5 158.5 t-144.5 54.5h-60v170h53q158 0 158 139q0 59 -39 92t-115 33q-153 0 -153 -137v-1151h-397v854h-164z" />
<glyph unicode="&#xe0;" horiz-adv-x="1327" d="M61 340q0 160 118.5 250t307.5 90t320 -80v119q0 151 -195 151q-98 0 -195 -26.5t-169 -75.5h-23l-65 154q92 52 227.5 89.5t292.5 37.5q267 0 395.5 -90.5t128.5 -301.5v-657h-397v84q-126 -109 -330 -109q-185 0 -300.5 96t-115.5 269zM221 1419v35h346l176 -328h-163z M457 307q0 -72 44 -109.5t117 -37.5q52 0 103.5 23t85.5 61v223q-67 43 -170 43q-85 0 -132.5 -39t-47.5 -113v-51z" />
<glyph unicode="&#xe1;" horiz-adv-x="1327" d="M61 340q0 160 118.5 250t307.5 90t320 -80v119q0 151 -195 151q-98 0 -195 -26.5t-169 -75.5h-23l-65 154q92 52 227.5 89.5t292.5 37.5q267 0 395.5 -90.5t128.5 -301.5v-657h-397v84q-126 -109 -330 -109q-185 0 -300.5 96t-115.5 269zM457 307q0 -72 44 -109.5 t117 -37.5q52 0 103.5 23t85.5 61v223q-67 43 -170 43q-85 0 -132.5 -39t-47.5 -113v-51zM584 1126l176 328h346v-35l-358 -293h-164z" />
<glyph unicode="&#xe2;" horiz-adv-x="1327" d="M61 340q0 160 118.5 250t307.5 90t320 -80v119q0 151 -195 151q-98 0 -195 -26.5t-169 -75.5h-23l-65 154q92 52 227.5 89.5t292.5 37.5q267 0 395.5 -90.5t128.5 -301.5v-657h-397v84q-126 -109 -330 -109q-185 0 -300.5 96t-115.5 269zM283 1126l182 328h399l183 -328 h-144l-239 211l-238 -211h-143zM457 307q0 -72 44 -109.5t117 -37.5q52 0 103.5 23t85.5 61v223q-67 43 -170 43q-85 0 -132.5 -39t-47.5 -113v-51z" />
<glyph unicode="&#xe3;" horiz-adv-x="1327" d="M61 340q0 160 118.5 250t307.5 90t320 -80v119q0 151 -195 151q-98 0 -195 -26.5t-169 -75.5h-23l-65 154q92 52 227.5 89.5t292.5 37.5q267 0 395.5 -90.5t128.5 -301.5v-657h-397v84q-126 -109 -330 -109q-185 0 -300.5 96t-115.5 269zM297 1126q0 144 63.5 242 t174.5 98q48 0 88 -16.5t66 -40t48.5 -47.5t45 -40.5t44.5 -16.5q36 0 55 40.5t19 108.5h129q0 -145 -63 -242.5t-174 -97.5q-48 0 -88 16.5t-66 40t-48.5 47t-45 40t-45.5 16.5q-35 0 -54.5 -40.5t-19.5 -107.5h-129zM457 307q0 -72 44 -109.5t117 -37.5q52 0 103.5 23 t85.5 61v223q-67 43 -170 43q-85 0 -132.5 -39t-47.5 -113v-51z" />
<glyph unicode="&#xe4;" horiz-adv-x="1327" d="M61 340q0 160 118.5 250t307.5 90t320 -80v119q0 151 -195 151q-98 0 -195 -26.5t-169 -75.5h-23l-65 154q92 52 227.5 89.5t292.5 37.5q267 0 395.5 -90.5t128.5 -301.5v-657h-397v84q-126 -109 -330 -109q-185 0 -300.5 96t-115.5 269zM236 1300q0 72 51 116t137 44 q87 0 139.5 -44t52.5 -116t-52 -113.5t-140 -41.5q-87 0 -137.5 41.5t-50.5 113.5zM457 307q0 -72 44 -109.5t117 -37.5q52 0 103.5 23t85.5 61v223q-67 43 -170 43q-85 0 -132.5 -39t-47.5 -113v-51zM709 1300q0 72 51 116t137 44q88 0 140.5 -44t52.5 -116t-52.5 -113.5 t-140.5 -41.5q-87 0 -137.5 41.5t-50.5 113.5z" />
<glyph unicode="&#xe5;" horiz-adv-x="1327" d="M61 340q0 160 118.5 250t307.5 90t320 -80v119q0 151 -195 151q-98 0 -195 -26.5t-169 -75.5h-23l-65 154q92 52 227.5 89.5t292.5 37.5q267 0 395.5 -90.5t128.5 -301.5v-657h-397v84q-126 -109 -330 -109q-185 0 -300.5 96t-115.5 269zM457 307q0 -72 44 -109.5 t117 -37.5q52 0 103.5 23t85.5 61v223q-67 43 -170 43q-85 0 -132.5 -39t-47.5 -113v-51zM463 1323q0 82 59.5 141.5t141.5 59.5t141 -59.5t59 -141.5t-59 -141.5t-141 -59.5t-141.5 59.5t-59.5 141.5zM578 1323q0 -37 24.5 -61.5t61.5 -24.5t61.5 24.5t24.5 61.5 t-24.5 61.5t-61.5 24.5t-61.5 -24.5t-24.5 -61.5z" />
<glyph unicode="&#xe6;" horiz-adv-x="2021" d="M61 340q0 160 118.5 250t307.5 90t320 -80v119q0 155 -195 155q-98 0 -194.5 -28t-169.5 -78h-23l-65 154q91 52 223 89.5t276 37.5q146 0 238 -37t137 -119q137 156 393 156q152 0 271.5 -63.5t189.5 -186.5t70 -287v-66h-754v-96q0 -110 66.5 -157.5t199.5 -47.5 q98 0 187.5 30t144.5 85h25l108 -117q-103 -87 -220 -127.5t-283 -40.5q-325 0 -490 170q-89 -88 -198 -129t-250 -41q-196 0 -314.5 95.5t-118.5 269.5zM457 307q0 -77 43.5 -115t117.5 -38q112 0 189 92v221q-67 43 -170 43q-85 0 -132.5 -39t-47.5 -113v-51zM1204 616 h379v66q0 197 -188 197q-89 0 -140 -48.5t-51 -148.5v-66z" />
<glyph unicode="&#xe7;" horiz-adv-x="1140" d="M61 512q0 165 79 287.5t217.5 186t316.5 63.5q144 0 248.5 -39t191.5 -129l-117 -142h-24q-42 70 -116.5 105t-158.5 35q-104 0 -162.5 -54.5t-58.5 -158.5v-310q0 -103 58.5 -157t162.5 -54q87 0 166.5 30.5t124.5 90.5h25l100 -123q-156 -156 -401 -168l-25 -67 q32 8 72 8q79 0 130.5 -33t51.5 -94q0 -76 -86 -119t-221 -43q-69 0 -144.5 14t-119.5 33l28 93q120 -43 222 -43q122 0 122 51q0 41 -55 41q-50 0 -98 -31l-70 43l55 154q-233 25 -373.5 166t-140.5 364z" />
<glyph unicode="&#xe8;" horiz-adv-x="1294" d="M61 512q0 249 166 393t441 144q255 0 409 -144t154 -393v-66h-754v-96q0 -110 66.5 -157.5t199.5 -47.5q98 0 187.5 30t144.5 85h25l108 -117q-103 -86 -220.5 -127t-282.5 -41q-299 0 -471.5 143t-172.5 394zM225 1419v35h346l177 -328h-164zM477 616h379v66 q0 197 -188 197q-89 0 -140 -48.5t-51 -148.5v-66z" />
<glyph unicode="&#xe9;" horiz-adv-x="1294" d="M61 512q0 249 166 393t441 144q255 0 409 -144t154 -393v-66h-754v-96q0 -110 66.5 -157.5t199.5 -47.5q98 0 187.5 30t144.5 85h25l108 -117q-103 -86 -220.5 -127t-282.5 -41q-299 0 -471.5 143t-172.5 394zM477 616h379v66q0 197 -188 197q-89 0 -140 -48.5 t-51 -148.5v-66zM588 1126l176 328h346v-35l-358 -293h-164z" />
<glyph unicode="&#xea;" horiz-adv-x="1294" d="M61 512q0 249 166 393t441 144q255 0 409 -144t154 -393v-66h-754v-96q0 -110 66.5 -157.5t199.5 -47.5q98 0 187.5 30t144.5 85h25l108 -117q-103 -86 -220.5 -127t-282.5 -41q-299 0 -471.5 143t-172.5 394zM285 1126l182 328h399l183 -328h-144l-239 211l-238 -211 h-143zM477 616h379v66q0 197 -188 197q-89 0 -140 -48.5t-51 -148.5v-66z" />
<glyph unicode="&#xeb;" horiz-adv-x="1294" d="M61 512q0 249 166 393t441 144q255 0 409 -144t154 -393v-66h-754v-96q0 -110 66.5 -157.5t199.5 -47.5q98 0 187.5 30t144.5 85h25l108 -117q-103 -86 -220.5 -127t-282.5 -41q-299 0 -471.5 143t-172.5 394zM240 1300q0 72 51 116t137 44q88 0 140.5 -44t52.5 -116 t-52.5 -113.5t-140.5 -41.5q-87 0 -137.5 41.5t-50.5 113.5zM477 616h379v66q0 197 -188 197q-89 0 -140 -48.5t-51 -148.5v-66zM713 1300q0 72 51 116t137 44q88 0 140.5 -44t52.5 -116t-52.5 -113.5t-140.5 -41.5q-87 0 -137.5 41.5t-50.5 113.5z" />
<glyph unicode="&#xec;" horiz-adv-x="643" d="M-121 1419v35h346l176 -328h-163zM123 0v1024h397v-1024h-397z" />
<glyph unicode="&#xed;" horiz-adv-x="643" d="M123 0v1024h397v-1024h-397zM244 1126l176 328h346v-35l-358 -293h-164z" />
<glyph unicode="&#xee;" horiz-adv-x="643" d="M-59 1126l182 328h399l183 -328h-144l-239 211l-238 -211h-143zM123 0v1024h397v-1024h-397z" />
<glyph unicode="&#xef;" horiz-adv-x="643" d="M-104 1300q0 72 51 116t137 44q87 0 139.5 -44t52.5 -116t-52 -113.5t-140 -41.5q-87 0 -137.5 41.5t-50.5 113.5zM123 0v1024h397v-1024h-397zM369 1300q0 72 51 116t137 44q88 0 140.5 -44t52.5 -116t-52.5 -113.5t-140.5 -41.5q-87 0 -137.5 41.5t-50.5 113.5z" />
<glyph unicode="&#xf0;" horiz-adv-x="1341" d="M61 512q0 250 147 393.5t392 143.5q120 0 215 -39q-56 97 -160 168l-456 -111l-33 119l317 76q-140 51 -317 63l24 135q328 -20 572 -133l348 84l33 -117l-225 -53q177 -121 268.5 -289t91.5 -360q0 -294 -163.5 -455.5t-442.5 -161.5q-278 0 -444.5 143.5t-166.5 393.5z M477 336q0 -94 52 -142.5t143 -48.5q89 0 140.5 48.5t51.5 144.5v352q0 94 -51 141.5t-141 47.5q-91 0 -143 -47.5t-52 -141.5v-354z" />
<glyph unicode="&#xf1;" horiz-adv-x="1368" d="M123 0v1024h397v-131q74 63 177 109.5t221 46.5q153 0 240 -77t87 -218v-754h-399v727q0 52 -22.5 77t-69.5 25q-54 0 -118.5 -31.5t-115.5 -80.5v-717h-397zM317 1126q0 144 63.5 242t174.5 98q48 0 88 -16.5t66.5 -40t49 -47.5t45 -40.5t44.5 -16.5q36 0 55 40.5 t19 108.5h129q0 -145 -63.5 -242.5t-174.5 -97.5q-48 0 -88 16.5t-66 40t-48.5 47t-45 40t-45.5 16.5q-35 0 -54.5 -40.5t-19.5 -107.5h-129z" />
<glyph unicode="&#xf2;" horiz-adv-x="1341" d="M61 512q0 250 166.5 393.5t444.5 143.5t443 -143.5t165 -393.5t-165 -393.5t-443 -143.5t-444.5 143.5t-166.5 393.5zM229 1419v35h346l177 -328h-164zM477 336q0 -95 52 -143t143 -48q90 0 141 48.5t51 144.5v352q0 94 -51 141.5t-141 47.5q-91 0 -143 -47.5t-52 -141.5 v-354z" />
<glyph unicode="&#xf3;" horiz-adv-x="1341" d="M61 512q0 250 166.5 393.5t444.5 143.5t443 -143.5t165 -393.5t-165 -393.5t-443 -143.5t-444.5 143.5t-166.5 393.5zM477 336q0 -95 52 -143t143 -48q90 0 141 48.5t51 144.5v352q0 94 -51 141.5t-141 47.5q-91 0 -143 -47.5t-52 -141.5v-354zM592 1126l176 328h346v-35 l-358 -293h-164z" />
<glyph unicode="&#xf4;" horiz-adv-x="1341" d="M61 512q0 250 166.5 393.5t444.5 143.5t443 -143.5t165 -393.5t-165 -393.5t-443 -143.5t-444.5 143.5t-166.5 393.5zM289 1126l182 328h399l183 -328h-144l-239 211l-238 -211h-143zM477 336q0 -95 52 -143t143 -48q90 0 141 48.5t51 144.5v352q0 94 -51 141.5 t-141 47.5q-91 0 -143 -47.5t-52 -141.5v-354z" />
<glyph unicode="&#xf5;" horiz-adv-x="1341" d="M61 512q0 250 166.5 393.5t444.5 143.5t443 -143.5t165 -393.5t-165 -393.5t-443 -143.5t-444.5 143.5t-166.5 393.5zM305 1126q0 144 63.5 242t174.5 98q48 0 88 -16.5t66.5 -40t49 -47.5t45 -40.5t44.5 -16.5q36 0 54.5 40.5t18.5 108.5h129q0 -145 -63 -242.5 t-174 -97.5q-48 0 -88 16.5t-66 40t-48.5 47t-45 40t-45.5 16.5q-35 0 -54.5 -40.5t-19.5 -107.5h-129zM477 336q0 -95 52 -143t143 -48q90 0 141 48.5t51 144.5v352q0 94 -51 141.5t-141 47.5q-91 0 -143 -47.5t-52 -141.5v-354z" />
<glyph unicode="&#xf6;" horiz-adv-x="1341" d="M61 512q0 250 166.5 393.5t444.5 143.5t443 -143.5t165 -393.5t-165 -393.5t-443 -143.5t-444.5 143.5t-166.5 393.5zM244 1300q0 72 51 116t137 44q88 0 140.5 -44t52.5 -116t-52.5 -113.5t-140.5 -41.5q-87 0 -137.5 41.5t-50.5 113.5zM477 336q0 -95 52 -143t143 -48 q90 0 141 48.5t51 144.5v352q0 94 -51 141.5t-141 47.5q-91 0 -143 -47.5t-52 -141.5v-354zM717 1300q0 72 51 116t137 44q88 0 140.5 -44t52.5 -116t-52.5 -113.5t-140.5 -41.5q-87 0 -137.5 41.5t-50.5 113.5z" />
<glyph unicode="&#xf7;" horiz-adv-x="1148" d="M61 428v168h1024v-168h-1024zM397 145q0 74 50 122t126 48q77 0 128 -48.5t51 -121.5q0 -72 -51 -120t-128 -48q-76 0 -126 48t-50 120zM397 877q0 75 49.5 122.5t126.5 47.5q78 0 128.5 -47.5t50.5 -122.5q0 -72 -50.5 -120t-128.5 -48q-76 0 -126 48t-50 120z" />
<glyph unicode="&#xf8;" horiz-adv-x="1341" d="M61 512q0 250 166.5 393.5t444.5 143.5q184 0 325 -66l39 41h232l-131 -139q143 -140 143 -373q0 -250 -165 -393.5t-443 -143.5q-189 0 -328 68l-41 -43h-231l133 141q-144 141 -144 371zM477 430l357 379q-49 70 -162 70q-91 0 -143 -47.5t-52 -141.5v-260zM508 217 q48 -72 164 -72q90 0 141 48.5t51 144.5v258z" />
<glyph unicode="&#xf9;" horiz-adv-x="1368" d="M123 270v754h397v-727q0 -102 94 -102q52 0 116 32t116 80v717h399v-1024h-399v129q-76 -63 -178 -108.5t-217 -45.5q-154 0 -241 77t-87 218zM242 1419v35h346l176 -328h-164z" />
<glyph unicode="&#xfa;" horiz-adv-x="1368" d="M123 270v754h397v-727q0 -102 94 -102q52 0 116 32t116 80v717h399v-1024h-399v129q-76 -63 -178 -108.5t-217 -45.5q-154 0 -241 77t-87 218zM604 1126l176 328h346v-35l-358 -293h-164z" />
<glyph unicode="&#xfb;" horiz-adv-x="1368" d="M123 270v754h397v-727q0 -102 94 -102q52 0 116 32t116 80v717h399v-1024h-399v129q-76 -63 -178 -108.5t-217 -45.5q-154 0 -241 77t-87 218zM303 1126l182 328h400l182 -328h-143l-240 211l-238 -211h-143z" />
<glyph unicode="&#xfc;" horiz-adv-x="1368" d="M123 270v754h397v-727q0 -102 94 -102q52 0 116 32t116 80v717h399v-1024h-399v129q-76 -63 -178 -108.5t-217 -45.5q-154 0 -241 77t-87 218zM256 1300q0 72 51 116t137 44q88 0 140.5 -44t52.5 -116t-52.5 -113.5t-140.5 -41.5q-87 0 -137.5 41.5t-50.5 113.5z M729 1300q0 72 51.5 116t137.5 44q87 0 139.5 -44t52.5 -116t-52 -113.5t-140 -41.5q-87 0 -138 41.5t-51 113.5z" />
<glyph unicode="&#xfd;" horiz-adv-x="1161" d="M16 1024h437l252 -586l251 586h189l-469 -1096q-128 -301 -473 -301l-53 160l14 16q225 0 323 140zM539 1126l176 328h346v-35l-359 -293h-163z" />
<glyph unicode="&#xfe;" horiz-adv-x="1351" d="M123 -348v1782h397v-504q119 119 316 119q193 0 322.5 -144.5t129.5 -392.5t-129.5 -392.5t-322.5 -144.5q-197 0 -316 119v-442h-397zM520 264q34 -48 83.5 -73t101.5 -25q169 0 169 201v290q0 104 -46 153.5t-123 49.5q-51 0 -101 -26t-84 -74v-496z" />
<glyph unicode="&#xff;" horiz-adv-x="1161" d="M16 1024h437l252 -586l251 586h189l-469 -1096q-128 -301 -473 -301l-53 160l14 16q225 0 323 140zM190 1300q0 72 51.5 116t137.5 44q87 0 139.5 -44t52.5 -116t-52 -113.5t-140 -41.5q-87 0 -138 41.5t-51 113.5zM664 1300q0 72 51 116t137 44q87 0 139.5 -44 t52.5 -116t-52 -113.5t-140 -41.5q-87 0 -137.5 41.5t-50.5 113.5z" />
<glyph unicode="&#x152;" horiz-adv-x="2330" d="M78 717q0 175 52.5 316.5t145 233.5t218 141.5t272.5 49.5q201 0 328 -127v103h1036l72 -185h-684v-407h497v-185h-497v-471h735l-72 -186h-1087v102q-127 -127 -328 -127q-147 0 -272.5 50t-218 142.5t-145 234t-52.5 315.5zM530 420q0 -258 283 -258q281 0 281 260v592 q0 260 -281 260q-283 0 -283 -260v-594z" />
<glyph unicode="&#x153;" horiz-adv-x="2097" d="M61 512q0 249 164 393t432 144t414 -162q71 78 176.5 120t235.5 42q247 0 399 -144.5t152 -392.5v-66h-754v-96q0 -110 66.5 -157.5t199.5 -47.5q98 0 186.5 29.5t145.5 85.5h25l106 -117q-101 -86 -216 -127t-271 -41q-295 0 -447 164q-149 -164 -418 -164 q-268 0 -432 144t-164 393zM477 336q0 -95 52 -143t143 -48q90 0 141 48.5t51 144.5v352q0 94 -51 141.5t-141 47.5q-91 0 -143 -47.5t-52 -141.5v-354zM1280 616h379v64q0 199 -189 199q-89 0 -139.5 -48.5t-50.5 -150.5v-64z" />
<glyph unicode="&#x178;" d="M39 1434h506l373 -562l370 562h232l-529 -811v-623h-422v618zM395 1710q0 72 51.5 116t137.5 44q87 0 139.5 -44t52.5 -116t-52 -114t-140 -42q-86 0 -137.5 42t-51.5 114zM868 1710q0 72 51.5 116t137.5 44q87 0 139.5 -44t52.5 -116t-52 -114t-140 -42q-86 0 -137.5 42 t-51.5 114z" />
<glyph unicode="&#x2c6;" horiz-adv-x="927" d="M82 1126l182 328h400l182 -328h-144l-239 211l-238 -211h-143z" />
<glyph unicode="&#x2dc;" horiz-adv-x="897" d="M82 1126q0 144 63 242t174 98q48 0 88 -16.5t66.5 -40t49 -47.5t45 -40.5t44.5 -16.5q36 0 55 40.5t19 108.5h129q0 -145 -63 -242.5t-174 -97.5q-48 0 -88 16.5t-66 40t-48.5 47t-45 40t-45.5 16.5q-35 0 -54.5 -40.5t-19.5 -107.5h-129z" />
<glyph unicode="&#x2000;" horiz-adv-x="966" />
<glyph unicode="&#x2001;" horiz-adv-x="1933" />
<glyph unicode="&#x2002;" horiz-adv-x="966" />
<glyph unicode="&#x2003;" horiz-adv-x="1933" />
<glyph unicode="&#x2004;" horiz-adv-x="644" />
<glyph unicode="&#x2005;" horiz-adv-x="483" />
<glyph unicode="&#x2006;" horiz-adv-x="322" />
<glyph unicode="&#x2007;" horiz-adv-x="322" />
<glyph unicode="&#x2008;" horiz-adv-x="241" />
<glyph unicode="&#x2009;" horiz-adv-x="386" />
<glyph unicode="&#x200a;" horiz-adv-x="107" />
<glyph unicode="&#x2010;" horiz-adv-x="751" d="M61 397v230h629v-230h-629z" />
<glyph unicode="&#x2011;" horiz-adv-x="751" d="M61 397v230h629v-230h-629z" />
<glyph unicode="&#x2012;" horiz-adv-x="751" d="M61 397v230h629v-230h-629z" />
<glyph unicode="&#x2013;" horiz-adv-x="1366" d="M61 428v168h1244v-168h-1244z" />
<glyph unicode="&#x2014;" horiz-adv-x="2050" d="M61 428v168h1928v-168h-1928z" />
<glyph unicode="&#x2018;" horiz-adv-x="686" d="M106 952q0 90 35.5 173t94.5 145t126.5 108t141.5 76l55 -86q-66 -42 -115 -102t-67 -123q89 -10 146 -72t57 -147q0 -97 -68.5 -160.5t-167.5 -63.5t-168.5 70t-69.5 182z" />
<glyph unicode="&#x2019;" horiz-adv-x="686" d="M106 1231q0 97 69 160t167 63q99 0 168.5 -69.5t69.5 -182.5q0 -90 -35 -172.5t-94 -144.5t-126 -107.5t-141 -75.5l-55 86q66 42 115 101.5t67 124.5q-89 7 -147 69.5t-58 147.5z" />
<glyph unicode="&#x201a;" horiz-adv-x="686" d="M106 197q0 97 69 160t167 63q99 0 168.5 -69.5t69.5 -182.5q0 -90 -35 -172.5t-94 -144.5t-126 -108t-141 -77l-55 86q145 99 182 225q-89 9 -147 72t-58 148z" />
<glyph unicode="&#x201c;" horiz-adv-x="1243" d="M106 952q0 90 35.5 173t94.5 145t126.5 108t141.5 76l55 -86q-66 -42 -115 -102t-67 -123q89 -10 146 -72t57 -147q0 -97 -68.5 -160.5t-167.5 -63.5t-168.5 70t-69.5 182zM664 952q0 90 35 173t93.5 145t125.5 108t141 76l55 -86q-66 -42 -115 -102t-67 -123 q89 -9 146 -71.5t57 -147.5q0 -97 -68.5 -160.5t-167.5 -63.5q-97 0 -166 70t-69 182z" />
<glyph unicode="&#x201d;" horiz-adv-x="1243" d="M106 1231q0 97 69 160t167 63q99 0 168.5 -69.5t69.5 -182.5q0 -90 -35 -172.5t-94 -144.5t-126 -107.5t-141 -75.5l-55 86q66 42 115 101.5t67 124.5q-89 7 -147 69.5t-58 147.5zM664 1231q0 97 68 160t167 63t168.5 -69.5t69.5 -182.5q0 -90 -35.5 -172.5t-94.5 -144.5 t-126.5 -107.5t-141.5 -75.5l-55 86q66 42 115 101.5t67 124.5q-89 9 -145.5 70.5t-56.5 146.5z" />
<glyph unicode="&#x201e;" horiz-adv-x="1243" d="M106 197q0 97 69 160t167 63q99 0 168.5 -69.5t69.5 -182.5q0 -90 -35 -172.5t-94 -144.5t-126 -108t-141 -77l-55 86q145 99 182 225q-89 9 -147 72t-58 148zM664 197q0 97 68 160t167 63t168.5 -69.5t69.5 -182.5q0 -90 -35.5 -172.5t-94.5 -144.5t-126.5 -108 t-141.5 -77l-55 86q144 96 182 225q-89 10 -145.5 72.5t-56.5 147.5z" />
<glyph unicode="&#x2022;" horiz-adv-x="921" d="M106 512q0 146 99.5 240t253.5 94q155 0 255.5 -94t100.5 -240q0 -143 -101 -238.5t-255 -95.5q-153 0 -253 95.5t-100 238.5z" />
<glyph unicode="&#x2026;" horiz-adv-x="2058" d="M106 201q0 97 66.5 159t169.5 62t170.5 -62.5t67.5 -158.5q0 -97 -67.5 -160.5t-170.5 -63.5t-169.5 63.5t-66.5 160.5zM793 201q0 97 66 159t169 62t170.5 -62.5t67.5 -158.5q0 -97 -67.5 -160.5t-170.5 -63.5q-102 0 -168.5 63.5t-66.5 160.5zM1479 201q0 97 66 159 t169 62t170.5 -62.5t67.5 -158.5q0 -97 -67.5 -160.5t-170.5 -63.5q-102 0 -168.5 63.5t-66.5 160.5z" />
<glyph unicode="&#x202f;" horiz-adv-x="386" />
<glyph unicode="&#x2039;" horiz-adv-x="823" d="M125 512l315 393h238l-316 -393l316 -393h-238z" />
<glyph unicode="&#x203a;" horiz-adv-x="823" d="M147 119l316 393l-316 393h238l315 -393l-315 -393h-238z" />
<glyph unicode="&#x205f;" horiz-adv-x="483" />
<glyph unicode="&#x20ac;" horiz-adv-x="1286" d="M72 492v165h125q-2 20 -2 60q0 39 2 57h-125v168h145q54 241 212 378.5t378 137.5q144 0 248.5 -39t191.5 -129l-117 -141h-24q-42 70 -117 106.5t-158 36.5q-105 0 -163 -57t-58 -168v-125h367v-168h-367v-117h367v-165h-367v-127q0 -110 58 -166t163 -56q88 0 167 31 t124 92h25l100 -123q-168 -168 -440 -168q-220 0 -378 138t-212 379h-145z" />
<glyph unicode="&#x2122;" horiz-adv-x="1138" d="M55 1376v58h391v-58h-163v-372h-64v372h-164zM532 1004v430h86l160 -332l158 332h92v-430h-63v352l-166 -352h-43l-160 337v-337h-64z" />
<glyph unicode="&#x25fc;" horiz-adv-x="1024" d="M0 0v1024h1024v-1024h-1024z" />
<glyph unicode="&#xfb01;" horiz-adv-x="1572" d="M31 854v170h164v100q0 166 119 250t327 84q190 0 311 -57l-53 -156h-22q-65 43 -160 43q-65 0 -95 -27.5t-30 -91.5v-145h307v-170h-307v-854h-397v854h-164zM1030 1300q0 83 60 134t159 51q103 0 164.5 -51t61.5 -134q0 -84 -61.5 -133t-164.5 -49q-100 0 -159.5 49.5 t-59.5 132.5zM1053 0v1024h397v-1024h-397z" />
<glyph unicode="&#xfb02;" horiz-adv-x="1574" d="M31 854v170h164v100q0 166 119 250t327 84q190 0 311 -57l-53 -156h-22q-65 43 -160 43q-65 0 -95 -27.5t-30 -91.5v-145h307v-170h-307v-854h-397v854h-164zM1053 0v1434h397v-1434h-397z" />
</font>
</defs>
</svg>
