<svg width="64" height="31" viewBox="0 0 64 31" fill="none" xmlns="http://www.w3.org/2000/svg">
<g clip-path="url(#clip0_772_354)">
<path d="M63.0198 10.77C62.4298 7.99001 61.2498 5.53001 59.5898 3.60001C60.0698 2.83001 60.4898 1.88001 60.3998 0.79001L60.3298 0.0100098L59.5498 0.12001C58.4398 0.27001 57.4998 0.52001 56.5898 0.89001C54.5198 0.39001 53.3298 0.95001 51.5498 2.33001C50.0898 3.47001 48.7298 4.75001 47.4798 5.96001L47.2398 6.19001L47.3098 8.90001C46.2798 9.76001 45.2798 10.44 44.4898 10.88C44.4898 10.46 44.1498 10.12 43.7398 10.12C43.3298 10.12 42.9898 10.46 42.9898 10.87V11.42C42.9898 11.42 42.9398 11.42 42.9298 11.42L39.3298 10.26C36.4998 9.35001 34.4498 9.76001 32.1098 11.73C30.9098 11.61 28.3098 11.58 27.4198 13.48C27.0298 14.31 26.9498 15.26 26.9398 15.91L26.9198 17.85L22.5998 18.89L24.4598 12.07C24.4598 12.07 24.4598 12 24.4598 11.97C24.4598 11.94 24.4798 11.91 24.4798 11.87C24.4798 11.85 24.4798 11.84 24.4798 11.82C24.4798 11.77 24.4598 11.72 24.4498 11.67C24.4398 11.63 24.4298 11.58 24.4098 11.54C24.3898 11.5 24.3598 11.46 24.3298 11.42C24.2998 11.38 24.2698 11.35 24.2398 11.31C24.2098 11.28 24.1698 11.26 24.1198 11.23C24.0798 11.2 24.0298 11.18 23.9798 11.16C23.9598 11.16 23.9498 11.14 23.9398 11.14C23.9098 11.14 23.8698 11.14 23.8398 11.14C23.8098 11.14 23.7798 11.12 23.7398 11.12H0.749766C0.749766 11.12 0.729766 11.12 0.719766 11.12C0.709766 11.12 0.699766 11.12 0.689766 11.12C0.649766 11.12 0.619766 11.14 0.579766 11.15C0.529766 11.16 0.479766 11.17 0.439766 11.19C0.399766 11.21 0.359766 11.24 0.319766 11.27C0.279766 11.3 0.239766 11.32 0.209766 11.36C0.179766 11.4 0.159766 11.44 0.129766 11.48C0.109766 11.52 0.0797656 11.56 0.0597656 11.6C0.0397656 11.65 0.0397656 11.7 0.0297656 11.75C0.0297656 11.79 0.00976562 11.82 0.00976562 11.86C0.00976562 11.87 0.00976562 11.88 0.00976562 11.89C0.00976562 11.9 0.00976562 11.91 0.00976562 11.92L1.00977 22.92C1.00977 22.92 1.02977 23 1.04977 23.05C1.05977 23.09 1.06977 23.13 1.07977 23.17C1.09977 23.22 1.13977 23.26 1.16977 23.31C1.18977 23.34 1.20977 23.37 1.23977 23.4C1.27977 23.44 1.33977 23.47 1.38977 23.5C1.41977 23.52 1.43977 23.54 1.46977 23.55C1.55977 23.59 1.64977 23.61 1.74977 23.61H3.03977C3.41977 27.53 6.72977 30.61 10.7498 30.61C14.7698 30.61 18.0798 27.53 18.4598 23.61H20.7498C20.8398 23.61 20.9298 23.59 21.0198 23.56C21.0498 23.55 21.0698 23.53 21.0998 23.52C21.1498 23.49 21.1998 23.46 21.2498 23.42C21.2798 23.4 21.2998 23.37 21.3198 23.35C21.3598 23.31 21.3898 23.26 21.4098 23.21C21.4298 23.18 21.4398 23.15 21.4498 23.11C21.4498 23.09 21.4698 23.08 21.4698 23.06L22.1598 20.54L26.8898 19.4C26.8198 19.96 26.6198 20.26 26.2998 20.68C26.0598 21 25.7998 21.36 25.5498 21.88L25.1798 22.66L25.9998 22.92C26.9298 23.21 27.8698 23.19 28.8798 22.84C29.4898 22.63 29.9898 22.3 30.4098 21.87L28.8398 25.14C27.4198 26.29 26.7098 27.34 26.6798 28.33L26.5898 30.62H31.0898L31.3098 30.28C32.1798 28.86 32.3298 28.51 32.3198 26.89L36.1198 23.11C36.9998 22.24 37.7498 21.27 38.4198 20.17C40.3398 21.49 42.5598 21.94 44.8698 21.45L45.3098 21.36C46.0998 21.2 46.9098 21.03 47.7198 20.71C48.1298 21.5 48.5798 22.22 49.0998 22.89C50.2698 24.4 51.2098 25.74 52.0598 27.08C52.0898 27.76 52.2298 28.4 52.4698 29.02L53.0698 30.53H57.7498L57.7198 29.76C57.6598 28.03 56.2998 26.21 55.1898 25.41C55.0698 24.32 54.9198 23.16 54.6698 21.94L54.6298 21.76C54.4398 20.8 54.2598 19.89 54.2298 18.96C54.7598 17.86 54.8098 16.4 54.7898 14.97C54.7598 13 54.8098 11.11 55.6598 9.77001C56.0998 10.14 56.5298 10.45 56.9298 10.73L59.2998 12.44C59.9398 12.9 61.2598 13.38 62.8598 11.4L63.0798 11.12L63.0098 10.77H63.0198ZM18.4598 22.12C18.0798 18.2 14.7698 15.12 10.7498 15.12C6.72977 15.12 3.41977 18.2 3.03977 22.12H2.43977L1.57977 12.62H22.7798L20.1898 22.12H18.4698H18.4598ZM6.47977 22.12H4.54977C4.68977 20.96 5.14977 19.9 5.83977 19.02L8.72976 21.91C8.69977 21.98 8.66977 22.05 8.63977 22.12H6.47977ZM12.8598 22.12C12.8298 22.05 12.8098 21.98 12.7698 21.91L15.6598 19.02C16.3498 19.9 16.8098 20.96 16.9498 22.12H12.8598ZM11.7098 20.84C11.6398 20.81 11.5698 20.78 11.4998 20.75V16.66C12.6598 16.8 13.7198 17.26 14.5998 17.95L11.7098 20.84ZM9.99977 20.76C9.92977 20.79 9.85977 20.81 9.78977 20.85L6.89977 17.96C7.77977 17.27 8.83977 16.81 9.99977 16.67V20.76ZM9.78977 24.89C9.85977 24.92 9.92977 24.95 9.99977 24.98V29.07C8.83977 28.93 7.77977 28.47 6.89977 27.78L9.78977 24.89ZM11.4998 26.55V24.98C11.5698 24.95 11.6398 24.93 11.7098 24.89L14.5998 27.78C13.7198 28.47 12.6598 28.93 11.4998 29.07V26.56V26.55ZM12.7698 23.83C12.7998 23.76 12.8298 23.69 12.8598 23.62H16.9498C16.8098 24.78 16.3498 25.84 15.6598 26.72L12.7698 23.83ZM6.47977 23.62H8.63977C8.66977 23.69 8.68976 23.76 8.72976 23.83L5.83977 26.72C5.14977 25.84 4.68977 24.78 4.54977 23.62H6.47977ZM28.4498 15.93C28.4498 15.22 28.5798 14.57 28.7898 14.12C29.2298 13.18 30.9298 13.07 32.2498 13.26L32.5898 13.31L32.8498 13.08C34.9098 11.26 36.4298 10.91 38.8698 11.69L42.4698 12.85C42.6298 12.9 42.8098 12.92 42.9898 12.92V14.01L28.4298 17.5V15.94L28.4498 15.93ZM28.4098 21.43C28.0798 21.54 27.7798 21.6 27.4798 21.62C27.4798 21.61 27.4998 21.59 27.5098 21.58C27.9498 20.99 28.3998 20.37 28.4198 19.03L30.6598 18.49C30.1398 19.81 29.5098 21.05 28.4098 21.42V21.43ZM38.6798 18.48L37.9698 17.89L37.5298 18.7C36.8398 19.99 36.0298 21.08 35.0598 22.05L30.8098 26.28V26.6C30.8398 28.02 30.8198 28.2 30.2598 29.14H28.1498L28.1798 28.39C28.1898 28.08 28.4298 27.39 29.9098 26.21L30.0398 26.1L32.3298 21.32C32.8198 20.3 32.6798 18.99 32.0198 18.17L42.9798 15.54V19.87C42.9798 19.96 42.9998 20.05 43.0298 20.13C41.4498 20.13 39.9598 19.56 38.6498 18.47L38.6798 18.48ZM60.1898 11.22L57.8198 9.51001C57.1498 9.03001 56.6298 8.64001 56.0998 8.13001L55.5598 7.61001L55.0398 8.16001C53.3698 9.92001 53.2698 12.39 53.3098 14.99C53.3198 15.81 53.3498 17.5 52.8398 18.42L52.7498 18.59V18.79C52.7498 19.92 52.9698 21.01 53.1798 22.05L53.2198 22.23C53.4798 23.52 53.6298 24.77 53.7598 25.93L53.7998 26.32L54.1498 26.51C54.7898 26.85 55.7198 27.95 56.0898 29.03H54.1098L53.8898 28.47C53.6798 27.94 53.5798 27.43 53.5798 26.85V26.64L53.4698 26.46C52.5698 25.01 51.5698 23.58 50.3098 21.97C49.7098 21.2 49.2298 20.39 48.7798 19.42L48.4498 18.71L47.7498 19.07C46.8998 19.51 45.9898 19.7 45.0298 19.89L44.5798 19.98C44.5798 19.98 44.5198 19.98 44.4898 19.99C44.4898 19.95 44.5198 19.91 44.5198 19.87V15.18L46.9398 14.6C47.3398 14.5 47.5898 14.1 47.4898 13.7C47.3898 13.3 46.9798 13.05 46.5898 13.15L44.5098 13.65V12.56C46.0398 11.91 47.7298 10.55 48.5798 9.82001L48.8498 9.59001L48.7798 6.82001C50.0898 5.55001 51.2298 4.50001 52.4798 3.53001C54.0998 2.27001 54.8298 1.97001 56.4698 2.41001L56.7298 2.48001L56.9698 2.37001C57.5598 2.11001 58.1598 1.91001 58.8198 1.77001C58.6598 2.32001 58.3398 2.83001 58.0398 3.25001L57.6898 3.75001L58.1098 4.20001C59.7198 5.91001 60.8798 8.16001 61.4898 10.74C60.6998 11.6 60.3398 11.34 60.1998 11.24L60.1898 11.22Z" fill="#6B1A18"/>
<path d="M57.5001 5.10995C57.1601 5.26995 56.9001 5.58995 56.7901 5.98995C56.6001 6.68995 56.9001 7.41995 57.5001 7.69995C57.6601 7.76995 57.8201 7.80995 57.9901 7.80995C58.1401 7.80995 58.2901 7.77995 58.4301 7.71995C58.7601 7.57995 59.0201 7.28995 59.1501 6.92995C59.3801 6.29995 59.1801 5.44995 58.4701 5.11995C58.1601 4.96995 57.8101 4.96995 57.5001 5.11995V5.10995ZM58.2201 6.39995C58.2201 6.39995 58.1801 6.43995 58.1301 6.46995C58.0401 6.50995 57.9201 6.50995 57.8301 6.46995C57.7801 6.44995 57.7501 6.40995 57.7401 6.40995C57.7501 6.38995 57.7901 6.34995 57.8601 6.31995C57.9501 6.28995 58.0501 6.28995 58.1301 6.31995C58.1701 6.33995 58.2001 6.36995 58.2201 6.38995V6.39995Z" fill="#6B1A18"/>
</g>
<defs>
<clipPath id="clip0_772_354">
<rect width="63.1" height="30.64" fill="white"/>
</clipPath>
</defs>
</svg>
