<svg width="25" height="25" viewBox="0 0 25 25" fill="none" xmlns="http://www.w3.org/2000/svg">
<g clip-path="url(#clip0_684_1603)">
<path d="M18.4973 10.3913C16.8548 11.1713 15.2498 11.5338 13.4485 11.545C13.4873 9.89377 13.6798 8.39627 14.4848 6.90752C19.8673 -2.07123 5.32228 -2.39123 10.391 6.50377C11.171 8.14627 11.5335 9.75127 11.5448 11.5525C9.89353 11.5138 8.39603 11.3213 6.90728 10.5163C-2.07147 5.13377 -2.39147 19.6788 6.50353 14.61C8.14603 13.83 9.75103 13.4675 11.5523 13.4563C11.5135 15.1075 11.321 16.605 10.516 18.0938C5.13353 27.0725 19.6785 27.3925 14.6098 18.4975C13.8298 16.855 13.4673 15.25 13.456 13.4488C15.1073 13.4875 16.6048 13.68 18.0935 14.485C27.0723 19.8675 27.3923 5.32252 18.4973 10.3913Z" fill="white"/>
</g>
<defs>
<clipPath id="clip0_684_1603">
<rect width="25" height="25" fill="white"/>
</clipPath>
</defs>
</svg>
