<svg width="12" height="12" viewBox="0 0 12 12" fill="none" xmlns="http://www.w3.org/2000/svg">
<g clip-path="url(#clip0_132_842)">
<path d="M8.87772 4.98782C8.08932 5.36222 7.31892 5.53622 6.45432 5.54162C6.47292 4.74902 6.56532 4.03022 6.95172 3.31562C9.53532 -0.994184 2.55372 -1.14778 4.98672 3.12182C5.36112 3.91022 5.53512 4.68062 5.54052 5.54522C4.74792 5.52662 4.02912 5.43422 3.31452 5.04782C-0.995283 2.46422 -1.14888 9.44582 3.12072 7.01281C3.90912 6.63842 4.67952 6.46442 5.54412 6.45902C5.52552 7.25162 5.43312 7.97042 5.04672 8.68501C2.46312 12.9948 9.44472 13.1484 7.01172 8.87881C6.63732 8.09042 6.46332 7.32001 6.45792 6.45542C7.25052 6.47402 7.96932 6.56642 8.68392 6.95282C12.9937 9.53642 13.1473 2.55482 8.87772 4.98782Z" fill="#6B1A18"/>
</g>
<defs>
<clipPath id="clip0_132_842">
<rect width="12" height="12" fill="white"/>
</clipPath>
</defs>
</svg>
