<svg width="245" height="149" viewBox="0 0 245 149" fill="none" xmlns="http://www.w3.org/2000/svg">
<g clip-path="url(#clip0_68_316)">
<path d="M210.961 48.6413C210.842 48.034 210.675 47.4478 210.465 46.8894C208.895 42.6318 204.965 39.6026 200.338 39.2257C144.535 34.6889 88.7189 34.7587 32.9164 39.4421C28.3796 39.819 24.5059 42.7435 22.9006 46.8894C22.6842 47.4338 22.5097 47.9992 22.3841 48.5854C15.8302 78.2072 16.1791 107.117 21.8327 135.482C21.9374 135.992 22.07 136.488 22.2375 136.962C23.7242 141.359 27.7235 144.514 32.4488 144.898C88.2583 149.435 144.068 149.365 199.877 144.689C204.512 144.298 208.455 141.248 209.991 136.962C210.165 136.501 210.298 136.027 210.41 135.538C216.957 105.917 216.615 77.0067 210.961 48.6413ZM79.5476 130.555C64.9043 132.537 50.6099 132.649 36.7413 130.555C28.8822 104.569 28.8822 78.5841 36.7413 52.5918C50.7076 50.1698 65.002 50.3583 79.5476 52.5918C77.7329 77.8303 77.8655 103.871 79.5476 130.555ZM137.765 132.174C123.129 134.673 108.499 134.68 93.8839 132.174C90.4918 105.568 90.4918 78.954 93.8839 52.3475C108.499 50.3443 123.129 50.3443 137.765 52.3475C141.087 78.6958 141.087 105.302 137.765 132.174ZM194.852 130.555C180.983 132.649 166.696 132.537 152.053 130.555C153.728 103.871 153.867 77.8303 152.053 52.5918C166.591 50.3583 180.886 50.1698 194.852 52.5918C202.711 78.5841 202.711 104.569 194.852 130.555Z" stroke="#6B1A18" stroke-width="1.31502" stroke-miterlimit="10"/>
<path d="M137.765 132.174C123.128 134.673 108.499 134.68 93.8834 132.174C90.4913 105.568 90.4913 78.9541 93.8834 52.3476C108.499 50.3444 123.128 50.3444 137.765 52.3476C141.087 78.6959 141.087 105.302 137.765 132.174Z" stroke="#6B1A18" stroke-width="1.31502" stroke-miterlimit="10"/>
<path d="M194.852 130.555C180.983 132.649 166.696 132.537 152.052 130.555C153.727 103.871 153.867 77.8302 152.052 52.5917C166.591 50.3582 180.885 50.1698 194.852 52.5917C202.711 78.584 202.711 104.569 194.852 130.555Z" stroke="#6B1A18" stroke-width="1.31502" stroke-miterlimit="10"/>
<path d="M79.5474 130.555C64.904 132.537 50.6096 132.649 36.741 130.555C28.8819 104.569 28.8819 78.584 36.741 52.5917C50.7074 50.1698 65.0017 50.3582 79.5474 52.5917C77.7327 77.8302 77.8653 103.871 79.5474 130.555Z" stroke="#6B1A18" stroke-width="1.31502" stroke-miterlimit="10"/>
<path d="M22.3838 48.5855C15.8298 78.2072 16.1788 107.117 21.8324 135.482C21.9371 135.992 22.0697 136.488 22.2372 136.962H18.5798C11.2302 136.962 4.90665 131.748 3.50374 124.524C-0.711989 102.894 -0.70501 81.1736 3.52468 59.3481C4.92061 52.1242 11.2442 46.8894 18.6078 46.8894H22.9003C22.6839 47.4338 22.5094 47.9992 22.3838 48.5855Z" stroke="#6B1A18" stroke-width="1.31502" stroke-miterlimit="10"/>
<path d="M229.471 124.503C228.068 131.734 221.745 136.962 214.381 136.962H209.991C210.165 136.501 210.298 136.027 210.41 135.538C216.956 105.917 216.614 77.0067 210.961 48.6413C210.842 48.0341 210.675 47.4478 210.465 46.8894H214.409C215.756 46.8894 217.075 47.0639 218.331 47.3989L215.26 55.0417C215.588 58.9642 220.223 60.8627 223.217 58.3082L223.357 58.1895L225.332 51.4611C227.405 53.562 228.885 56.2631 229.485 59.3272C233.701 80.9572 233.694 102.678 229.471 124.503Z" stroke="#6B1A18" stroke-width="1.31502" stroke-miterlimit="10"/>
<path d="M243.821 9.38756C243.821 14.2943 239.905 18.2866 235.034 18.4193C234.95 18.4262 234.866 18.4262 234.782 18.4262C233.198 18.4262 231.711 18.0214 230.42 17.3025C227.635 15.767 225.744 12.7936 225.744 9.38756C225.744 4.39709 229.792 0.348877 234.782 0.348877C239.773 0.348877 243.821 4.39709 243.821 9.38756Z" stroke="#6B1A18" stroke-width="1.31502" stroke-miterlimit="10"/>
<path d="M235.034 18.4195L225.332 51.4613L223.357 58.1897L223.217 58.3083C220.223 60.8629 215.588 58.9644 215.26 55.0419L218.331 47.3991L230.42 17.3027C231.711 18.0216 233.198 18.4265 234.782 18.4265C234.866 18.4265 234.95 18.4265 235.034 18.4195Z" stroke="#6B1A18" stroke-width="1.31502" stroke-miterlimit="10"/>
</g>
<defs>
<clipPath id="clip0_68_316">
<rect width="244.17" height="148.597" fill="white"/>
</clipPath>
</defs>
</svg>
